<svg width="500" height="500" viewBox="0 0 500 500" fill="none" xmlns="http://www.w3.org/2000/svg">
<path d="M416.05 244.81C323.74 191.52 174.57 191.52 82.86 244.81C-8.84998 298.1 -8.35998 384.52 83.94 437.81C176.24 491.1 325.43 491.11 417.14 437.81C508.85 384.51 508.36 298.11 416.05 244.81Z" fill="#F4F4F4"/>
<path d="M358.26 78.1303L361.38 76.3203L394.34 95.2803V98.8903L358.26 78.1303Z" fill="#F4F4F4"/>
<path d="M358.26 78.1304L394.34 98.8904V103L358.25 82.2704L358.26 78.1304Z" fill="#E0E0E0"/>
<path d="M397.76 100.83L400.88 99.02L433.84 117.98V121.58L397.76 100.83Z" fill="#F4F4F4"/>
<path d="M397.76 100.83L433.84 121.58V125.7L397.75 104.97L397.76 100.83Z" fill="#E0E0E0"/>
<path d="M358.44 43.4902L361.55 41.6802L361.37 164.41L358.25 166.22L358.44 43.4902Z" fill="#F0F0F0"/>
<path d="M358.25 166.22L361.37 164.41L397.27 185.02L394.15 186.83L358.25 166.22Z" fill="#F4F4F4"/>
<path d="M354.86 37.3003L397.94 62.0503L397.73 193.05L354.65 168.3L354.86 37.3003ZM394.15 186.83L394.34 64.1003L358.44 43.4903L358.25 166.22L394.15 186.83Z" fill="#E0E0E0"/>
<path d="M354.86 37.3002L357.98 35.4902L401.06 60.2402L397.94 62.0502L354.86 37.3002Z" fill="#F4F4F4"/>
<path d="M397.94 62.0502L401.06 60.2402L400.85 191.21L397.73 193.02L397.94 62.0502Z" fill="#F0F0F0"/>
<path d="M397.94 66.1904L401.06 64.3804L400.87 187.11L397.75 188.92L397.94 66.1904Z" fill="#F0F0F0"/>
<path d="M397.75 188.92L400.87 187.11L436.77 207.72L433.65 209.53L397.75 188.92Z" fill="#F4F4F4"/>
<path d="M394.36 60L437.44 84.75L437.23 215.75L394.15 191L394.36 60ZM433.65 209.53L433.84 86.8L397.94 66.19L397.75 188.92L433.65 209.53Z" fill="#E0E0E0"/>
<path d="M394.36 60.0004L397.48 58.1904L440.56 82.9404L437.44 84.7504L394.36 60.0004Z" fill="#F4F4F4"/>
<path d="M437.44 84.7504L440.56 82.9404L440.35 213.91L437.23 215.72L437.44 84.7504Z" fill="#F0F0F0"/>
<path d="M453.61 359.56C446.78 355.62 435.75 355.62 428.97 359.56C422.19 363.5 422.22 369.9 429.05 373.84C435.88 377.78 446.91 377.78 453.69 373.84C460.47 369.9 460.44 363.5 453.61 359.56Z" fill="#DBDBDB"/>
<path d="M390 330.25C360 312.91 311.41 312.91 281.56 330.25C255.19 345.58 252.26 369.31 272.65 386.6C256.19 385.6 239.14 388.72 226.57 396.02C204.51 408.84 204.63 429.62 226.83 442.44C249.03 455.26 284.91 455.26 306.97 442.44C324.52 432.24 327.97 417 317.54 404.74C342.83 408.4 370.66 404.51 390.36 393.07C420.2 375.72 420.05 347.6 390 330.25Z" fill="#DBDBDB"/>
<path d="M229.06 337.21L108.9 406.58C108.292 406.931 107.602 407.116 106.9 407.116C106.198 407.116 105.508 406.931 104.9 406.58L96.3099 401.58C96.098 401.458 95.922 401.283 95.7996 401.071C95.6772 400.86 95.6128 400.62 95.6128 400.375C95.6128 400.131 95.6772 399.891 95.7996 399.679C95.922 399.468 96.098 399.292 96.3099 399.17L216.6 329.83C217.208 329.479 217.898 329.294 218.6 329.294C219.302 329.294 219.992 329.479 220.6 329.83L229.06 334.75C229.284 334.868 229.472 335.045 229.602 335.262C229.733 335.479 229.802 335.727 229.802 335.98C229.802 336.234 229.733 336.482 229.602 336.699C229.472 336.915 229.284 337.092 229.06 337.21Z" fill="#DBDBDB"/>
<path d="M218.58 321.4L71.86 405.48C71.2325 405.844 70.5202 406.035 69.795 406.035C69.0698 406.035 68.3575 405.844 67.73 405.48L58.87 400.37C58.6544 400.243 58.4757 400.062 58.3515 399.844C58.2274 399.627 58.1621 399.381 58.1621 399.13C58.1621 398.88 58.2274 398.634 58.3515 398.416C58.4757 398.199 58.6544 398.017 58.87 397.89L205.72 313.89C206.35 313.524 207.066 313.331 207.795 313.331C208.524 313.331 209.24 313.524 209.87 313.89L218.58 318.96C218.789 319.088 218.962 319.267 219.081 319.481C219.201 319.694 219.264 319.935 219.264 320.18C219.264 320.425 219.201 320.666 219.081 320.879C218.962 321.093 218.789 321.272 218.58 321.4Z" fill="#DBDBDB"/>
<path d="M344 130.1C343.527 129.264 342.836 128.573 342 128.1L310 109.42C307.64 108.07 302 109.91 302 113.71V148.42C302.001 149.35 302.247 150.263 302.714 151.068C303.181 151.872 303.853 152.538 304.66 153L325.48 164.9L321.88 162.84L323.61 167.74C323.637 167.809 323.689 167.865 323.756 167.896C323.823 167.928 323.9 167.933 323.97 167.91C324.28 167.76 325.63 167.03 326.41 166.52H326.46C326.486 166.499 326.509 166.476 326.53 166.45L326.95 165.77L336.64 171.64C337.419 172.138 338.316 172.419 339.239 172.455C340.163 172.491 341.079 172.28 341.894 171.844C342.709 171.408 343.393 170.763 343.875 169.975C344.358 169.186 344.622 168.284 344.64 167.36V132.68C344.648 131.78 344.427 130.892 344 130.1Z" fill="#315B99"/>
<path opacity="0.2" d="M326.65 166.43C326.629 166.456 326.606 166.479 326.58 166.5H326.53C325.75 167.01 324.4 167.74 324.09 167.89C324.159 167.877 324.22 167.837 324.26 167.78L325.93 165.07L325.6 164.88L327.07 165.72L326.65 166.43Z" fill="white"/>
<path opacity="0.4" d="M338.8 133.08C338.461 132.397 337.98 131.793 337.39 131.31C337.189 131.146 336.975 130.999 336.75 130.87L304.75 112.19C304.482 112.037 304.179 111.958 303.871 111.96C303.563 111.961 303.261 112.043 302.995 112.198C302.729 112.353 302.508 112.575 302.354 112.842C302.201 113.109 302.12 113.412 302.12 113.72C302.12 109.92 307.72 108.08 310.12 109.43L342.12 128.11C342.956 128.583 343.647 129.274 344.12 130.11L338.8 133.08Z" fill="white"/>
<path opacity="0.2" d="M339.39 170.1V135.44C339.405 135.234 339.405 135.026 339.39 134.82C339.304 134.214 339.118 133.626 338.84 133.08L344.08 130.08C344.521 130.869 344.755 131.756 344.76 132.66V167.32C344.742 168.244 344.478 169.147 343.995 169.935C343.513 170.723 342.829 171.368 342.014 171.804C341.199 172.24 340.283 172.451 339.359 172.415C338.436 172.379 337.538 172.098 336.76 171.6C337.025 171.754 337.326 171.836 337.632 171.837C337.939 171.839 338.24 171.759 338.507 171.608C338.773 171.456 338.995 171.236 339.15 170.972C339.305 170.707 339.388 170.407 339.39 170.1Z" fill="white"/>
<path d="M327.83 146.15C328.647 144.924 329.056 143.472 329 142C328.989 141.511 328.949 141.024 328.88 140.54C328.784 139.864 328.64 139.196 328.45 138.54C328.092 137.284 327.606 136.067 327 134.91C326.81 134.54 326.61 134.18 326.39 133.82C325.968 133.119 325.504 132.444 325 131.8C324.7 131.42 324.38 131.05 324.06 130.7C323.116 129.671 322.024 128.788 320.82 128.08C314.56 124.46 310.62 129.98 313.74 138.02L316.32 144.69L320.74 156.12L327.83 146.15ZM324.83 139.81C324.83 142.34 323.04 143.36 320.83 142.09C320.256 141.746 319.734 141.322 319.28 140.83L319.17 140.7C318.615 140.074 318.144 139.378 317.77 138.63C317.407 137.929 317.141 137.182 316.98 136.41C316.898 136.015 316.855 135.613 316.85 135.21C316.85 132.68 318.66 131.67 320.85 132.94C321.424 133.284 321.946 133.708 322.4 134.2C322.723 134.549 323.017 134.924 323.28 135.32C323.481 135.61 323.662 135.914 323.82 136.23C324.203 136.933 324.482 137.687 324.65 138.47C324.754 138.909 324.811 139.359 324.82 139.81H324.83Z" fill="white"/>
<path d="M211.13 36.1697C210.21 32.9097 203.59 26.7197 197.01 26.8497C196.378 26.8703 195.753 26.9918 195.16 27.2097L67.3199 99.9397C65.4532 101.021 63.9006 102.57 62.8152 104.434C61.7297 106.298 61.1488 108.413 61.1299 110.57V387.13C61.1299 394.13 69.2599 400.9 76.8799 397.66H76.9399C77.1082 397.606 77.272 397.539 77.4299 397.46L205.29 324.6C207.164 323.528 208.721 321.981 209.805 320.114C210.888 318.248 211.459 316.128 211.46 313.97V37.4997C211.456 37.0365 211.343 36.5808 211.13 36.1697Z" fill="#315B99"/>
<path d="M79 139.8C78.9992 138.721 79.2848 137.661 79.8277 136.728C80.3706 135.795 81.1512 135.023 82.09 134.49L200.78 67.0001C201.245 66.7365 201.77 66.5991 202.304 66.6016C202.839 66.6041 203.363 66.7464 203.825 67.0144C204.287 67.2824 204.671 67.6667 204.939 68.1291C205.206 68.5915 205.348 69.1159 205.35 69.6501V292.65C205.346 293.73 205.059 294.79 204.517 295.723C203.974 296.657 203.196 297.432 202.26 297.97L83.54 365.57C83.0767 365.83 82.5536 365.963 82.0226 365.959C81.4916 365.954 80.9711 365.811 80.5125 365.543C80.0538 365.275 79.6731 364.892 79.4078 364.432C79.1425 363.972 79.002 363.451 79 362.92V139.8Z" fill="#37474F"/>
<path opacity="0.3" d="M61.1299 110.57V387.13C61.1299 394.13 69.2599 400.9 76.8799 397.66H76.9399C76.48 397.839 75.983 397.903 75.4928 397.844C75.0027 397.785 74.5345 397.607 74.13 397.324C73.7254 397.041 73.397 396.663 73.1736 396.222C72.9503 395.782 72.8391 395.293 72.8499 394.8V118.21C72.8589 115.805 73.5791 113.457 74.9199 111.46L62.3999 105.21C61.5741 106.877 61.1398 108.71 61.1299 110.57Z" fill="black"/>
<path opacity="0.1" d="M197 26.8399C196.368 26.8605 195.743 26.9821 195.15 27.1999L67.3199 99.9399C65.1841 101.158 63.4684 102.996 62.3999 105.21L74.9199 111.46C75.9579 109.865 77.3553 108.537 78.9999 107.58L206.89 34.8399C207.251 34.6283 207.652 34.4946 208.068 34.4474C208.484 34.4002 208.905 34.4405 209.304 34.5658C209.704 34.6911 210.072 34.8985 210.387 35.1748C210.701 35.451 210.954 35.79 211.13 36.1699C210.22 32.8999 203.6 26.7099 197 26.8399Z" fill="white"/>
<path d="M157.92 80.51C158.81 79.99 159.56 80.4 159.56 81.43C159.526 81.9957 159.361 82.5458 159.078 83.0369C158.795 83.528 158.402 83.9467 157.93 84.26L132.84 98.74C131.94 99.26 131.22 98.82 131.22 97.79C131.246 97.2289 131.406 96.6821 131.686 96.1951C131.966 95.7081 132.358 95.295 132.83 94.99L157.92 80.51Z" fill="#263238"/>
<path d="M126.39 98.7101C127.29 98.2001 128.01 98.6101 128.02 99.6401C127.99 100.204 127.828 100.754 127.546 101.243C127.265 101.733 126.872 102.15 126.4 102.46C125.5 102.98 124.76 102.55 124.76 101.52C124.79 100.956 124.953 100.407 125.237 99.919C125.52 99.4305 125.915 99.0162 126.39 98.7101Z" fill="#263238"/>
<path d="M142.45 78.4099C144.24 77.4099 145.69 78.1899 145.69 80.2599C145.633 81.3854 145.312 82.4817 144.753 83.4598C144.193 84.438 143.411 85.2706 142.47 85.8899C140.67 86.8899 139.19 86.0799 139.18 84.0199C139.241 82.8926 139.569 81.7959 140.138 80.8205C140.706 79.845 141.499 79.0188 142.45 78.4099Z" fill="#263238"/>
<path d="M142.45 338.76C146.11 336.65 149.06 338.33 149.07 342.53C148.952 344.823 148.295 347.057 147.154 349.049C146.013 351.042 144.418 352.738 142.5 354C138.84 356.1 135.82 354.38 135.8 350.18C135.934 347.888 136.606 345.66 137.761 343.676C138.916 341.692 140.523 340.008 142.45 338.76Z" fill="#263238"/>
<path d="M230.36 47.23C229.51 44.23 223.51 38.65 217.53 38.77C216.959 38.7887 216.395 38.9002 215.86 39.1L99.7999 105.1C98.1061 106.081 96.6976 107.488 95.7137 109.18C94.7298 110.873 94.2046 112.792 94.1899 114.75V365.75C94.1899 372.15 101.57 378.25 108.49 375.31C108.641 375.261 108.788 375.201 108.93 375.13L225.05 309C226.751 308.027 228.164 306.623 229.148 304.928C230.131 303.234 230.649 301.309 230.65 299.35V48.44C230.645 48.02 230.546 47.6064 230.36 47.23Z" fill="#455A64"/>
<path opacity="0.1" d="M94.1997 114.76V365.76C94.1997 372.16 101.58 378.26 108.5 375.32C108.083 375.473 107.635 375.523 107.195 375.466C106.754 375.409 106.334 375.246 105.97 374.992C105.606 374.738 105.308 374.4 105.103 374.006C104.897 373.612 104.79 373.175 104.79 372.73V121.73C104.799 119.546 105.453 117.414 106.67 115.6L95.2997 109.92C94.5728 111.43 94.1967 113.085 94.1997 114.76Z" fill="white"/>
<path opacity="0.2" d="M217.54 38.7602C216.969 38.779 216.405 38.8904 215.87 39.0902L99.8101 105.09C97.88 106.203 96.3268 107.868 95.3501 109.87L106.72 115.55C107.673 114.103 108.95 112.897 110.45 112.03L226.5 46.0002C226.83 45.8131 227.194 45.6956 227.571 45.655C227.947 45.6143 228.328 45.6514 228.69 45.7639C229.052 45.8764 229.387 46.0618 229.674 46.3089C229.961 46.5559 230.195 46.8593 230.36 47.2002C229.52 44.2602 223.52 38.6402 217.54 38.7602Z" fill="white"/>
<path d="M230.36 47.2303C230.198 46.8869 229.966 46.5805 229.68 46.3304C229.394 46.0803 229.06 45.8916 228.697 45.7763C228.335 45.6609 227.954 45.6213 227.576 45.6598C227.197 45.6983 226.831 45.8142 226.5 46.0003L110.5 112C108.81 112.985 107.404 114.393 106.42 116.084C105.437 117.776 104.91 119.694 104.89 121.65V372.65C104.89 373.094 104.998 373.532 105.203 373.926C105.409 374.319 105.706 374.658 106.07 374.912C106.434 375.166 106.855 375.329 107.295 375.386C107.735 375.443 108.183 375.393 108.6 375.24C108.751 375.192 108.898 375.131 109.04 375.06L225.05 309C226.751 308.028 228.165 306.623 229.148 304.928C230.131 303.234 230.65 301.31 230.65 299.35V48.4403C230.645 48.0203 230.546 47.6068 230.36 47.2303Z" fill="#455A64"/>
<path d="M110.58 137.31C110.58 136.241 110.9 135.196 111.5 134.31C111.951 133.607 112.565 133.024 113.29 132.61L224.91 69.1401V295.46C224.91 296.406 224.661 297.335 224.187 298.153C223.712 298.971 223.031 299.65 222.21 300.12L110.58 363.73V137.31Z" fill="#455A64"/>
<path opacity="0.3" d="M110.58 137.31C110.58 136.241 110.9 135.196 111.5 134.31C111.951 133.607 112.565 133.024 113.29 132.61L224.91 69.1401V295.46C224.91 296.406 224.661 297.335 224.187 298.153C223.712 298.971 223.031 299.65 222.21 300.12L110.58 363.73V137.31Z" fill="black"/>
<path d="M218.15 60.5204L218.16 63.3604L221.76 61.2804L221.75 58.4404L218.15 60.5204Z" fill="#315B99"/>
<path d="M225.06 55.5801L217.32 60.0501V64.7901L225.06 60.3201V58.7001L225.61 58.3801V56.8801L225.41 57.0001L225.06 57.2001V55.5801ZM221.76 61.2801L218.16 63.3601V60.5201L221.76 58.4401V61.2801Z" fill="white"/>
<path d="M158.79 93.8404L158.8 98.5904L177.79 87.6204L177.77 82.8804L158.79 93.8404Z" fill="white"/>
<path d="M206.8 66.1201L206.82 70.8601L213.83 66.8101L213.82 62.0601L206.8 66.1201Z" fill="white"/>
<path d="M113.34 120.76L113.35 124.82L114.31 124.27L114.3 120.21L113.34 120.76Z" fill="white"/>
<path d="M128.4 116.14L132.53 113.75L132.52 109L130.13 110.38L128.38 111.39L128.4 116.14Z" fill="white"/>
<path d="M118.53 121.83L126.27 117.37L126.26 112.62L118.52 117.09L118.53 121.83Z" fill="white"/>
<path d="M114.94 123.91L115.51 123.58L115.9 123.35L115.89 118.61L114.93 119.16L114.94 123.91Z" fill="white"/>
<path d="M111.76 125.74L112.46 125.34L112.72 125.19L112.71 121.99L112.45 122.14L111.75 122.54L111.76 125.74Z" fill="white"/>
<path d="M110.18 126.66L111.13 126.11L111.12 123.77L110.17 124.31L110.18 126.66Z" fill="white"/>
<path d="M215.25 212.78L224.91 207.27V202.71L215.14 208.29L214.61 187.11L224.91 180.9V176.34L214.5 182.62L214.13 167.81L224.91 160.73V156.15L214 163.31L213.64 148L208.92 131L224.92 116.48V108.56L207.69 124.21L205 99.7L224.9 84.35V79.71L204.53 95.43L203 81.6L199 83.87L200.69 99.31L182.1 127.54L167 102.09L159.57 106.32L163.32 112.63L155.5 121.9L152.6 116.29L136.6 131.29L138.1 147.29L110.63 163.15V167.71L142.49 149.32L140.87 132.09L150.51 123.09L153.71 129.28L165.17 115.67L167.7 119.94L130.7 177.36L110.59 195.36V200.1L130.73 182.1L143.21 198.89L132.64 216.89L110.64 239.89V248L122.5 235.64L126.5 250.46L126.56 269.84L110.62 277.53V282.11L126.37 274.51L124.26 300.51L117.88 309.4L116.98 332.54L110.62 336.68V344.3L167.18 307.5L166.26 332L170.26 329.74L171.49 295.48L192.4 283L194.27 316L200.9 312.22L200.09 297.87L224.91 281.69V277.11L199.84 293.45L198.31 266.62L217.16 255.74L215.79 231.34L224.91 226.94V222.35L215.6 226.85L215.25 212.78ZM201.25 104.36L203.8 127.61L189.73 140.4L184 130.65L201.25 104.36ZM162.59 233.93L156.77 237.29L151.41 240.38L148.06 218.1L162.26 206.47L166.1 231.9L162.59 233.93ZM166.74 236.09L168.74 249.49L163.84 251.85L162.84 238.31L166.74 236.09ZM147.43 214L146.03 204.72L167 169L167.88 168.21L169.48 177.21L163.14 183.84L164.66 187.19L179.75 171.37L178.23 168L173.23 173.26L171.71 164.67L185 152.63L186.66 181.81L147.43 214ZM186.9 186.32L189.9 239.32L183.76 242.32L178.42 193.27L186.9 186.32ZM160.25 137.46L164.72 143.74L150.56 165.66L146.09 159.47L160.25 137.46ZM134.25 177.92L143 164.18L149.52 173.18L169.8 141.76L163.29 132.64L169.48 123.04L183.25 146.26L164.34 163.44L163.54 164.16L146.09 193.87L134.25 177.92ZM126.18 231.86L136.37 221.23L142.6 210.63L148 246.9L156.75 241.85L158.9 240.6L159.84 253.78L130.47 268V249.87L138.15 243.99L137.49 239.86L129.93 245.66L126.18 231.86ZM134.78 321.08L120.96 330.08L121.75 309.74L128.03 301L130.33 272.7L137.03 269.47L134.78 321.08ZM167.46 299.82L138.77 318.49L141 267.5L169.11 253.93L167.46 299.82ZM166.18 203.33L174.59 196.45L179.79 244.24L172.87 247.58L166.18 203.33ZM171.67 290.87L173 252L190.15 243.72L192.15 278.6L171.67 290.87ZM191.53 146.77L205.16 134.4L209.73 150.94L210.1 165.94L193.22 177L191.53 146.77ZM193.53 181.45L210.23 170.45L210.6 185.04L194.29 194.87L193.53 181.45ZM194.53 199.3L210.7 189.55L211.22 210.6L195.67 219.48L194.53 199.3ZM195.92 223.9L211.33 215.1L211.68 228.86L196.62 236.13L195.92 223.9ZM198.11 262.3L196.88 240.58L211.88 233.35L213.02 253.71L198.11 262.3Z" fill="#455A64"/>
<g opacity="0.3">
<path d="M215.25 212.78L224.91 207.27V202.71L215.14 208.29L214.61 187.11L224.91 180.9V176.34L214.5 182.62L214.13 167.81L224.91 160.73V156.15L214 163.31L213.64 148L208.92 131L224.92 116.48V108.56L207.69 124.21L205 99.7L224.9 84.35V79.71L204.53 95.43L203 81.6L199 83.87L200.69 99.31L182.1 127.54L167 102.09L159.57 106.32L163.32 112.63L155.5 121.9L152.6 116.29L136.6 131.29L138.1 147.29L110.63 163.15V167.71L142.49 149.32L140.87 132.09L150.51 123.09L153.71 129.28L165.17 115.67L167.7 119.94L130.7 177.36L110.59 195.36V200.1L130.73 182.1L143.21 198.89L132.64 216.89L110.64 239.89V248L122.5 235.64L126.5 250.46L126.56 269.84L110.62 277.53V282.11L126.37 274.51L124.26 300.51L117.88 309.4L116.98 332.54L110.62 336.68V344.3L167.18 307.5L166.26 332L170.26 329.74L171.49 295.48L192.4 283L194.27 316L200.9 312.22L200.09 297.87L224.91 281.69V277.11L199.84 293.45L198.31 266.62L217.16 255.74L215.79 231.34L224.91 226.94V222.35L215.6 226.85L215.25 212.78ZM201.25 104.36L203.8 127.61L189.73 140.4L184 130.65L201.25 104.36ZM162.59 233.93L156.77 237.29L151.41 240.38L148.06 218.1L162.26 206.47L166.1 231.9L162.59 233.93ZM166.74 236.09L168.74 249.49L163.84 251.85L162.84 238.31L166.74 236.09ZM147.43 214L146.03 204.72L167 169L167.88 168.21L169.48 177.21L163.14 183.84L164.66 187.19L179.75 171.37L178.23 168L173.23 173.26L171.71 164.67L185 152.63L186.66 181.81L147.43 214ZM186.9 186.32L189.9 239.32L183.76 242.32L178.42 193.27L186.9 186.32ZM160.25 137.46L164.72 143.74L150.56 165.66L146.09 159.47L160.25 137.46ZM134.25 177.92L143 164.18L149.52 173.18L169.8 141.76L163.29 132.64L169.48 123.04L183.25 146.26L164.34 163.44L163.54 164.16L146.09 193.87L134.25 177.92ZM126.18 231.86L136.37 221.23L142.6 210.63L148 246.9L156.75 241.85L158.9 240.6L159.84 253.78L130.47 268V249.87L138.15 243.99L137.49 239.86L129.93 245.66L126.18 231.86ZM134.78 321.08L120.96 330.08L121.75 309.74L128.03 301L130.33 272.7L137.03 269.47L134.78 321.08ZM167.46 299.82L138.77 318.49L141 267.5L169.11 253.93L167.46 299.82ZM166.18 203.33L174.59 196.45L179.79 244.24L172.87 247.58L166.18 203.33ZM171.67 290.87L173 252L190.15 243.72L192.15 278.6L171.67 290.87ZM191.53 146.77L205.16 134.4L209.73 150.94L210.1 165.94L193.22 177L191.53 146.77ZM193.53 181.45L210.23 170.45L210.6 185.04L194.29 194.87L193.53 181.45ZM194.53 199.3L210.7 189.55L211.22 210.6L195.67 219.48L194.53 199.3ZM195.92 223.9L211.33 215.1L211.68 228.86L196.62 236.13L195.92 223.9ZM198.11 262.3L196.88 240.58L211.88 233.35L213.02 253.71L198.11 262.3Z" fill="white"/>
</g>
<path d="M296.07 270.49C285.83 277.6 274.29 282.49 265.73 292.06C249.73 309.88 249.38 338.55 261.93 358.93C274.48 379.31 297.83 391.55 321.6 394.35C346.54 397.29 372.71 390.35 392.27 374.66C411.83 358.97 424.27 334.33 424.27 309.21C424.27 284.09 411.39 259.1 390.36 245.38C371.17 232.86 343.6 229.29 324.36 243.61C314.63 250.85 308.14 261.54 298.43 268.8C297.65 269.38 296.86 269.94 296.07 270.49Z" fill="#315B99"/>
<path opacity="0.3" d="M296.07 270.49C285.83 277.6 274.29 282.49 265.73 292.06C249.73 309.88 249.38 338.55 261.93 358.93C274.48 379.31 297.83 391.55 321.6 394.35C346.54 397.29 372.71 390.35 392.27 374.66C411.83 358.97 424.27 334.33 424.27 309.21C424.27 284.09 411.39 259.1 390.36 245.38C371.17 232.86 343.6 229.29 324.36 243.61C314.63 250.85 308.14 261.54 298.43 268.8C297.65 269.38 296.86 269.94 296.07 270.49Z" fill="black"/>
<path opacity="0.1" d="M300.25 374.88C300.25 374.71 300.25 374.54 300.32 374.37C301.172 368.817 303.734 363.667 307.651 359.64C311.568 355.612 316.643 352.906 322.17 351.9C332.064 350.01 341.544 346.38 350.17 341.18C356.28 337.48 362.06 332.95 368.93 330.94C375.605 329.025 382.733 329.441 389.14 332.12C383.38 326.06 373.49 323.4 365.59 326.12C371.06 317.75 375.87 308.73 377.75 298.91C379.63 289.09 378.3 278.32 372.38 270.26C369.855 266.826 366.599 263.995 362.848 261.97C359.097 259.945 354.944 258.777 350.688 258.549C346.431 258.321 342.177 259.04 338.232 260.654C334.286 262.267 330.748 264.735 327.87 267.88C322.01 274.3 318.7 283.32 314.87 291.12C312.1 296.71 309.24 302.44 304.68 306.7C297.8 313.14 287.91 315.46 280.77 321.62C272.69 328.62 269.2 339.76 269.16 350.44C269.293 357.647 270.345 364.808 272.29 371.75C280.654 379.73 290.626 385.829 301.54 389.64C299.949 384.891 299.507 379.832 300.25 374.88Z" fill="black"/>
<path d="M410.89 305.77C410.572 288.429 404.116 271.764 392.668 258.735C381.221 245.706 365.525 237.158 348.37 234.61C345.989 234.845 343.627 235.242 341.3 235.8C359.336 236.759 376.34 244.512 388.892 257.498C401.444 270.485 408.614 287.742 408.96 305.8C409.41 329.17 397.96 352.99 378.37 369.52C363.01 382.52 342.6 391.06 320.16 394.16L321.6 394.34C323.6 394.58 325.6 394.75 327.67 394.86C347.6 390.99 365.67 382.77 379.62 371C399.67 354.1 411.36 329.72 410.89 305.77Z" fill="white"/>
<path d="M272.79 370.51C273.495 374.208 273.896 377.957 273.99 381.72L276.65 380.72C277.906 380.254 279.27 380.165 280.576 380.464C281.881 380.762 283.071 381.435 284 382.4L284.13 382.54C284.606 383.036 285.254 383.331 285.941 383.362C286.628 383.394 287.301 383.16 287.82 382.71C288.099 382.467 288.324 382.17 288.483 381.836C288.641 381.502 288.729 381.139 288.74 380.77L289.1 369.46L272.79 370.51Z" fill="#916160"/>
<path d="M283.05 412.58C277.53 418.48 267.37 423.64 259.99 418.58L260.82 420.45C268.2 425.45 278.36 420.33 283.88 414.45C289.4 408.57 285.82 404.45 290.78 399.22C292.653 397.425 294.119 395.249 295.08 392.84C294.86 392.28 294.65 391.54 294.39 390.7C293.314 393.156 291.815 395.403 289.96 397.34C285 402.59 288.57 406.68 283.05 412.58Z" fill="white"/>
<path d="M291.67 384.54C290.821 383.341 290.229 381.979 289.93 380.54C289.881 380.203 289.758 379.881 289.57 379.597C289.381 379.314 289.132 379.076 288.84 378.9L288.78 380.79C288.763 381.317 288.591 381.827 288.285 382.256C287.98 382.685 287.554 383.015 287.062 383.204C286.57 383.393 286.034 383.432 285.519 383.318C285.005 383.203 284.536 382.94 284.17 382.56L284.04 382.42C283.108 381.447 281.911 380.769 280.597 380.471C279.284 380.172 277.911 380.266 276.65 380.74L273.95 381.74C273.544 381.89 273.196 382.164 272.954 382.523C272.712 382.882 272.588 383.307 272.6 383.74C272.77 391.48 269.16 401.74 265.37 407.4C261.47 409.02 258.1 414.33 259.82 418.23L259.99 418.62C267.37 423.62 277.53 418.49 283.05 412.62C288.57 406.75 284.99 402.62 289.96 397.39C291.815 395.453 293.314 393.206 294.39 390.75C293.776 388.564 292.861 386.474 291.67 384.54Z" fill="#315B99"/>
<path d="M280.87 395.72C281.089 395.809 281.334 395.813 281.556 395.731C281.778 395.649 281.962 395.487 282.071 395.276C282.18 395.066 282.206 394.823 282.145 394.594C282.084 394.365 281.939 394.168 281.74 394.04C280.123 393.127 278.297 392.647 276.44 392.647C274.583 392.647 272.757 393.127 271.14 394.04C270.97 394.65 270.8 395.26 270.61 395.86C272.161 394.949 273.923 394.456 275.721 394.432C277.52 394.407 279.294 394.851 280.87 395.72Z" fill="white"/>
<path d="M282.23 391.53C282.452 391.645 282.71 391.668 282.948 391.593C283.186 391.518 283.385 391.351 283.5 391.13C283.616 390.908 283.638 390.65 283.563 390.412C283.488 390.174 283.322 389.975 283.1 389.86C281.41 388.938 279.513 388.463 277.589 388.479C275.664 388.495 273.775 389.001 272.1 389.95C271.99 390.58 271.86 391.21 271.72 391.84C274.91 390.15 278.15 389.47 282.23 391.53Z" fill="white"/>
<path d="M279.38 399.88C279.602 399.995 279.86 400.018 280.098 399.943C280.336 399.868 280.535 399.701 280.65 399.48C280.765 399.258 280.788 399 280.713 398.762C280.638 398.524 280.472 398.325 280.25 398.21C278.67 397.317 276.889 396.838 275.074 396.819C273.259 396.8 271.469 397.24 269.87 398.1C269.64 398.76 269.39 399.4 269.14 400.03C270.688 399.122 272.446 398.63 274.24 398.604C276.035 398.578 277.806 399.017 279.38 399.88Z" fill="white"/>
<path d="M265.37 407.39C261.47 409.01 258.1 414.32 259.82 418.22L259.99 418.61C267.27 423.61 277.23 418.61 282.8 412.84C278.15 403.73 268.44 406 265.37 407.39Z" fill="white"/>
<path d="M277.75 404C277.973 404.107 278.23 404.122 278.464 404.042C278.698 403.961 278.89 403.792 279 403.57C279.113 403.352 279.136 403.099 279.062 402.865C278.989 402.631 278.827 402.435 278.61 402.32C277.027 401.427 275.244 400.951 273.427 400.935C271.61 400.919 269.818 401.365 268.22 402.23C267.89 402.95 267.55 403.64 267.22 404.31C270.42 402.56 273.67 401.88 277.75 404Z" fill="white"/>
<path d="M261.19 393C260.341 396.667 259.194 400.259 257.76 403.74L260.6 403.89C261.945 403.964 263.239 404.432 264.32 405.236C265.401 406.04 266.222 407.144 266.68 408.41L266.75 408.59C266.982 409.239 267.456 409.773 268.073 410.081C268.69 410.388 269.402 410.445 270.06 410.24C270.412 410.131 270.737 409.95 271.016 409.709C271.295 409.468 271.521 409.172 271.68 408.84L276.57 398.63L261.19 393Z" fill="#916160"/>
<path d="M253.6 435.65C246.17 438.82 234.79 439.44 230.07 431.85V433.91C234.79 441.49 246.17 440.91 253.6 437.7C261.03 434.49 259.41 429.34 266.06 426.55C268.5 425.668 270.721 424.27 272.57 422.45C272.57 421.85 272.7 421.09 272.8 420.21C270.824 422.026 268.542 423.478 266.06 424.5C259.41 427.29 261 432.47 253.6 435.65Z" fill="white"/>
<path d="M272.8 413.47C272.495 412.026 272.495 410.534 272.8 409.09C272.888 408.761 272.903 408.417 272.844 408.082C272.785 407.747 272.654 407.429 272.46 407.15L271.64 408.86C271.414 409.338 271.051 409.738 270.597 410.009C270.144 410.281 269.619 410.411 269.091 410.384C268.563 410.358 268.055 410.175 267.631 409.859C267.207 409.543 266.887 409.108 266.71 408.61L266.64 408.43C266.181 407.163 265.36 406.06 264.279 405.256C263.198 404.452 261.905 403.984 260.56 403.91L257.68 403.75C257.256 403.735 256.838 403.85 256.481 404.078C256.123 404.307 255.844 404.639 255.68 405.03C252.68 412.18 245.25 420.13 239.5 423.77C235.29 423.67 230.06 427.17 230.06 431.43V431.85C234.78 439.44 246.16 438.85 253.59 435.65C261.02 432.45 259.4 427.29 266.05 424.5C268.532 423.478 270.814 422.026 272.79 420.21C273.107 417.975 273.11 415.706 272.8 413.47Z" fill="#315B99"/>
<path d="M258.41 419.34C258.577 419.518 258.804 419.628 259.047 419.65C259.29 419.672 259.533 419.605 259.73 419.46C259.921 419.307 260.044 419.084 260.072 418.841C260.1 418.597 260.031 418.353 259.88 418.16C258.768 416.672 257.291 415.497 255.592 414.749C253.892 414.001 252.028 413.705 250.18 413.89C249.78 414.38 249.38 414.89 248.96 415.35C250.746 415.137 252.556 415.394 254.213 416.093C255.87 416.793 257.317 417.912 258.41 419.34Z" fill="white"/>
<path d="M261.34 416.06C261.508 416.237 261.734 416.348 261.978 416.37C262.221 416.392 262.464 416.324 262.66 416.18C262.852 416.026 262.975 415.804 263.003 415.561C263.031 415.317 262.962 415.072 262.81 414.88C261.636 413.348 260.09 412.142 258.319 411.375C256.548 410.609 254.611 410.307 252.69 410.5C252.33 411.04 251.96 411.56 251.57 412.09C255.2 411.83 258.44 412.52 261.34 416.06Z" fill="white"/>
<path d="M255.37 422.54C255.527 422.735 255.754 422.859 256.003 422.887C256.251 422.914 256.5 422.841 256.695 422.685C256.89 422.528 257.015 422.301 257.042 422.052C257.069 421.804 256.997 421.555 256.84 421.36C255.751 419.911 254.314 418.759 252.663 418.011C251.011 417.263 249.198 416.943 247.39 417.08C246.91 417.59 246.39 418.08 245.93 418.55C247.714 418.342 249.522 418.601 251.176 419.3C252.831 419.999 254.276 421.115 255.37 422.54Z" fill="white"/>
<path d="M239.51 423.77C235.3 423.67 230.07 427.17 230.07 431.43V431.85C234.72 439.33 245.83 438.85 253.26 435.78C252.69 425.57 242.89 423.73 239.51 423.77Z" fill="white"/>
<path d="M252.23 425.61C252.397 425.788 252.624 425.898 252.867 425.92C253.11 425.942 253.353 425.875 253.55 425.73C253.741 425.577 253.864 425.354 253.892 425.111C253.92 424.867 253.851 424.623 253.7 424.43C252.614 422.972 251.175 421.814 249.518 421.066C247.862 420.317 246.042 420.002 244.23 420.15C243.64 420.67 243.05 421.15 242.46 421.64C246.09 421.38 249.33 422.07 252.23 425.61Z" fill="white"/>
<path d="M304.84 296.36L267.65 317.08C264.278 318.958 261.581 321.848 259.94 325.341C258.298 328.835 257.794 332.755 258.5 336.55L265.72 375.43L259.8 394.24C264.9 401.09 276.63 401.43 276.63 401.43C283.17 388.31 287.97 382.74 291.69 371.75C295.41 360.76 297.88 353.17 297.88 353.17L328.77 344.73C335.833 342.809 342.159 338.816 346.931 333.265C351.702 327.715 354.701 320.861 355.54 313.59C356.06 308.91 356.09 305.72 356.09 305.72L304.84 296.36Z" fill="#37474F"/>
<path opacity="0.2" d="M305.13 306.81C305.134 310.96 306.607 314.974 309.29 318.14L283 334.57C279.16 336.988 276.32 340.708 275 345.05L265.71 375.43L274.09 341.59C275.049 337.7 277.499 334.342 280.91 332.24L305.14 317.24C302.68 311.06 305.13 306.81 305.13 306.81Z" fill="black"/>
<path d="M296.65 277.58C294 282.58 275.13 280.34 275.92 272.16C280.88 261.81 296.5 268.49 296.65 277.58Z" fill="#315B99"/>
<path d="M308.87 232.45H307.87C301.45 232.52 293.32 236.89 289.34 248.11L274 278L291.62 285.82L301.26 257.6L308.87 232.45Z" fill="#916160"/>
<path d="M296.5 252.29C295.27 255.82 295.19 259.63 295 263.36C294.81 267.09 294.37 271.61 292.66 274.93C290.777 273.627 288.522 272.968 286.234 273.051C283.945 273.133 281.744 273.954 279.96 275.39C278.686 276.461 277.702 277.837 277.1 279.39L291.57 285.81L301.21 257.59L306 242.05C303.814 243.038 301.848 244.452 300.216 246.211C298.585 247.969 297.321 250.036 296.5 252.29Z" fill="#7A4C4A"/>
<path d="M291.73 280.43C291.059 278.762 289.971 277.294 288.57 276.166C287.17 275.039 285.503 274.289 283.73 273.99C280.2 273.42 276.2 275.26 273.92 277.99C272 280.32 272.3 283.46 273.51 286.22C274.526 288.364 276.252 290.09 278.395 291.105C280.539 292.12 282.968 292.362 285.27 291.79C289.85 290.54 293.45 284.84 291.73 280.43Z" fill="#916160"/>
<path d="M308.87 232.45C301.19 231.6 291.41 233.45 275.92 272.16C285.05 263.1 296.65 277.58 296.65 277.58C303.28 262 315 235.93 315 235.93L308.87 232.45Z" fill="#315B99"/>
<path opacity="0.2" d="M308.87 232.45C301.19 231.6 291.41 233.45 275.92 272.16C285.05 263.1 296.65 277.58 296.65 277.58C303.28 262 315 235.93 315 235.93L308.87 232.45Z" fill="white"/>
<path d="M359.9 322.92C345 335.3 314.56 305.34 298.23 300C303.23 288.59 303.23 278.18 302.23 266.67C301.23 255.16 294.47 235.02 307.32 232.67C324.48 229.32 333.15 232.4 347.16 236.04C367.26 265 360.93 301.31 359.9 322.92Z" fill="#315B99"/>
<path opacity="0.7" d="M359.9 322.92C345 335.3 314.56 305.34 298.23 300C303.23 288.59 303.23 278.18 302.23 266.67C301.23 255.16 294.47 235.02 307.32 232.67C324.48 229.32 333.15 232.4 347.16 236.04C367.26 265 360.93 301.31 359.9 322.92Z" fill="white"/>
<path d="M314.79 226.85L315.46 234.29C315.492 234.867 315.346 235.44 315.04 235.93C314.626 236.706 314.465 237.593 314.582 238.465C314.699 239.337 315.086 240.15 315.69 240.79C316.649 241.515 317.817 241.911 319.02 241.92C321.288 242.04 323.556 241.68 325.676 240.863C327.795 240.046 329.719 238.791 331.32 237.18C331.649 236.844 331.908 236.445 332.08 236.007C332.251 235.569 332.333 235.1 332.32 234.63L331.83 215.75L314.79 226.85Z" fill="#916160"/>
<path d="M331.8 215.75L314.8 226.85L315.39 233.45C319 232.6 322.63 231.56 325.48 229.24C329.1 226.29 332.29 223.36 331.8 215.75Z" fill="#7A4C4A"/>
<path d="M337 204.32C338.701 202.322 339.548 199.736 339.36 197.12C339.057 194.409 337.748 191.911 335.69 190.12C336.388 188.832 336.698 187.37 336.585 185.91C336.471 184.45 335.938 183.054 335.05 181.89C334.097 180.793 332.846 179.996 331.449 179.597C330.052 179.197 328.569 179.212 327.18 179.64C326.391 178.543 325.37 177.632 324.189 176.974C323.009 176.315 321.698 175.925 320.35 175.83C317.65 175.65 314.96 176.13 313.13 178.11C312.06 177.466 310.856 177.075 309.612 176.968C308.367 176.86 307.115 177.039 305.95 177.49C304.753 178.018 303.686 178.801 302.822 179.783C301.959 180.766 301.32 181.925 300.95 183.18C299.619 182.927 298.245 183.016 296.958 183.439C295.67 183.863 294.511 184.606 293.59 185.6C291.78 187.6 291.19 191.42 291.99 194C291.436 194.823 291.062 195.754 290.892 196.731C290.721 197.708 290.758 198.711 291.001 199.673C291.243 200.635 291.685 201.535 292.299 202.315C292.912 203.095 293.682 203.737 294.56 204.2C294.309 206.209 294.75 208.243 295.809 209.968C296.869 211.693 298.485 213.006 300.39 213.69C301.019 215.227 302.01 216.59 303.279 217.66C304.549 218.731 306.059 219.479 307.68 219.84C311.028 220.42 314.467 220.145 317.68 219.04C325.52 216.64 331.61 210.56 337 204.32Z" fill="#263238"/>
<path d="M320.54 195C320.797 196.254 321.252 197.46 321.89 198.57C322.264 199.23 322.784 199.797 323.409 200.226C324.034 200.656 324.75 200.938 325.5 201.05C325.671 201.076 325.828 201.157 325.948 201.282C326.067 201.407 326.142 201.568 326.16 201.74L327 208C326.996 208.381 327.076 208.758 327.235 209.104C327.394 209.449 327.628 209.756 327.92 210C328.236 210.148 328.59 210.196 328.935 210.139C329.279 210.082 329.598 209.922 329.85 209.68C330.344 209.205 330.736 208.633 331 208C331.557 206.645 332.308 205.379 333.23 204.24C333.693 203.672 334.273 203.21 334.931 202.886C335.588 202.562 336.307 202.382 337.04 202.36C339.43 202.42 341.25 204.8 341.5 207.18C341.617 208.408 341.426 209.645 340.944 210.78C340.462 211.915 339.705 212.912 338.74 213.68C337.745 214.391 336.586 214.84 335.371 214.985C334.157 215.13 332.925 214.967 331.79 214.51C332.87 218.65 330.71 223.09 327.48 225.9C324.25 228.71 320.14 230.23 316.12 231.69C313.92 232.49 311.59 233.29 309.3 232.87C307.428 232.447 305.749 231.413 304.53 229.93C303.335 228.449 302.349 226.81 301.6 225.06C297.941 217.16 295.869 208.618 295.5 199.92C298.73 199.51 318.71 195.72 320.54 195Z" fill="#916160"/>
<path d="M309.42 210.76L306.04 219.66L311.94 219.73L309.42 210.76Z" fill="#F28F8F"/>
<path d="M309.42 210.76L306.04 219.66L311.94 219.73L309.42 210.76Z" fill="#7A4C4A"/>
<path d="M317.92 221.54L313.92 224.41C314.379 224.835 314.963 225.1 315.585 225.165C316.207 225.23 316.833 225.091 317.37 224.77C317.818 224.376 318.118 223.841 318.218 223.253C318.318 222.664 318.213 222.06 317.92 221.54Z" fill="#F28F8F"/>
<path opacity="0.4" d="M317.92 221.54L313.92 224.41C314.379 224.835 314.963 225.1 315.585 225.165C316.207 225.23 316.833 225.091 317.37 224.77C317.818 224.376 318.118 223.841 318.218 223.253C318.318 222.664 318.213 222.06 317.92 221.54Z" fill="black"/>
<path d="M315.93 225.17C316.452 225.185 316.967 225.046 317.41 224.77C317.768 224.476 318.031 224.083 318.166 223.64C318.302 223.197 318.303 222.724 318.17 222.28C317.548 222.386 316.981 222.7 316.56 223.17C316.094 223.727 315.868 224.446 315.93 225.17Z" fill="#F28F8F"/>
<path d="M317.73 209.64C317.816 209.956 317.807 210.291 317.704 210.602C317.6 210.913 317.407 211.186 317.148 211.388C316.89 211.589 316.577 211.71 316.25 211.734C315.923 211.758 315.597 211.684 315.311 211.523C315.026 211.361 314.795 211.119 314.647 210.826C314.499 210.534 314.441 210.204 314.481 209.878C314.52 209.553 314.655 209.246 314.869 208.997C315.082 208.749 315.364 208.568 315.68 208.48C315.891 208.421 316.111 208.404 316.328 208.43C316.546 208.456 316.756 208.525 316.946 208.633C317.137 208.741 317.304 208.885 317.439 209.058C317.573 209.231 317.672 209.429 317.73 209.64Z" fill="#263238"/>
<path d="M304.14 212.9C304.227 213.216 304.218 213.551 304.114 213.862C304.011 214.173 303.817 214.446 303.559 214.648C303.3 214.849 302.987 214.969 302.66 214.993C302.333 215.017 302.007 214.944 301.721 214.783C301.436 214.621 301.205 214.379 301.057 214.086C300.909 213.794 300.852 213.464 300.891 213.138C300.93 212.813 301.065 212.506 301.279 212.257C301.492 212.008 301.774 211.828 302.09 211.74C302.516 211.623 302.97 211.679 303.354 211.897C303.739 212.114 304.021 212.475 304.14 212.9Z" fill="#263238"/>
<path d="M300.79 207L297.93 210.45C297.652 210.053 297.502 209.58 297.502 209.095C297.502 208.61 297.652 208.137 297.93 207.74C298.291 207.363 298.75 207.094 299.255 206.964C299.76 206.833 300.292 206.845 300.79 207Z" fill="#263238"/>
<path d="M314.45 202.91L318.69 204.37C318.722 203.886 318.605 203.405 318.354 202.99C318.104 202.575 317.733 202.247 317.29 202.05C316.784 201.915 316.25 201.924 315.748 202.076C315.246 202.228 314.797 202.517 314.45 202.91Z" fill="#263238"/>
<path opacity="0.15" d="M309.91 307.85C309.91 307.85 309.91 307.85 309.91 307.79V307.74C309.914 307.72 309.914 307.7 309.91 307.68C309.906 307.66 309.906 307.64 309.91 307.62V307.56V307.5L298.23 286L296.65 287.81L308.18 309.29C308.254 309.41 308.304 309.542 308.33 309.68C308.34 309.721 308.34 309.764 308.332 309.806C308.323 309.847 308.305 309.886 308.28 309.92L309.86 308.1C309.869 308.074 309.869 308.046 309.86 308.02C309.864 307.997 309.864 307.973 309.86 307.95C309.886 307.922 309.903 307.887 309.91 307.85Z" fill="black"/>
<path opacity="0.2" d="M298.2 285.9V285.84V285.77L298.15 285.71C298.152 285.686 298.152 285.663 298.15 285.64V285.57L298.09 285.5L298.04 285.43L297.99 285.37L297.94 285.31V285.26V285.21L297.78 285.06H297.72H297.66L297.6 285.01H297.53H297.46L297.38 284.96L284.12 277.5H284.04H283.97H283.89H283.82H283.75H283.68H283.61H283.54H283.47H283.22C283.183 277.498 283.146 277.504 283.111 277.518C283.077 277.532 283.046 277.553 283.02 277.58L281.44 279.39C281.51 279.31 281.64 279.29 281.83 279.32C282.087 279.386 282.333 279.491 282.56 279.63L295.82 287.09C296.08 287.241 296.33 287.408 296.57 287.59C296.825 287.783 297.068 287.99 297.3 288.21C297.523 288.42 297.733 288.644 297.93 288.88C298.093 289.078 298.24 289.289 298.37 289.51L299.95 287.7L298.2 285.9Z" fill="black"/>
<path d="M355.64 241.88C353.76 238.65 350.88 236.38 347.15 236.09L344.92 239.5C342.596 243.75 341.405 248.526 341.46 253.37L341.86 289.2L339.23 290.3C331.834 293.491 324.102 295.839 316.18 297.3C312.048 294.027 306.911 292.285 301.64 292.37L303.64 296.01C299.93 298.38 291.56 294.11 291.56 294.11C290.94 299.33 294.33 304.75 298.81 307.5C303.29 310.25 346.14 306.21 355.22 300.33C361.22 296.46 359.78 259.51 359.78 259.51C360.2 253.351 358.757 247.208 355.64 241.88Z" fill="#916160"/>
<path d="M282.47 283.25C282.189 284.664 282.025 286.099 281.98 287.54C282.318 290.965 283.773 294.183 286.12 296.7C286.604 297.25 287.21 297.678 287.89 297.95C288.233 298.082 288.604 298.123 288.968 298.066C289.331 298.01 289.673 297.86 289.96 297.63C290.463 297.026 290.721 296.255 290.68 295.47C290.787 294.31 290.723 293.141 290.49 292C290.245 290.852 289.595 289.83 288.66 289.12C287.929 288.696 287.15 288.36 286.34 288.12C285.544 287.785 284.836 287.272 284.27 286.62L282.47 283.25Z" fill="#916160"/>
<path d="M347.15 236.09C363.43 239.6 361.88 256.09 363.45 266.36C364.45 272.45 365.97 285.83 365.97 285.83C357.1 294.03 341.35 288.63 337.43 284.37C338.91 263.75 335.9 239.59 347.15 236.09Z" fill="#315B99"/>
<path opacity="0.2" d="M347.15 236.09C363.43 239.6 361.88 256.09 363.45 266.36C364.45 272.45 365.97 285.83 365.97 285.83C357.1 294.03 341.35 288.63 337.43 284.37C338.91 263.75 335.9 239.59 347.15 236.09Z" fill="white"/>
<path d="M309.91 307.85C309.91 307.85 309.91 307.85 309.91 307.79V307.74C309.914 307.72 309.914 307.7 309.91 307.68C309.906 307.66 309.906 307.64 309.91 307.62V307.56V307.5L298.23 286V285.94V285.88V285.81L298.18 285.75C298.182 285.727 298.182 285.703 298.18 285.68V285.61L298.12 285.54L298.07 285.47L298.02 285.41L297.97 285.35V285.3V285.25L297.81 285.1H297.75H297.69L297.63 285.05H297.56H297.49L297.41 285L284.15 277.54H284.07H284H283.92H283.85H283.78H283.71H283.64H283.57H283.5H283.25C283.213 277.538 283.176 277.544 283.141 277.558C283.107 277.572 283.076 277.593 283.05 277.62L281.47 279.43H281.52C281.39 279.53 281.38 279.74 281.57 280.09L293.11 301.57C293.752 302.565 294.623 303.391 295.65 303.98L308.91 311.44C309.6 311.82 310.01 311.83 310.06 311.55C310.06 311.55 310.06 311.65 310.06 311.67L311.64 309.85C311.649 309.824 311.649 309.796 311.64 309.77C311.644 309.747 311.644 309.723 311.64 309.7C311.761 309.586 311.859 309.45 311.928 309.298C311.997 309.147 312.035 308.983 312.041 308.817C312.046 308.651 312.019 308.485 311.961 308.33C311.902 308.174 311.814 308.031 311.7 307.91C311.586 307.788 311.45 307.69 311.299 307.622C311.147 307.553 310.984 307.515 310.817 307.509C310.651 307.504 310.486 307.531 310.33 307.589C310.174 307.648 310.031 307.736 309.91 307.85ZM280 277.6C280 277.6 280.05 277.6 280.09 277.6C280.06 277.598 280.03 277.598 280 277.6ZM295.21 286.16C295.33 286.27 295.46 286.36 295.57 286.47C295.47 286.36 295.34 286.27 295.22 286.16H295.21ZM308.31 309.68C308.303 309.527 308.254 309.378 308.17 309.25C308.244 309.369 308.294 309.502 308.32 309.64C308.32 309.64 308.32 309.66 308.32 309.68H308.31Z" fill="#E0E0E0"/>
<path d="M457.86 336.88L441.33 337.36L424.8 336.88C424.09 348.04 426.26 359.42 429.27 364.98C429.985 366.405 431.128 367.569 432.54 368.31C437.42 371.12 445.3 371.12 450.15 368.31C451.587 367.561 452.736 366.359 453.42 364.89C456.41 359.3 458.57 348 457.86 336.88Z" fill="white"/>
<path d="M453 330.11C459.48 333.85 459.51 339.91 453.08 343.65C446.65 347.39 436.17 347.39 429.7 343.65C423.23 339.91 423.19 333.85 429.62 330.11C436.05 326.37 446.5 326.37 453 330.11Z" fill="#DBDBDB"/>
<path d="M450.42 331.6C455.47 334.51 455.5 339.24 450.48 342.16C445.46 345.08 437.29 345.08 432.24 342.16C427.19 339.24 427.16 334.51 432.18 331.6C437.2 328.69 445.37 328.68 450.42 331.6Z" fill="#E0E0E0"/>
<g opacity="0.15">
<path d="M450.42 331.6C455.47 334.51 455.5 339.24 450.48 342.16C445.46 345.08 437.29 345.08 432.24 342.16C427.19 339.24 427.16 334.51 432.18 331.6C437.2 328.69 445.37 328.68 450.42 331.6Z" fill="black"/>
</g>
<path d="M468.51 266.34C431.25 278.54 430.92 303.46 439.32 321.21C441.43 324.8 447.84 326.73 453.42 304.65L443.64 305.91L455.04 300.13L458.04 291.28L448.54 291.98L460.6 286.91C462.811 279.897 465.453 273.027 468.51 266.34Z" fill="#315B99"/>
<path opacity="0.2" d="M468.51 266.34C431.25 278.54 430.92 303.46 439.32 321.21C441.43 324.8 447.84 326.73 453.42 304.65L443.64 305.91L455.04 300.13L458.04 291.28L448.54 291.98L460.6 286.91C462.811 279.897 465.453 273.027 468.51 266.34Z" fill="black"/>
<path opacity="0.2" d="M468.51 266.34C431.25 278.54 430.92 303.46 439.32 321.21C441.43 324.8 447.84 326.73 453.42 304.65L443.64 305.91L455.04 300.13L458.04 291.28L448.54 291.98L460.6 286.91C462.811 279.897 465.453 273.027 468.51 266.34Z" fill="white"/>
<path d="M458 272.57C438.36 287.48 436.58 304.57 442.13 322.42C440.14 306.71 438 290.82 458 272.57Z" fill="white"/>
<path d="M405.41 291.65C442.13 296.82 446.59 319.98 441.71 337.9C440.34 341.6 434.71 344.46 425.83 324.83L435.15 324.38L423.57 320.89L419.34 313.13L428.34 312.21L416.26 309.49C413.014 303.326 409.39 297.368 405.41 291.65Z" fill="#315B99"/>
<path opacity="0.2" d="M405.41 291.65C442.13 296.82 446.59 319.98 441.71 337.9C440.34 341.6 434.71 344.46 425.83 324.83L435.15 324.38L423.57 320.89L419.34 313.13L428.34 312.21L416.26 309.49C413.014 303.326 409.39 297.368 405.41 291.65Z" fill="white"/>
<path opacity="0.1" d="M405.41 291.65C442.13 296.82 446.59 319.98 441.71 337.9C440.34 341.6 434.71 344.46 425.83 324.83L435.15 324.38L423.57 320.89L419.34 313.13L428.34 312.21L416.26 309.49C413.014 303.326 409.39 297.368 405.41 291.65Z" fill="black"/>
<path d="M416.26 295.71C437 306.33 441.52 322 439.32 339.5C438.54 324.54 437.87 309.39 416.26 295.71Z" fill="white"/>
<path d="M479.26 300.33C445.58 300.88 438.97 321.25 441.36 337.95C442.18 341.44 446.96 344.65 457.14 327.95L448.79 326.5L459.62 324.65L464.3 318.13L456.3 316.3L467.49 315.2C471.105 310.007 475.036 305.041 479.26 300.33Z" fill="#315B99"/>
<path d="M469 302.77C449.09 310.02 443.29 323.6 443.32 339.66C445.72 326.26 448 312.68 469 302.77Z" fill="white"/>
<path opacity="0.2" d="M479.26 300.33C445.58 300.88 438.97 321.25 441.36 337.95C442.18 341.44 446.96 344.65 457.14 327.95L448.79 326.5L459.62 324.65L464.3 318.13L456.3 316.3L467.49 315.2C471.105 310.007 475.036 305.041 479.26 300.33Z" fill="white"/>
</svg>
