<svg width="401" height="360" viewBox="0 0 401 360" fill="none" xmlns="http://www.w3.org/2000/svg">
<path d="M387.998 24.1035H260.655V359.283H387.998V24.1035Z" fill="#315B99"/>
<path d="M387.998 24.1035H260.655V359.283H387.998V24.1035Z" fill="white"/>
<path d="M391.032 67.5662C386.379 68.0165 384.353 68.7027 382.455 66.0117C380.558 63.3208 373.525 62.7418 371.177 65.6901C368.829 68.6383 367.96 70.5788 362.718 69.8069C357.475 69.035 355.706 70.418 354.892 72.5944C354.077 74.7707 342.027 75.5533 345.479 77.9548L390.206 71.3829C390.206 71.3829 395.685 67.116 391.032 67.5662Z" fill="white"/>
<path d="M350.818 44.1733C349.381 42.6616 345.146 42.7152 341.319 44.6128C337.492 46.5104 340.247 37.7407 333.139 40.1958C322.943 43.7016 325.634 49.2872 321.41 49.3622C317.186 49.4373 304.782 52.7393 311.258 54.7227L348.781 49.2014C348.781 49.2014 352.265 45.6742 350.818 44.1733Z" fill="white"/>
<path d="M301.609 103.042C300.59 101.97 297.589 101.97 294.866 103.363C292.142 104.757 294.126 98.4854 289.065 100.222C281.829 102.709 283.705 106.655 280.746 106.73C277.787 106.805 268.953 109.121 273.542 110.568L300.151 106.644C300.151 106.644 302.638 104.114 301.609 103.042Z" fill="white"/>
<path d="M373.139 292.556V305.206C373.139 305.716 372.937 306.205 372.578 306.567C372.218 306.929 371.73 307.133 371.22 307.136H367.757C367.504 307.135 367.254 307.183 367.02 307.279C366.785 307.375 366.573 307.516 366.393 307.694C366.214 307.873 366.072 308.085 365.975 308.318C365.877 308.552 365.827 308.802 365.827 309.055V311.478C365.827 311.99 365.624 312.481 365.262 312.842C364.9 313.204 364.409 313.408 363.898 313.408H351.033C350.522 313.405 350.032 313.201 349.671 312.839C349.31 312.478 349.106 311.989 349.103 311.478V292.556C349.103 292.047 348.901 291.558 348.541 291.199C348.181 290.839 347.693 290.636 347.184 290.636H345.179C344.668 290.634 344.179 290.429 343.818 290.068C343.456 289.707 343.252 289.218 343.249 288.707V266.933C343.249 266.424 343.047 265.935 342.687 265.576C342.327 265.216 341.839 265.013 341.33 265.013H337.567C337.057 265.013 336.568 265.215 336.206 265.575C335.845 265.935 335.64 266.423 335.637 266.933V280.452C335.612 280.86 335.427 281.243 335.122 281.516C334.817 281.789 334.417 281.93 334.008 281.91C333.6 281.93 333.201 281.788 332.897 281.515C332.594 281.242 332.411 280.859 332.389 280.452V240.205C332.389 239.693 332.186 239.203 331.824 238.841C331.462 238.479 330.971 238.275 330.459 238.275H326.664C326.411 238.275 326.161 238.325 325.927 238.423C325.694 238.52 325.481 238.662 325.303 238.841C325.125 239.021 324.984 239.234 324.888 239.468C324.792 239.702 324.743 239.952 324.745 240.205V279.98C324.745 280.492 324.542 280.983 324.18 281.344C323.818 281.706 323.327 281.91 322.815 281.91H322.354C322.101 281.91 321.85 281.86 321.616 281.763C321.381 281.666 321.169 281.524 320.99 281.344C320.81 281.165 320.668 280.953 320.571 280.718C320.474 280.484 320.424 280.233 320.424 279.98V259.417C320.427 259.116 320.357 258.818 320.221 258.549L308.781 235.649C308.646 235.383 308.576 235.089 308.578 234.791V205.898C308.578 205.645 308.528 205.395 308.431 205.161C308.334 204.928 308.191 204.716 308.012 204.538C307.833 204.359 307.62 204.218 307.386 204.122C307.152 204.026 306.901 203.978 306.648 203.979H295.509C294.999 203.979 294.51 204.181 294.148 204.541C293.787 204.9 293.582 205.388 293.579 205.898V279.98C293.581 280.233 293.532 280.483 293.436 280.718C293.34 280.952 293.199 281.164 293.021 281.344C292.843 281.523 292.631 281.665 292.397 281.763C292.163 281.86 291.913 281.91 291.66 281.91H290.877C290.625 281.91 290.374 281.86 290.141 281.763C289.907 281.665 289.695 281.523 289.517 281.344C289.338 281.164 289.197 280.952 289.101 280.718C289.006 280.483 288.957 280.233 288.958 279.98V251.816C288.956 251.305 288.751 250.816 288.39 250.455C288.029 250.093 287.54 249.889 287.029 249.886H275.89C275.379 249.889 274.889 250.093 274.528 250.455C274.167 250.816 273.963 251.305 273.96 251.816V279.991C273.961 280.244 273.913 280.494 273.817 280.728C273.721 280.962 273.58 281.175 273.402 281.355C273.223 281.534 273.011 281.676 272.778 281.773C272.544 281.87 272.294 281.92 272.041 281.92H270.529C270.017 281.92 269.526 282.124 269.165 282.486C268.803 282.847 268.599 283.338 268.599 283.85V288.696C268.599 289.206 268.398 289.695 268.038 290.057C267.678 290.418 267.19 290.623 266.68 290.626H266.144C265.891 290.624 265.641 290.673 265.407 290.769C265.173 290.865 264.96 291.006 264.78 291.184C264.601 291.362 264.459 291.574 264.362 291.808C264.265 292.041 264.215 292.292 264.215 292.545V331.065C264.215 331.318 264.265 331.568 264.362 331.802C264.459 332.035 264.601 332.248 264.78 332.426C264.96 332.604 265.173 332.745 265.407 332.841C265.641 332.937 265.891 332.986 266.144 332.984H378.864C379.373 332.984 379.861 332.782 380.221 332.422C380.581 332.062 380.783 331.574 380.783 331.065V292.556C380.783 292.047 380.581 291.558 380.221 291.199C379.861 290.839 379.373 290.636 378.864 290.636H375.069C374.559 290.636 374.07 290.838 373.708 291.198C373.346 291.557 373.142 292.046 373.139 292.556Z" fill="#315B99"/>
<path d="M387.633 336.522H260.655V347.758H387.633V336.522Z" fill="#315B99"/>
<path d="M400.199 14.7979V359.283H386.24V30.1717H274.346V359.283H260.398V14.7979H400.199Z" fill="#263238"/>
<path d="M393.991 14.7979V359.283H380.043V30.1717H268.149V359.283H254.19V14.7979H393.991Z" fill="#315B99"/>
<path d="M289.43 56.2019C284.638 56.5879 278.387 59.8792 292.367 63.7066C306.347 67.5339 308.234 63.3957 308.234 63.3957C308.234 63.3957 302.295 55.162 289.43 56.2019Z" fill="#315B99"/>
<path d="M289.43 56.2019C284.638 56.5879 278.387 59.8792 292.367 63.7066C306.347 67.5339 308.234 63.3957 308.234 63.3957C308.234 63.3957 302.295 55.162 289.43 56.2019Z" fill="black"/>
<path d="M314.969 91.306C318.123 90.8282 320.209 87.3331 319.628 83.4995C319.047 79.6658 316.02 76.9454 312.866 77.4233C309.712 77.9011 307.627 81.3962 308.208 85.2298C308.788 89.0634 311.816 91.7838 314.969 91.306Z" fill="#263238"/>
<path d="M296.482 74.8577C299.636 74.3798 301.721 70.8847 301.141 67.0511C300.56 63.2175 297.532 60.4971 294.379 60.9749C291.225 61.4527 289.139 64.9478 289.72 68.7815C290.301 72.6151 293.329 75.3355 296.482 74.8577Z" fill="#263238"/>
<path d="M380.043 283.561V313.365C364.551 301.132 348.706 287.442 345.415 280.312C333.493 254.41 310.614 186.493 310.614 186.493L346.637 171.763L346.798 172.492C347.741 176.877 352.791 200.87 358.719 237.621C360.306 247.431 361.936 258.163 363.597 269.666C366.449 271.532 372.614 276.839 380.043 283.561Z" fill="#263238"/>
<path d="M360.252 247.313C358.376 235.274 356.564 224.413 354.892 214.915L346.658 208.589C349.527 222.022 354.095 235.035 360.252 247.313Z" fill="black"/>
<path d="M380.043 209.661V271.757C377.899 268.176 375.894 264.949 374.136 262.215C370.062 255.869 364.573 247.077 358.719 237.621C342.734 211.838 324.048 181.058 324.048 181.058L357.444 168.472C366.674 180.608 372.796 193.237 380.043 209.661Z" fill="#263238"/>
<path d="M299.518 125.373C298.768 125.92 298.2 126.317 297.556 126.746C296.913 127.175 296.302 127.561 295.68 127.957C294.415 128.74 293.15 129.49 291.864 130.219C289.296 131.664 286.655 132.974 283.952 134.143C282.611 134.754 281.228 135.29 279.856 135.848C278.484 136.405 277.079 136.92 275.654 137.317C272.805 138.247 269.906 139.013 266.97 139.611L266.551 139.697C265.769 139.869 264.959 139.876 264.172 139.719C263.386 139.563 262.641 139.245 261.984 138.785C259.174 136.772 256.577 134.477 254.233 131.935C252.023 129.571 249.94 127.091 247.994 124.505C246.085 121.953 244.298 119.352 242.633 116.7C240.95 114.02 239.363 111.34 237.894 108.488C237.517 107.729 237.424 106.86 237.633 106.038C237.842 105.217 238.34 104.497 239.035 104.012C239.729 103.526 240.576 103.306 241.419 103.392C242.262 103.477 243.047 103.863 243.63 104.478L243.705 104.553C245.699 106.698 247.758 108.97 249.816 111.125C251.875 113.28 253.944 115.414 256.056 117.483C258.168 119.552 260.344 121.525 262.488 123.347C264.496 125.088 266.648 126.655 268.921 128.032L263.925 127.207C266.326 126.424 268.706 125.599 271.065 124.612C273.424 123.626 275.761 122.586 278.066 121.396C280.371 120.206 282.644 119.037 284.884 117.751C285.956 117.118 287.114 116.464 288.197 115.8L289.805 114.781L291.285 113.838L291.585 113.645C293.135 112.668 295.004 112.33 296.798 112.703C298.593 113.077 300.172 114.131 301.204 115.646C302.236 117.16 302.641 119.015 302.332 120.822C302.024 122.628 301.027 124.245 299.55 125.331L299.518 125.373Z" fill="#B55B52"/>
<path d="M302.134 107.973C293.734 111.516 285.579 115.614 277.722 120.238C280.22 127.453 283.694 136.041 289.301 141.058C294.307 137.867 299.05 134.282 303.485 130.337C313.273 121.911 312.362 103.867 302.134 107.973Z" fill="#315B99"/>
<path d="M309.017 186.322C310.883 192.754 312.234 200.141 315.15 201.567C318.066 202.993 324.713 193.226 327.232 189.549C334.083 190.063 354.11 187.351 360.242 183.406C366.374 179.46 364.445 174.625 359.534 167.839C346.09 166.488 316.962 181.412 309.017 186.322Z" fill="white"/>
<path d="M330.63 99.7075C320.91 101.386 311.386 104.055 302.209 107.673C292.314 111.672 287.2 119.724 288.98 130.251C291.124 142.902 300.773 172.363 309.853 192.433C311.429 195.885 358.923 174.314 361.217 169.565C357.476 156.432 347.741 143.921 343.967 112.551C343.195 106.086 336.966 98.614 330.63 99.7075Z" fill="#315B99"/>
<path d="M321.164 124.537C324.252 123.092 327.463 121.926 330.759 121.053C331.005 120.984 331.268 121.011 331.495 121.128C331.722 121.246 331.896 121.445 331.981 121.685C332.346 122.672 332.989 124.334 333.632 125.802C333.692 125.934 333.723 126.076 333.722 126.22C333.722 126.364 333.691 126.507 333.631 126.638C333.571 126.769 333.484 126.886 333.375 126.98C333.266 127.075 333.138 127.145 333 127.185C330.491 127.947 326.396 129.447 323.78 130.584C323.554 130.668 323.306 130.674 323.076 130.6C322.847 130.526 322.649 130.377 322.515 130.176C321.646 128.79 321.015 127.268 320.649 125.674C320.595 125.454 320.616 125.222 320.71 125.016C320.803 124.81 320.963 124.641 321.164 124.537Z" fill="white"/>
<path d="M308.331 120.731C308.481 121.621 308.234 122.404 307.763 122.489C307.291 122.575 306.776 121.921 306.615 121.031C306.455 120.142 306.712 119.359 307.184 119.273C307.655 119.187 308.17 119.841 308.331 120.731Z" fill="white"/>
<path d="M344.825 108.295C347.43 109.817 349.821 111.35 352.255 112.969C354.688 114.588 357.047 116.186 359.384 117.954C361.721 119.723 364.048 121.417 366.331 123.24C368.615 125.062 370.845 126.928 373.064 128.847L373.45 129.179C374.047 129.695 374.532 130.327 374.877 131.037C375.222 131.746 375.418 132.519 375.455 133.307C375.564 136.555 375.221 139.802 374.436 142.956C373.722 145.869 372.754 148.714 371.542 151.457C370.38 154.1 369.048 156.664 367.553 159.134C366.073 161.601 364.421 163.962 362.611 166.199C362.075 166.844 361.328 167.278 360.502 167.423C359.676 167.568 358.825 167.416 358.102 166.992C357.378 166.568 356.828 165.901 356.551 165.11C356.273 164.319 356.286 163.454 356.586 162.671L356.672 162.478C357.572 160.184 358.526 157.676 359.33 155.263C360.135 152.851 360.896 150.396 361.475 147.973C362.068 145.632 362.502 143.254 362.772 140.854C363.011 138.716 362.993 136.556 362.718 134.422L365.109 138.882C360.617 135.665 356.018 132.567 351.375 129.501L337.438 120.41H337.363C335.767 119.423 334.627 117.842 334.196 116.016C333.765 114.189 334.077 112.266 335.064 110.67C336.05 109.073 337.631 107.934 339.457 107.503C341.284 107.071 343.207 107.383 344.804 108.37L344.825 108.295Z" fill="#B55B52"/>
<path d="M337.256 100.844C345.184 105.333 352.802 110.347 360.06 115.853C356.727 122.536 351.718 128.239 345.522 132.406C345.522 132.406 341.105 131.334 333.289 122.865C324.563 113.377 327.575 95.5692 337.256 100.844Z" fill="#315B99"/>
<path d="M357.476 160.549L351.29 167.625L361.399 172.685C361.399 172.685 366.235 165.566 362.932 162.264L357.476 160.549Z" fill="#B55B52"/>
<path d="M351.794 177.563L355.621 178.732C356.356 178.957 357.149 178.905 357.849 178.585C358.548 178.264 359.106 177.699 359.416 176.995L361.399 172.706L351.29 167.646L349.574 173.393C349.326 174.24 349.419 175.151 349.833 175.93C350.248 176.71 350.952 177.296 351.794 177.563Z" fill="#B55B52"/>
<path d="M307.656 115.038C307.656 115.038 312.813 118.351 313.306 122.693C325.603 113.634 327.565 104.746 324.884 100.833C323.679 100.375 322.348 100.375 321.143 100.833C321.143 100.833 317.369 108.574 307.656 115.038Z" fill="white"/>
<path d="M307.656 115.038C307.656 115.038 304.086 119.198 303.7 123.519C295.83 119.981 298.682 110.75 300.805 108.295C302.155 107.314 303.658 106.564 305.254 106.076C305.254 106.076 302.413 109.624 307.656 115.038Z" fill="white"/>
<path d="M313.981 79.8523C314.592 85.9097 316.458 96.1481 320.896 100.608C321.432 101.144 321.772 101.845 321.861 102.597C321.951 103.35 321.784 104.11 321.389 104.757C318.712 109.453 314.4 112.999 309.274 114.717C303.496 116.647 301.909 113.902 301.984 110.964C302.012 110.219 302.208 109.49 302.557 108.831C302.906 108.172 303.399 107.6 304 107.159C309.017 103.374 307.216 98.5068 304.675 94.1755L313.981 79.8523Z" fill="#B55B52"/>
<path d="M310.197 85.6952L304.686 94.2183C305.357 95.3056 305.931 96.45 306.401 97.6383C309.082 96.4054 311.998 92.2242 311.408 89.2224C311.223 87.9826 310.812 86.7871 310.197 85.6952Z" fill="black"/>
<path d="M315.493 69.8068C316.297 79.0911 317.24 84.4837 313.349 89.9729C307.495 98.2387 295.67 95.923 292.132 87.1104C288.916 79.1769 288.176 65.3147 296.527 60.158C298.34 59.0062 300.422 58.3466 302.567 58.2442C304.712 58.1418 306.847 58.6002 308.762 59.5741C310.676 60.548 312.303 62.0038 313.484 63.7981C314.664 65.5925 315.356 67.6634 315.493 69.8068Z" fill="#B55B52"/>
<path d="M299.4 57.2206C294.179 57.7353 291.692 60.8336 293.054 62.3774C288.454 63.2029 292.635 68.81 297.599 66.505C298.028 68.2954 307.902 67.695 307.999 65.004C310.239 70.8255 313.048 70.4503 313.048 70.4503C313.048 70.4503 310.132 76.8828 314.313 77.719C314.313 81.3534 316.94 84.5376 319.674 83.9908C322.708 83.369 321.743 78.2337 321.743 78.2337C327.275 75.7786 323.555 70.2144 323.555 70.2144C323.469 64.0391 310.625 50.4021 299.4 57.2206Z" fill="#263238"/>
<path d="M292.646 81.5248C292.016 81.4746 291.409 81.2691 290.877 80.9268C290.346 80.5844 289.908 80.1158 289.602 79.5628C288.676 78.0784 288.151 76.3791 288.079 74.6312C287.927 72.8921 288.234 71.1436 288.969 69.5602C289.158 68.9137 289.541 68.341 290.067 67.9199C290.592 67.4988 291.235 67.2496 291.907 67.2063C292.579 67.163 293.248 67.3276 293.824 67.6777C294.399 68.0279 294.853 68.5467 295.123 69.1635C296.05 70.6438 296.579 72.3392 296.656 74.0844C296.903 78.0297 295.187 81.3639 292.818 81.514L292.646 81.5248ZM292.078 67.7805H291.95C291.398 67.8745 290.88 68.1109 290.448 68.4662C290.015 68.8216 289.683 69.2837 289.484 69.8068C288.837 71.3125 288.554 72.9495 288.658 74.5851C288.762 76.2206 289.251 77.8085 290.084 79.2198C290.347 79.7146 290.734 80.1322 291.208 80.4312C291.682 80.7302 292.226 80.9002 292.786 80.9244C294.833 80.7957 296.302 77.7081 296.077 74.1166C296.005 72.4714 295.511 70.8725 294.64 69.4744C294.389 69.0008 294.022 68.5977 293.575 68.3019C293.127 68.006 292.613 67.8268 292.078 67.7805Z" fill="white"/>
<path d="M302.885 80.8709C302.197 80.84 301.526 80.6508 300.923 80.3179C300.321 79.985 299.803 79.5175 299.411 78.9518C298.341 77.5227 297.728 75.8037 297.653 74.0202C297.396 70.0856 299.443 66.73 302.209 66.5156C304.975 66.3012 307.43 69.4102 307.677 73.3555C307.845 75.1293 307.471 76.9123 306.605 78.4694C306.271 79.1168 305.782 79.6713 305.182 80.083C304.581 80.4947 303.888 80.7507 303.163 80.828L302.885 80.8709ZM302.445 67.1267H302.295C299.851 67.2875 298.007 70.3429 298.275 73.9881C298.352 75.6516 298.919 77.2553 299.904 78.598C300.236 79.1471 300.712 79.5946 301.281 79.8918C301.849 80.189 302.488 80.3245 303.128 80.2836C303.769 80.2427 304.385 80.0269 304.911 79.6598C305.437 79.2926 305.852 78.7882 306.112 78.2014C306.942 76.7515 307.315 75.0852 307.184 73.4198C306.873 69.8927 304.804 67.1267 302.445 67.1267Z" fill="white"/>
<path d="M296.366 74.3955C296.308 74.3952 296.251 74.3773 296.203 74.3441C296.155 74.3109 296.118 74.264 296.098 74.2096C296.077 74.1551 296.073 74.0956 296.086 74.0389C296.1 73.9821 296.13 73.9308 296.173 73.8916C296.442 73.6871 296.764 73.5642 297.1 73.5376C297.437 73.5109 297.774 73.5817 298.071 73.7415C298.14 73.7781 298.191 73.8399 298.215 73.9139C298.239 73.9879 298.234 74.0683 298.2 74.1382C298.165 74.2061 298.105 74.2577 298.033 74.2818C297.961 74.3059 297.882 74.3005 297.814 74.2668C297.618 74.1574 297.396 74.1053 297.172 74.1167C296.948 74.1281 296.732 74.2024 296.549 74.3312C296.497 74.3729 296.433 74.3956 296.366 74.3955Z" fill="white"/>
<path d="M315.76 75.1887H315.696C309.457 73.7842 307.484 74.1166 307.473 74.1166C307.398 74.1337 307.319 74.1201 307.253 74.0789C307.188 74.0377 307.142 73.9722 307.125 73.8968C307.108 73.8215 307.121 73.7424 307.163 73.6771C307.204 73.6117 307.269 73.5654 307.345 73.5484C307.43 73.5484 309.414 73.141 315.825 74.6205C315.862 74.628 315.897 74.643 315.928 74.6646C315.959 74.6861 315.986 74.7138 316.006 74.7459C316.026 74.778 316.039 74.8139 316.045 74.8513C316.051 74.8887 316.049 74.9269 316.039 74.9635C316.025 75.0269 315.989 75.0836 315.939 75.1244C315.888 75.1653 315.825 75.1879 315.76 75.1887Z" fill="white"/>
<path d="M320.103 78.2657C319.3 80.3515 317.753 82.0662 315.761 83.0794C313.231 84.2694 311.815 81.8143 312.394 78.9197C312.92 76.3252 314.86 72.5729 317.465 72.5943C320.071 72.6158 321.164 75.5962 320.103 78.2657Z" fill="#B55B52"/>
<path d="M302.091 74.3955C302.145 75.146 301.791 75.8 301.298 75.8429C300.805 75.8857 300.376 75.3175 300.323 74.5564C300.269 73.7952 300.612 73.1519 301.105 73.109C301.598 73.0661 302.027 73.6343 302.091 74.3955Z" fill="#263238"/>
<path d="M293.343 75.0601C293.397 75.8106 293.043 76.4645 292.56 76.5074C292.078 76.5503 291.628 75.9821 291.574 75.2209C291.52 74.4597 291.864 73.8165 292.357 73.7736C292.85 73.7307 293.289 74.2989 293.343 75.0601Z" fill="#263238"/>
<path d="M297.031 74.6207C295.747 76.7534 294.587 78.9585 293.557 81.2248C294.897 82.4255 297.513 81.5464 297.513 81.5464L297.031 74.6207Z" fill="#A02724"/>
<path d="M298.393 85.438C299.236 85.3596 300.055 85.1123 300.801 84.7107C301.547 84.3092 302.205 83.7617 302.735 83.1008C302.766 83.0515 302.777 82.9925 302.767 82.9351C302.757 82.8777 302.727 82.8259 302.681 82.7899C302.662 82.7691 302.639 82.7525 302.613 82.7411C302.587 82.7298 302.559 82.7239 302.531 82.7239C302.503 82.7239 302.475 82.7298 302.449 82.7411C302.423 82.7525 302.4 82.7691 302.381 82.7899C301.779 83.505 301.019 84.0708 300.162 84.4428C299.304 84.8149 298.372 84.983 297.438 84.9341C297.409 84.9326 297.379 84.937 297.351 84.947C297.324 84.957 297.298 84.9724 297.276 84.9924C297.254 85.0123 297.236 85.0363 297.224 85.0631C297.211 85.0899 297.204 85.1189 297.203 85.1485C297.201 85.1775 297.206 85.2066 297.216 85.2338C297.226 85.2611 297.241 85.286 297.261 85.3071C297.282 85.3282 297.306 85.3449 297.332 85.3563C297.359 85.3678 297.388 85.3737 297.417 85.3736C297.74 85.4169 298.066 85.4383 298.393 85.438Z" fill="#263238"/>
<path d="M305.511 71.5758C305.583 71.5551 305.649 71.5184 305.704 71.4686C305.787 71.3843 305.834 71.2707 305.834 71.1523C305.834 71.0339 305.787 70.9203 305.704 70.836C305.257 70.3007 304.684 69.8844 304.037 69.6243C303.39 69.3643 302.688 69.2686 301.995 69.3458C301.878 69.3629 301.773 69.4256 301.703 69.5201C301.632 69.6145 301.602 69.7331 301.619 69.8497C301.637 69.9663 301.699 70.0713 301.794 70.1417C301.888 70.2121 302.007 70.242 302.123 70.2249C302.671 70.1758 303.223 70.2604 303.731 70.4714C304.239 70.6824 304.688 71.0136 305.039 71.4364C305.095 71.504 305.17 71.5534 305.254 71.5783C305.338 71.6031 305.428 71.6022 305.511 71.5758Z" fill="#263238"/>
<path d="M289.73 72.0798C289.803 72.0853 289.875 72.0736 289.942 72.0457C290.01 72.0177 290.069 71.9743 290.116 71.919C290.449 71.4725 290.883 71.1113 291.382 70.8653C291.882 70.6193 292.433 70.4954 292.989 70.5038C293.107 70.5131 293.223 70.4772 293.315 70.4035C293.406 70.3297 293.466 70.2237 293.483 70.1071C293.495 69.9909 293.461 69.8745 293.389 69.7825C293.317 69.6905 293.212 69.63 293.097 69.614C292.392 69.5942 291.693 69.7423 291.058 70.0462C290.422 70.3501 289.868 70.8009 289.441 71.3615C289.368 71.452 289.332 71.5673 289.342 71.6832C289.352 71.7991 289.407 71.9067 289.494 71.9833C289.558 72.0437 289.642 72.0781 289.73 72.0798Z" fill="#263238"/>
<path d="M242.826 111.286L233.585 112.969L234.421 101.702C234.421 101.702 242.997 101.198 244.155 105.733L242.826 111.286Z" fill="#B55B52"/>
<path d="M225.308 107.437L226.262 103.556C226.458 102.814 226.912 102.167 227.543 101.73C228.174 101.294 228.941 101.097 229.704 101.176L234.421 101.702L233.585 112.969L227.763 111.49C226.904 111.272 226.165 110.724 225.706 109.966C225.247 109.208 225.104 108.3 225.308 107.437Z" fill="#B55B52"/>
<path d="M296.399 57.1885C298.253 52.0103 301.384 48.6761 304.246 48.258C306.166 47.99 314.153 49.3301 317.615 51.1312C321.078 52.9323 326.096 59.4506 326.353 61.8521C326.61 64.2536 323.512 70.2466 323.512 70.2466C323.512 70.2466 309.607 61.1874 296.399 57.1885Z" fill="#315B99"/>
<path d="M300.912 50.2626C304.286 51.0192 307.608 51.9859 310.861 53.1572C311.344 53.3502 311.505 53.7683 311.226 54.1221C310.679 54.8189 309.585 56.2663 308.846 57.3384C308.653 57.5574 308.397 57.7119 308.113 57.781C307.829 57.85 307.531 57.8302 307.259 57.7243C304.825 56.8238 300.644 55.4622 297.846 54.701C297.342 54.5616 297.106 54.1971 297.256 53.8326C297.826 52.5957 298.627 51.4786 299.615 50.5413C299.796 50.3992 300.007 50.3003 300.231 50.252C300.456 50.2037 300.689 50.2073 300.912 50.2626Z" fill="white"/>
<path d="M288.979 56.2449C299.293 56.2449 303.056 63.0312 308.395 65.0146C313.734 66.9979 322.514 66.0009 322.514 66.0009C322.514 66.0009 304.611 54.3151 288.979 56.2449Z" fill="#315B99"/>
<path d="M185.198 110.678L265.137 100.721L260.978 67.3263L181.039 77.2833L185.198 110.678Z" fill="#315B99"/>
<path d="M213.18 107.19L265.129 100.719L260.97 67.3245L209.021 73.7951L213.18 107.19Z" fill="white"/>
<path d="M251.328 99.418L250.149 89.9729L260.387 88.6971L261.556 98.1422L251.328 99.418ZM251.328 90.8413L252.261 98.2602L260.462 97.2417L259.54 89.8121L251.328 90.8413Z" fill="white"/>
<path d="M239.159 100.941L237.98 91.4955L248.208 90.2197L249.387 99.6648L239.159 100.941ZM239.159 92.3638L240.081 99.7827L248.294 98.7642L247.372 91.3454L239.159 92.3638Z" fill="white"/>
<path d="M230.72 80.7919L241.678 79.427L240.488 69.8735L229.53 71.2383L230.72 80.7919Z" fill="white"/>
<path d="M193.094 85.4926L199.339 84.7147L198.149 75.1612L191.904 75.939L193.094 85.4926Z" fill="white"/>
<path d="M349.467 89.2976C344.579 88.665 336.838 85.5024 333.236 82.6613C333.206 82.6374 333.182 82.6079 333.164 82.5744C333.145 82.541 333.134 82.5043 333.13 82.4665C333.126 82.4287 333.13 82.3904 333.14 82.354C333.151 82.3175 333.169 82.2835 333.193 82.2539C333.217 82.2243 333.246 82.1998 333.28 82.1816C333.313 82.1635 333.35 82.1521 333.388 82.1481C333.426 82.1441 333.464 82.1476 333.5 82.1584C333.537 82.1692 333.571 82.1871 333.6 82.211C337.138 84.9985 344.729 88.1075 349.542 88.7186C349.581 88.7239 349.617 88.7367 349.651 88.7563C349.684 88.7759 349.713 88.802 349.736 88.8329C349.759 88.8639 349.775 88.8991 349.784 88.9366C349.793 88.974 349.795 89.0129 349.789 89.051C349.785 89.0887 349.773 89.1253 349.755 89.1584C349.736 89.1915 349.711 89.2205 349.681 89.2436C349.651 89.2667 349.617 89.2834 349.58 89.2926C349.543 89.3019 349.505 89.3036 349.467 89.2976Z" fill="white"/>
<path d="M278.077 160.892C278.041 160.901 278.004 160.901 277.969 160.892C273.402 159.037 266.734 153.998 263.979 150.332C263.948 150.269 263.94 150.198 263.956 150.13C263.973 150.062 264.012 150.002 264.068 149.96C264.124 149.918 264.193 149.897 264.262 149.9C264.332 149.903 264.399 149.931 264.45 149.978C267.152 153.58 273.702 158.555 278.194 160.356C278.264 160.389 278.319 160.447 278.347 160.519C278.375 160.591 278.374 160.67 278.345 160.742C278.318 160.789 278.28 160.829 278.232 160.855C278.185 160.882 278.131 160.894 278.077 160.892Z" fill="white"/>
<path d="M358.601 97.6278C353.993 97.4351 349.431 96.6238 345.039 95.2156C344.965 95.1928 344.904 95.1416 344.867 95.0733C344.831 95.0049 344.824 94.925 344.846 94.8511C344.869 94.7771 344.92 94.7153 344.989 94.6791C345.057 94.6429 345.137 94.6353 345.211 94.6581C347.977 95.505 355.01 97.4348 360.306 96.9738C360.344 96.9693 360.383 96.9725 360.419 96.983C360.456 96.9936 360.491 97.0113 360.521 97.0352C360.55 97.0592 360.575 97.0888 360.594 97.1224C360.612 97.1561 360.624 97.193 360.628 97.2311C360.634 97.3091 360.609 97.3863 360.559 97.4463C360.509 97.5064 360.437 97.5446 360.36 97.5527C359.791 97.5956 359.202 97.6278 358.601 97.6278Z" fill="white"/>
<path d="M102.275 51.4527C93.3449 61.7876 105.974 70.225 108.44 78.9304C110.906 87.6358 109.448 106.387 120.522 117.108C137.762 133.832 157.649 124.409 161.037 114.631C164.425 104.854 163.181 89.5012 148.525 78.9304C139.766 72.6265 146.617 51.7743 138.544 49.2763C140.185 36.7007 100.571 27.5772 102.275 51.4527Z" fill="#263238"/>
<path d="M160.779 113.795C160.732 113.795 160.686 113.783 160.645 113.761C160.603 113.738 160.569 113.706 160.543 113.666C160.506 113.603 160.494 113.528 160.51 113.456C160.526 113.385 160.568 113.322 160.629 113.28C163.491 111.436 165.025 108.156 164.917 104.049C164.789 97.3381 160.018 87.818 149.651 81.6641C144.966 78.8874 144.483 70.6001 144.044 63.2885C143.711 57.5313 143.39 52.0851 141.138 50.2197C140.787 49.9378 140.38 49.733 139.944 49.6185C139.508 49.504 139.053 49.4823 138.608 49.555C138.571 49.561 138.532 49.5593 138.496 49.5501C138.459 49.5408 138.424 49.5241 138.394 49.501C138.364 49.4779 138.339 49.4489 138.321 49.4158C138.302 49.3827 138.29 49.3461 138.287 49.3084C138.28 49.2349 138.302 49.1618 138.348 49.104C138.394 49.0463 138.46 49.0082 138.533 48.9975C139.055 48.9152 139.589 48.9422 140.1 49.0769C140.611 49.2117 141.089 49.4511 141.503 49.7801C143.926 51.8064 144.258 57.3705 144.601 63.2563C145.03 70.4286 145.512 78.5551 149.962 81.1817C159.246 86.6923 165.346 95.6657 165.496 104.039C165.582 108.327 163.952 111.801 160.918 113.752C160.877 113.78 160.829 113.795 160.779 113.795Z" fill="#263238"/>
<path d="M81.9588 123.915L78.5496 125.545L70.3266 123.744C69.3823 123.535 68.5339 123.018 67.9144 122.275L66.1133 120.131C65.713 119.651 65.4937 119.046 65.4937 118.421C65.4937 117.796 65.713 117.191 66.1133 116.711L67.9894 114.502C68.4377 113.972 69.0756 113.638 69.7668 113.572C70.4579 113.506 71.1475 113.713 71.6882 114.149L76.2338 117.794C76.2338 117.794 81.7337 119.531 81.9588 123.915Z" fill="#FF8B7B"/>
<path d="M111.313 353.311L104.848 353.322L103.755 328.996L114.647 329.264L111.313 353.311Z" fill="#FF8B7B"/>
<path d="M100.056 143.406C100.056 143.406 99.4875 210.948 98.0616 240.302C98.0079 241.176 98.0079 242.054 98.0616 242.928C100.206 272.379 103.722 328.996 103.722 328.996L114.69 329.275C114.69 329.275 124.253 284.065 118.324 243.111C127.834 196.796 132.969 155.467 124.349 143.406H100.056Z" fill="#263238"/>
<path d="M102.672 325.587C102.785 328.039 103.032 330.484 103.412 332.909C103.436 332.997 103.481 333.077 103.542 333.144C103.604 333.211 103.68 333.263 103.765 333.295C108.869 335.289 113.972 334.978 114.39 334.003C114.808 333.027 115.687 327.849 116.041 325.887C116.058 325.801 116.054 325.713 116.031 325.628C116.008 325.544 115.966 325.466 115.908 325.401C115.85 325.335 115.777 325.284 115.696 325.251C115.615 325.219 115.528 325.205 115.44 325.211C113.296 325.329 106.864 325.608 103.337 324.986C103.251 324.971 103.164 324.976 103.081 325C102.998 325.024 102.922 325.066 102.858 325.124C102.794 325.182 102.744 325.254 102.711 325.334C102.679 325.414 102.666 325.501 102.672 325.587Z" fill="#315B99"/>
<path d="M118.431 170.219C115.108 181.497 118.346 217.723 120.082 234.448C122.452 222.366 124.467 210.744 125.958 200.034L118.431 170.219Z" fill="black"/>
<path d="M104.119 350.17H112.535C112.712 350.161 112.885 350.221 113.019 350.337C113.153 350.452 113.237 350.616 113.253 350.792L114.1 357.685C114.107 357.899 114.071 358.112 113.994 358.312C113.917 358.511 113.8 358.693 113.651 358.846C113.502 358.999 113.323 359.121 113.126 359.203C112.928 359.286 112.717 359.327 112.503 359.326C108.804 359.261 107.024 359.058 102.35 359.058C99.4767 359.058 97.7292 359.358 93.7732 359.358C89.8172 359.358 89.7958 355.552 91.4682 355.209C98.9729 353.644 99.927 352.786 102.532 350.749C102.981 350.384 103.54 350.18 104.119 350.17Z" fill="#263238"/>
<path d="M103.24 88.3113C102.023 88.0568 100.755 88.2939 99.7129 88.9708C98.6704 89.6476 97.9381 90.7094 97.6756 91.9243C96.775 96.1269 95.7994 100.426 94.7917 104.65C93.7839 108.874 92.6475 113.077 91.4039 117.129C90.7713 119.145 90.0852 121.128 89.324 122.972C88.9706 123.83 88.5697 124.667 88.1233 125.481C88.0589 125.577 88.0053 125.684 87.941 125.792C87.2048 125.479 86.4886 125.121 85.7968 124.72C84.1351 123.648 82.3554 122.404 80.6722 121.171L80.5543 121.085C80.1182 120.765 79.5851 120.604 79.0444 120.629C78.5037 120.655 77.9884 120.866 77.5849 121.227C77.1813 121.588 76.9142 122.076 76.8282 122.611C76.7423 123.145 76.8428 123.693 77.1129 124.162C78.294 126.28 79.7346 128.243 81.4013 130.005C82.317 130.989 83.338 131.87 84.446 132.632C85.1491 133.098 85.9048 133.479 86.6974 133.768C87.8815 134.212 89.1653 134.32 90.4068 134.079C91.2292 133.911 92.0093 133.579 92.7011 133.103C93.0253 132.871 93.3301 132.613 93.6124 132.331C93.7041 132.24 93.79 132.144 93.8697 132.042L94.0734 131.806C94.5582 131.234 95.0024 130.628 95.4028 129.994C96.095 128.905 96.718 127.774 97.2682 126.606C98.3403 124.398 99.1658 122.222 99.9484 120.045C101.503 115.693 102.714 111.329 103.872 106.966C104.462 104.822 104.944 102.592 105.459 100.394C105.974 98.196 106.435 96.0197 106.842 93.7468C107.062 92.5507 106.81 91.3157 106.138 90.3019C105.466 89.288 104.427 88.5745 103.24 88.3113Z" fill="#FF8B7B"/>
<path d="M96.7001 134.24C96.7001 137.006 139.648 137.542 139.648 133.896L117.702 128.3L96.7001 134.24Z" fill="#263238"/>
<path d="M104.591 86.4993C115.916 84.608 127.485 84.7241 138.769 86.8423C139.431 86.9464 140.064 87.185 140.63 87.5433C141.195 87.9016 141.681 88.3721 142.058 88.9257C142.435 89.4792 142.694 90.1042 142.82 90.7619C142.946 91.4195 142.935 92.0961 142.79 92.7496C136.722 119.949 137.065 129.083 137.654 143.406H100.067C98.1798 119.52 97.1935 105.883 96.9362 98.1422C96.7432 92.2457 98.748 87.3677 104.591 86.4993Z" fill="#FF8B7B"/>
<path d="M138.662 94.4007C138.421 98.1959 138.924 102.002 140.141 105.604C140.613 103.02 141.213 100.244 141.814 97.2096L138.662 94.4007Z" fill="black"/>
<path d="M126.472 66.6441C125.4 72.0903 124.328 82.0608 128.145 85.6952C128.145 85.6952 126.654 91.2165 116.545 91.2165C105.427 91.2165 111.184 85.6952 111.184 85.6952C117.252 84.2479 117.102 79.7451 116.041 75.5103L126.472 66.6441Z" fill="#FF8B7B"/>
<path d="M122.184 70.2679L116.041 75.5103C116.3 76.494 116.472 77.4986 116.555 78.5123C118.882 78.18 122.066 75.6284 122.312 73.2054C122.444 72.2264 122.4 71.2317 122.184 70.2679Z" fill="black"/>
<path d="M106.681 59.6542C109.319 68.3596 110.251 72.1119 115.794 75.5855C124.135 80.8173 134.256 75.6605 134.277 66.344C134.277 57.9496 129.989 45.1059 120.469 43.6478C118.378 43.3152 116.237 43.5226 114.249 44.2505C112.261 44.9783 110.493 46.2023 109.111 47.8062C107.73 49.4101 106.781 51.3406 106.356 53.4143C105.931 55.488 106.043 57.636 106.681 59.6542Z" fill="#FF8B7B"/>
<path d="M107.636 65.7115C111.871 66.0224 113.672 59.2146 111.613 55.4623C109.555 51.7099 101.975 59.3003 107.636 65.7115Z" fill="#263238"/>
<path d="M105.32 50.5736C118.699 57.7566 126.762 44.3126 133.773 51.4527C130.332 41.5144 111.399 37.2689 105.32 50.5736Z" fill="#263238"/>
<path d="M129.013 65.272C125.393 64.5957 121.726 64.2014 118.046 64.0927C118.914 66.1189 120.619 67.845 124.768 68.0487C128.917 68.2524 129.013 65.272 129.013 65.272Z" fill="white"/>
<path d="M174.877 337.283L168.391 339.267L158.924 319.433L168.906 316.699L174.877 337.283Z" fill="#FF8B7B"/>
<path d="M166.987 338.655L174.084 334.367C174.217 334.283 174.376 334.25 174.531 334.273C174.687 334.297 174.829 334.376 174.931 334.496L179.702 340.049C179.817 340.188 179.902 340.35 179.949 340.524C179.997 340.698 180.006 340.88 179.977 341.059C179.947 341.237 179.88 341.406 179.778 341.556C179.677 341.706 179.545 341.832 179.391 341.925C176.7 343.491 176.175 343.726 172.84 345.881C170.825 347.2 167.994 350.77 165.207 352.603C162.42 354.437 160.511 351.917 161.337 350.738C163.746 347.506 165.395 343.771 166.161 339.813C166.212 339.574 166.311 339.348 166.453 339.148C166.595 338.949 166.777 338.781 166.987 338.655Z" fill="#263238"/>
<path d="M110.391 143.406C110.391 143.406 124.21 214.068 129.42 242.039C134.834 271.135 158.946 319.422 158.946 319.422L168.948 316.678C168.948 316.678 155.247 265.067 148.857 239.487C147.614 193.173 149.093 155.446 137.675 143.385L110.391 143.406Z" fill="#263238"/>
<path d="M155.419 314.105C156.457 316.309 157.613 318.457 158.881 320.537C158.941 320.607 159.014 320.664 159.098 320.703C159.181 320.742 159.272 320.762 159.364 320.762C164.832 320.666 169.442 318.446 169.452 317.385C169.452 316.495 168.316 311.188 167.898 309.248C167.881 309.162 167.844 309.081 167.79 309.011C167.737 308.942 167.668 308.885 167.589 308.847C167.51 308.809 167.423 308.789 167.335 308.79C167.248 308.79 167.161 308.811 167.083 308.851C165.142 309.773 159.342 312.464 155.804 313.236C155.711 313.251 155.624 313.289 155.549 313.347C155.474 313.405 155.415 313.48 155.377 313.566C155.339 313.652 155.322 313.747 155.33 313.841C155.337 313.935 155.368 314.025 155.419 314.105Z" fill="#315B99"/>
<path d="M121.337 58.6465C121.508 59.3755 122.034 59.858 122.505 59.7186C122.977 59.5792 123.213 58.936 123.042 58.2177C122.87 57.4994 122.355 57.0062 121.884 57.1456C121.412 57.2849 121.165 57.9282 121.337 58.6465Z" fill="#263238"/>
<path d="M129.474 56.6953C129.645 57.4136 130.171 57.9068 130.642 57.7674C131.114 57.628 131.35 56.9848 131.179 56.2558C131.007 55.5267 130.492 55.0443 130.021 55.1837C129.549 55.323 129.302 55.9985 129.474 56.6953Z" fill="#263238"/>
<path d="M129.817 55.3014L131.425 54.3902C131.425 54.3902 130.868 55.9554 129.817 55.3014Z" fill="#263238"/>
<path d="M127.276 58.6141C128.303 60.1039 129.534 61.4426 130.932 62.5916C130.624 62.9363 130.245 63.2104 129.821 63.3954C129.398 63.5804 128.939 63.672 128.477 63.6637L127.276 58.6141Z" fill="#FF5652"/>
<path d="M105.899 67.3517C106.884 68.8126 108.406 69.8258 110.134 70.1713C112.428 70.6002 113.35 68.5096 112.567 66.4404C111.838 64.5964 109.78 62.1521 107.561 62.6345C107.078 62.751 106.631 62.9865 106.262 63.3196C105.893 63.6527 105.613 64.0728 105.448 64.5416C105.283 65.0105 105.238 65.5131 105.317 66.0039C105.395 66.4947 105.596 66.9581 105.899 67.3517Z" fill="#FF8B7B"/>
<path d="M104.366 50.5736C108.568 44.2376 114.358 48.4295 115.387 49.8661C116.416 51.3027 104.988 62.4417 109.876 73.2162C104.087 70.268 99.4127 60.0938 104.366 50.5736Z" fill="#263238"/>
<path d="M117.981 57.9602C118.072 57.9441 118.154 57.8986 118.216 57.8307C118.278 57.7629 118.316 57.6766 118.324 57.585C118.506 55.5802 120.747 54.2722 120.769 54.2615C120.867 54.2033 120.938 54.1092 120.968 53.9992C120.998 53.8892 120.984 53.7718 120.929 53.6719C120.902 53.6222 120.864 53.5787 120.819 53.5437C120.774 53.5087 120.723 53.483 120.668 53.468C120.613 53.453 120.556 53.4491 120.5 53.4565C120.443 53.4639 120.389 53.4824 120.34 53.511C120.222 53.5754 117.681 55.0549 117.456 57.4992C117.45 57.5564 117.456 57.6142 117.472 57.6692C117.489 57.7241 117.517 57.7752 117.554 57.8192C117.591 57.8632 117.637 57.8993 117.688 57.9254C117.739 57.9514 117.795 57.9669 117.852 57.971C117.896 57.9779 117.94 57.9742 117.981 57.9602Z" fill="#263238"/>
<path d="M131.726 52.3211C131.821 52.3376 131.92 52.3211 132.005 52.2743C132.09 52.2275 132.157 52.1531 132.194 52.0634C132.232 51.9737 132.237 51.874 132.211 51.7806C132.184 51.6871 132.126 51.6056 132.047 51.5492C131.514 51.111 130.882 50.8081 130.207 50.6663C129.531 50.5244 128.831 50.5478 128.166 50.7344C128.11 50.7511 128.059 50.7792 128.014 50.817C127.97 50.8548 127.934 50.9014 127.909 50.9539C127.884 51.0064 127.87 51.0635 127.868 51.1218C127.866 51.18 127.876 51.2379 127.898 51.2919C127.916 51.3455 127.945 51.395 127.982 51.4376C128.02 51.4801 128.065 51.5149 128.116 51.5398C128.167 51.5647 128.222 51.5793 128.278 51.5828C128.335 51.5862 128.392 51.5785 128.445 51.5599C128.973 51.4203 129.527 51.4088 130.06 51.5263C130.593 51.6438 131.091 51.8868 131.511 52.2353C131.576 52.2792 131.649 52.3084 131.726 52.3211Z" fill="#263238"/>
<path d="M158.528 118.716C158.528 118.437 158.474 118.137 158.42 117.826L158.335 117.354L158.26 117.033C158.152 116.647 158.056 116.229 157.938 115.875C157.079 113.193 155.969 110.598 154.625 108.124C153.403 105.744 152.063 103.481 150.68 101.262C147.925 96.8023 145.03 92.5783 141.846 88.3971C141.065 87.5207 139.984 86.9686 138.816 86.8496C137.648 86.7306 136.478 87.0534 135.536 87.7543C134.595 88.4552 133.95 89.4834 133.729 90.6362C133.507 91.7891 133.726 92.983 134.341 93.9827V94.0363C137.204 98.0245 140.12 102.152 142.854 106.247C144.204 108.317 145.512 110.396 146.745 112.466C147.92 114.411 148.945 116.443 149.812 118.544C149.919 118.78 149.972 118.995 150.047 119.209L150.101 119.348C150.101 119.348 150.101 119.348 150.101 119.413C150.148 119.708 150.148 120.008 150.101 120.303C149.974 121.295 149.748 122.272 149.426 123.219C148.667 125.454 147.764 127.639 146.724 129.758C145.652 131.967 144.58 134.175 143.336 136.352C142.092 138.528 140.902 140.747 139.68 142.902C139.398 143.403 139.309 143.989 139.432 144.551C139.554 145.112 139.879 145.609 140.345 145.945C140.81 146.282 141.384 146.436 141.955 146.377C142.527 146.318 143.057 146.05 143.443 145.625C146.94 141.735 150.127 137.577 152.974 133.189C154.466 130.896 155.771 128.487 156.877 125.985C157.501 124.572 157.979 123.099 158.303 121.589C158.492 120.644 158.567 119.679 158.528 118.716Z" fill="#FF8B7B"/>
<path d="M121.68 57.2313L123.299 56.32C123.299 56.32 122.731 57.8852 121.68 57.2313Z" fill="#263238"/>
<path d="M97.9865 95.4621C98.6862 92.6385 99.5781 89.866 100.656 87.1641C102.38 86.6715 104.14 86.3131 105.92 86.092C109.524 89.2912 112.495 93.1388 114.679 97.4347C119.493 92.5782 128.681 87.668 134.288 85.8669C136.199 85.7401 138.117 85.9802 139.937 86.5744C136.121 98.6248 132.229 110.761 139.133 113.87C139.015 119.595 139.348 126.735 139.627 133.875C133.098 133.168 107.196 131.924 96.6786 134.218C96.1425 126.939 95.9388 120.742 95.9817 115.457C91.093 109.228 95.9602 100.726 97.9865 95.4621Z" fill="#315B99"/>
<path d="M128.306 92.2029C127.105 91.6669 125.819 91.0558 124.511 90.3589L123.932 90.6805C125.368 91.4525 126.773 92.1279 128.07 92.7175C129.013 93.1464 129.968 93.5645 130.932 93.9826C132.937 94.8617 134.953 95.7623 136.925 96.7379C136.979 96.5556 137.022 96.3734 137.076 96.1804C135.124 95.2262 133.13 94.3364 131.158 93.468L128.306 92.2029Z" fill="white"/>
<path d="M119.686 110.761C116.523 108.617 113.253 106.344 109.962 104.275C105.936 101.581 101.526 99.5098 96.8823 98.1316L96.6572 98.6569C101.278 100.015 105.664 102.072 109.662 104.757C112.942 106.816 116.212 109.045 119.364 111.19C125.689 115.478 132.229 120.002 139.251 123.315C139.251 123.101 139.251 122.897 139.251 122.693C132.326 119.445 125.915 115.038 119.686 110.761Z" fill="white"/>
<path d="M139.134 116.454V115.842L138.158 115.424C124.221 109.41 109.748 103.192 98.748 92.7067C98.6837 92.9104 98.6301 93.1141 98.5658 93.3178C109.619 103.749 124.007 109.946 137.933 115.939L139.134 116.454Z" fill="white"/>
<path d="M122.956 95.805C127.04 98.4638 131.221 101.165 135.531 103.663C135.531 103.46 135.585 103.267 135.606 103.063C131.382 100.608 127.276 97.9492 123.266 95.3333L119.954 93.1891L119.461 93.5429L122.956 95.805Z" fill="white"/>
<path d="M106.006 124.237C102.345 122.472 98.9691 120.166 95.9929 117.397C95.9929 117.654 95.9929 117.922 95.9929 118.18C98.9196 120.815 102.204 123.024 105.749 124.741C108.622 126.178 111.635 127.421 114.551 128.633C117.767 129.962 121.101 131.356 124.253 133.007H125.518C122.035 131.172 118.457 129.526 114.797 128.075C111.871 126.939 108.858 125.695 106.006 124.237Z" fill="white"/>
<path d="M106.81 133.125C102.85 131.324 99.2525 128.813 96.1965 125.716C96.1965 126.006 96.1965 126.295 96.1965 126.585C98.971 129.278 102.16 131.508 105.642 133.189L106.81 133.125Z" fill="white"/>
<path d="M136.528 124.366C131.736 121.9 126.633 119.852 121.701 117.88C113.768 114.663 105.566 111.447 98.5871 106.322C97.2807 105.39 96.0542 104.35 94.9206 103.213C94.8563 103.417 94.7812 103.621 94.7276 103.824C95.8226 104.9 97.0021 105.886 98.2548 106.773C105.298 111.908 113.532 115.21 121.498 118.394C126.419 120.367 131.511 122.404 136.271 124.827C137.339 125.368 138.374 125.974 139.37 126.639V125.952C138.45 125.375 137.502 124.846 136.528 124.366Z" fill="white"/>
<path d="M111.517 121.021C106.553 117.644 101.417 114.149 96.1213 111.125C95.406 110.72 94.6646 110.361 93.9021 110.053C93.9021 110.257 93.9021 110.471 93.9664 110.675C94.6096 110.965 95.2422 111.308 95.8426 111.651C101.117 114.663 106.242 118.158 111.195 121.525C117.268 125.821 123.586 129.758 130.117 133.318L131.457 133.382C124.55 129.698 117.889 125.569 111.517 121.021Z" fill="white"/>
<path d="M145.845 141.819L142.382 140.319L134.223 142.463C133.288 142.709 132.46 143.255 131.865 144.017L130.149 146.258C129.765 146.755 129.569 147.371 129.594 147.999C129.62 148.626 129.866 149.225 130.289 149.689L132.24 151.833C132.706 152.346 133.354 152.658 134.047 152.702C134.739 152.746 135.422 152.519 135.949 152.069L140.377 148.263C140.377 148.263 145.684 145.679 145.845 141.819Z" fill="#FF8B7B"/>
<path d="M140.409 140.501C140.549 142.387 141.685 145.582 143.368 146.933C144.312 146.633 145.105 145.153 145.105 145.153C143.356 143.429 142.248 141.16 141.964 138.721C141.287 139.154 140.748 139.771 140.409 140.501Z" fill="#315B99"/>
<path d="M81.7231 122.65C82.6773 118.876 78.9571 117.129 77.3061 112.498C76.695 110.782 75.5264 111.651 75.4514 113.516C75.5382 115.764 76.0246 117.978 76.888 120.056L81.7231 122.65Z" fill="#FF8B7B"/>
<path d="M79.0963 119.949L72.8782 121.257C72.5316 121.31 72.1769 121.255 71.8636 121.097C71.5503 120.939 71.2941 120.688 71.1307 120.378L63.6796 105.54C63.6023 105.413 63.5571 105.269 63.5481 105.121C63.539 104.973 63.5663 104.824 63.6276 104.689C63.6889 104.554 63.7823 104.436 63.8998 104.345C64.0172 104.254 64.1551 104.193 64.3014 104.167L70.5196 102.87C70.8651 102.814 71.2196 102.867 71.5331 103.023C71.8466 103.179 72.1033 103.429 72.2671 103.739L79.7181 118.576C79.7982 118.703 79.8456 118.847 79.8561 118.996C79.8665 119.145 79.8397 119.294 79.778 119.431C79.7163 119.567 79.6217 119.685 79.5027 119.776C79.3837 119.866 79.244 119.926 79.0963 119.949Z" fill="#315B99"/>
<path d="M71.4741 99.922C71.4369 99.9208 71.4004 99.9118 71.3669 99.8957C71.3334 99.8796 71.3036 99.8568 71.2794 99.8285C71.2552 99.8003 71.2371 99.7673 71.2263 99.7318C71.2156 99.6962 71.2123 99.6587 71.2168 99.6218L71.3776 97.4776C71.3803 97.441 71.3903 97.4052 71.4068 97.3724C71.4234 97.3396 71.4463 97.3104 71.4742 97.2865C71.5021 97.2626 71.5345 97.2445 71.5694 97.2331C71.6043 97.2217 71.6412 97.2174 71.6778 97.2203C71.7508 97.2284 71.8179 97.2639 71.8657 97.3196C71.9135 97.3753 71.9383 97.4472 71.9351 97.5205L71.7743 99.6647C71.7716 99.7013 71.7617 99.7371 71.7451 99.7699C71.7285 99.8027 71.7056 99.8319 71.6777 99.8558C71.6498 99.8797 71.6175 99.8978 71.5825 99.9092C71.5476 99.9206 71.5107 99.9249 71.4741 99.922Z" fill="#315B99"/>
<path d="M73.6395 100.748C73.5667 100.744 73.4978 100.714 73.4466 100.662C73.3961 100.608 73.3679 100.537 73.3679 100.463C73.3679 100.39 73.3961 100.319 73.4466 100.265L77.2203 96.4914C77.274 96.4408 77.345 96.4127 77.4187 96.4127C77.4924 96.4127 77.5633 96.4408 77.617 96.4914C77.6446 96.5165 77.6667 96.5471 77.6818 96.5813C77.6969 96.6154 77.7048 96.6523 77.7048 96.6897C77.7048 96.727 77.6969 96.764 77.6818 96.7981C77.6667 96.8323 77.6446 96.8629 77.617 96.888L73.8432 100.651C73.8175 100.68 73.7862 100.703 73.7512 100.72C73.7162 100.737 73.6782 100.746 73.6395 100.748Z" fill="#315B99"/>
<path d="M74.4867 102.913C74.4217 102.912 74.3589 102.89 74.3083 102.849C74.2578 102.808 74.2224 102.751 74.208 102.688C74.1955 102.615 74.2122 102.541 74.2543 102.481C74.2965 102.421 74.3608 102.379 74.4331 102.366L78.3248 101.551C78.3973 101.536 78.4731 101.55 78.5354 101.59C78.5977 101.63 78.6415 101.693 78.6572 101.766C78.6728 101.838 78.659 101.914 78.6188 101.977C78.5786 102.039 78.5153 102.083 78.4427 102.098L74.5403 102.913H74.4867Z" fill="#315B99"/>
<path d="M78.4104 120.946L72.2029 122.254C71.8561 122.307 71.5011 122.253 71.1865 122.097C70.8718 121.942 70.6127 121.693 70.4447 121.385L63.0044 106.547C62.9243 106.421 62.8769 106.277 62.8665 106.128C62.856 105.979 62.8828 105.829 62.9445 105.693C63.0062 105.557 63.1009 105.438 63.2199 105.348C63.3389 105.258 63.4785 105.198 63.6262 105.175L69.8336 103.867C70.1804 103.813 70.5354 103.868 70.8501 104.023C71.1648 104.179 71.4238 104.427 71.5919 104.736L79.0429 119.573C79.1203 119.701 79.1652 119.845 79.1737 119.994C79.1822 120.143 79.1539 120.292 79.0915 120.428C79.029 120.563 78.9343 120.681 78.8155 120.772C78.6967 120.862 78.5576 120.922 78.4104 120.946Z" fill="#263238"/>
<path d="M66.1454 116.668L67.3676 115.21C67.5278 115.015 67.7321 114.862 67.9634 114.762C68.1948 114.662 68.4467 114.619 68.6982 114.635C68.9497 114.652 69.1935 114.728 69.4096 114.858C69.6257 114.988 69.8077 115.167 69.9406 115.382L72.0848 118.726C72.521 119.404 72.7574 120.191 72.7669 120.997C72.7764 121.803 72.5586 122.595 72.1384 123.283L71.9562 123.583L66.1454 116.668Z" fill="#FF8B7B"/>
<path d="M7.72701 18.3894L6.79428 17.7891C10.6388 11.8139 15.8169 6.81196 21.9215 3.17644L22.479 4.16276C16.5335 7.70801 11.4854 12.5763 7.72701 18.3894Z" fill="#315B99"/>
<path d="M1.34797 34.8355L0.275879 34.6425C0.832658 31.3546 1.75687 28.1396 3.03116 25.058L4.10325 25.4761C2.84425 28.4854 1.92027 31.6241 1.34797 34.8355Z" fill="#315B99"/>
<path d="M86.6436 42.3186C86.6565 33.8516 84.086 25.5822 79.2753 18.6146C74.4646 11.647 67.6427 6.31284 59.7206 3.32454C51.7984 0.33623 43.1532 -0.164025 34.9392 1.89057C26.7252 3.94516 19.3336 8.45681 13.7513 14.823C8.16909 21.1893 4.66193 29.107 3.6982 37.519C2.73448 45.931 4.36006 54.4368 8.35787 61.9006C12.3557 69.3644 18.5354 75.4308 26.0719 79.2899C33.6083 83.1489 42.1428 84.6169 50.5355 83.4977L65.2124 94.5403L68.4287 76.6578C74.0361 72.8545 78.6276 67.7369 81.8026 61.7513C84.9776 55.7657 86.6396 49.0941 86.6436 42.3186Z" fill="#315B99"/>
<path d="M33.3608 55.7413C33.21 55.742 33.0632 55.6931 32.9431 55.602C32.8229 55.5109 32.7361 55.3828 32.6961 55.2374L25.3201 30.1612C25.2929 30.0617 25.2875 29.9576 25.3041 29.8559C25.3208 29.7541 25.3591 29.6571 25.4166 29.5715C25.4743 29.486 25.5505 29.4147 25.6396 29.3627C25.7287 29.3107 25.8284 29.2795 25.9312 29.2714L63.2186 25.8728C63.3183 25.8624 63.4191 25.8743 63.5137 25.9077C63.6083 25.941 63.6942 25.9951 63.7653 26.0658C63.8387 26.1358 63.8959 26.2211 63.9329 26.3155C63.97 26.4099 63.9859 26.5113 63.9797 26.6126L62.2751 52.5143C62.2634 52.6803 62.1936 52.8369 62.0779 52.9565C61.9622 53.0761 61.8081 53.1511 61.6426 53.1683L33.4251 55.7306L33.3608 55.7413ZM26.9282 30.5793L33.8968 54.294L60.9672 51.8282L62.5753 27.3309L26.9282 30.5793Z" fill="white"/>
<path d="M25.9952 30.6543C25.8869 30.6551 25.7799 30.6303 25.683 30.5819C25.5861 30.5334 25.502 30.4627 25.4377 30.3755L22.4787 26.3552L16.7109 26.8805C16.5265 26.8955 16.3436 26.8377 16.2013 26.7195C16.059 26.6012 15.9687 26.432 15.9497 26.248C15.9347 26.0636 15.9925 25.8807 16.1108 25.7384C16.229 25.5961 16.3982 25.5058 16.5822 25.4868L22.7468 24.9293C22.8654 24.9207 22.9843 24.9416 23.0928 24.9902C23.2014 25.0389 23.2961 25.1137 23.3686 25.208L26.5849 29.55C26.6389 29.623 26.6779 29.706 26.6997 29.7942C26.7214 29.8824 26.7254 29.9741 26.7114 30.0638C26.6975 30.1536 26.6658 30.2397 26.6183 30.3171C26.5708 30.3945 26.5085 30.4618 26.4348 30.5149C26.3105 30.6141 26.1539 30.6637 25.9952 30.6543Z" fill="white"/>
<path d="M38.1421 66.0226C37.4626 66.0218 36.798 65.8236 36.2291 65.452C35.6602 65.0804 35.2116 64.5515 34.9377 63.9297C34.6639 63.3078 34.5767 62.6198 34.6867 61.9492C34.7967 61.2787 35.0992 60.6546 35.5574 60.1529C36.0156 59.6511 36.6097 59.2933 37.2675 59.123C37.9253 58.9527 38.6184 58.9772 39.2625 59.1936C39.9067 59.41 40.474 59.8089 40.8956 60.3418C41.3172 60.8747 41.5748 61.5186 41.6371 62.1952C41.6797 62.657 41.6299 63.1227 41.4907 63.5651C41.3515 64.0075 41.1257 64.4178 40.8263 64.772C40.527 65.1262 40.1601 65.4173 39.7471 65.6284C39.3342 65.8394 38.8833 65.9661 38.4208 66.0011L38.1421 66.0226ZM37.9491 60.3941C37.5238 60.4262 37.1177 60.5844 36.7827 60.8485C36.4478 61.1126 36.1993 61.4707 36.0689 61.8768C35.9385 62.2829 35.9322 62.7187 36.0508 63.1285C36.1694 63.5382 36.4076 63.9032 36.7347 64.1769C37.0619 64.4506 37.4633 64.6204 37.8875 64.6648C38.3118 64.7091 38.7396 64.6259 39.1163 64.4258C39.493 64.2257 39.8015 63.9178 40.0022 63.5415C40.203 63.1651 40.287 62.7375 40.2434 62.3131C40.1886 61.7935 39.946 61.3117 39.561 60.9583C39.176 60.6049 38.6753 60.4043 38.1528 60.3941H37.9491Z" fill="white"/>
<path d="M57.2148 64.2859C56.3955 64.2853 55.6025 63.997 54.9742 63.4711C54.2632 62.8728 53.8171 62.018 53.7328 61.0925C53.6485 60.1671 53.9328 59.2458 54.5239 58.5288C54.9678 57.9955 55.56 57.606 56.2255 57.4095C56.891 57.2131 57.5998 57.2185 58.2622 57.4251C58.9246 57.6318 59.5107 58.0303 59.9464 58.5703C60.3822 59.1103 60.6479 59.7675 60.7099 60.4585C60.751 60.9201 60.7002 61.3852 60.5604 61.827C60.4207 62.2688 60.1947 62.6785 59.8956 63.0324C59.5965 63.3863 59.2302 63.6774 58.8179 63.8889C58.4056 64.1004 57.9555 64.228 57.4936 64.2645L57.2148 64.2859ZM57.2148 58.6574H57.0219C56.6129 58.7086 56.2272 58.8765 55.9112 59.1411C55.5952 59.4057 55.3621 59.7559 55.2399 60.1495C55.1178 60.5432 55.1117 60.9638 55.2223 61.3608C55.333 61.7579 55.5558 62.1146 55.864 62.3883C56.0761 62.5677 56.3219 62.7029 56.5871 62.7857C56.8522 62.8686 57.1313 62.8975 57.4078 62.8708C57.9635 62.8137 58.475 62.542 58.8334 62.1135C59.1919 61.685 59.3689 61.1335 59.3269 60.5765C59.2716 60.0532 59.0259 59.5685 58.6365 59.2146C58.247 58.8607 57.741 58.6624 57.2148 58.6574Z" fill="white"/>
<path d="M43.8349 48.2903C43.4429 48.2837 43.0648 48.1438 42.7628 47.8936L36.6841 42.8334C36.4008 42.5306 36.2368 42.1354 36.2224 41.7211C36.208 41.3067 36.3441 40.9011 36.6057 40.5794C36.8673 40.2576 37.2365 40.0416 37.6451 39.9711C38.0537 39.9006 38.474 39.9805 38.8282 40.196L43.5883 44.152L53.3873 32.359C53.688 32.0654 54.0861 31.8925 54.506 31.873C54.9259 31.8535 55.3383 31.9889 55.6649 32.2534C55.9916 32.5179 56.2098 32.8931 56.278 33.3078C56.3463 33.7226 56.26 34.1479 56.0353 34.5032L45.1536 47.6792C44.9924 47.872 44.7906 48.0267 44.5626 48.1323C44.3347 48.238 44.0862 48.2919 43.8349 48.2903Z" fill="white"/>
</svg>
