<svg width="500" height="500" viewBox="0 0 500 500" fill="none" xmlns="http://www.w3.org/2000/svg">
<g clip-path="url(#clip0_351_314)">
<path d="M182.614 72.2499C182.614 72.2499 106.844 110.85 69.0544 170.33C31.2644 229.81 34.2544 306.33 80.1744 363.13C126.094 419.93 213.864 412.47 287.354 448.45C360.844 484.43 441.924 477.02 476.674 400.79C511.424 324.56 459.024 296.07 450.024 207.85C441.024 119.63 361.494 -9.55008 182.614 72.2499Z" fill="#315B99"/>
<path opacity="0.7" d="M182.614 72.2499C182.614 72.2499 106.844 110.85 69.0544 170.33C31.2644 229.81 34.2544 306.33 80.1744 363.13C126.094 419.93 213.864 412.47 287.354 448.45C360.844 484.43 441.924 477.02 476.674 400.79C511.424 324.56 459.024 296.07 450.024 207.85C441.024 119.63 361.494 -9.55008 182.614 72.2499Z" fill="white"/>
<path d="M97.1641 86.3799C97.1641 87.614 96.7981 88.8205 96.1125 89.8467C95.4268 90.8728 94.4522 91.6726 93.312 92.1449C92.1718 92.6172 90.9172 92.7408 89.7067 92.5C88.4963 92.2592 87.3844 91.6649 86.5117 90.7922C85.6391 89.9196 85.0448 88.8077 84.804 87.5973C84.5632 86.3868 84.6868 85.1322 85.1591 83.9919C85.6314 82.8517 86.4312 81.8772 87.4573 81.1915C88.4835 80.5059 89.6899 80.1399 90.9241 80.1399C92.579 80.1399 94.1662 80.7973 95.3364 81.9675C96.5067 83.1378 97.1641 84.7249 97.1641 86.3799Z" stroke="#808080" stroke-miterlimit="10"/>
<path d="M124.424 86.3301H57.4243L77.4243 72.3301H104.424L124.424 86.3301Z" fill="#263238" stroke="#263238" stroke-linecap="round" stroke-linejoin="round"/>
<path d="M96.2443 64.01H85.6143V78.01H96.2443V64.01Z" fill="#263238" stroke="#263238" stroke-linecap="round" stroke-linejoin="round"/>
<path d="M90.6943 64.88V33" stroke="#263238" stroke-linecap="round" stroke-linejoin="round"/>
<path d="M339.404 74.2501V58.6401H353.964V171.76" stroke="#808080" stroke-miterlimit="10"/>
<path d="M339.404 312.82V78.4902" stroke="#808080" stroke-miterlimit="10"/>
<path d="M353.964 176V436.16H339.404V318.6" stroke="#808080" stroke-miterlimit="10"/>
<path d="M263.424 65.4901V58.6401H277.984V64.2401" stroke="#808080" stroke-miterlimit="10"/>
<path d="M263.424 187.17V182.58" stroke="#808080" stroke-miterlimit="10"/>
<path d="M277.984 422.67V436.16H263.424V372.55" stroke="#808080" stroke-miterlimit="10"/>
<path d="M277.984 372.3V417.66" stroke="#808080" stroke-miterlimit="10"/>
<path d="M115.544 409.56V372.55" stroke="#808080" stroke-miterlimit="10"/>
<path d="M130.104 372.3V436.16H115.544V415.73" stroke="#808080" stroke-miterlimit="10"/>
<path d="M277.984 181.33V186.92" stroke="#808080" stroke-miterlimit="10"/>
<path d="M220.784 182H339.454V166H69.4541" stroke="#808080" stroke-miterlimit="10"/>
<path d="M127.124 182H216.924" stroke="#808080" stroke-miterlimit="10"/>
<path d="M114.794 182H123.274" stroke="#808080" stroke-miterlimit="10"/>
<path d="M69.4541 182H110.164" stroke="#808080" stroke-miterlimit="10"/>
<path d="M330.754 333.44H300.664V356.73H330.754V333.44Z" stroke="#808080" stroke-miterlimit="10"/>
<path d="M257.464 333.44H227.374V356.73H257.464V333.44Z" stroke="#808080" stroke-miterlimit="10"/>
<path d="M184.164 333.44H97.1343V356.73H184.164V333.44Z" stroke="#808080" stroke-miterlimit="10"/>
<path d="M184.164 333.44H158.784V356.73H184.164V333.44Z" stroke="#808080" stroke-miterlimit="10"/>
<path d="M333.274 328.76H83.4443V333.42H333.274V328.76Z" stroke="#808080" stroke-miterlimit="10"/>
<path d="M333.264 328.76H148.164V333.42H333.264V328.76Z" stroke="#808080" stroke-miterlimit="10"/>
<path d="M175.574 325.33H86.7539V328.89H175.574V325.33Z" stroke="#808080" stroke-miterlimit="10"/>
<path d="M213.164 325.33H194.954V328.67H213.164V325.33Z" stroke="#808080" stroke-miterlimit="10"/>
<path d="M250.754 325.33H232.544V328.67H250.754V325.33Z" stroke="#808080" stroke-miterlimit="10"/>
<path d="M288.344 325.33H270.134V328.67H288.344V325.33Z" stroke="#808080" stroke-miterlimit="10"/>
<path d="M325.934 325.33H307.724V328.67H325.934V325.33Z" stroke="#808080" stroke-miterlimit="10"/>
<path d="M184.164 356.73H227.374" stroke="#808080" stroke-miterlimit="10"/>
<path d="M257.454 356.73H300.664" stroke="#808080" stroke-miterlimit="10"/>
<path d="M158.474 328.79V325.45" stroke="#808080" stroke-miterlimit="10"/>
<path d="M175.574 325.33H194.954" stroke="#808080" stroke-miterlimit="10"/>
<path d="M213.164 325.33H232.544" stroke="#808080" stroke-miterlimit="10"/>
<path d="M250.754 325.33H270.134" stroke="#808080" stroke-miterlimit="10"/>
<path d="M288.344 325.33H307.724" stroke="#808080" stroke-miterlimit="10"/>
<path d="M88.5841 372.69H339.454V356.69H69.4541" stroke="#808080" stroke-miterlimit="10"/>
<path d="M69.4541 372.69H83.9641" stroke="#808080" stroke-miterlimit="10"/>
<path d="M326.644 187.04H243.604V256.03H326.644V187.04Z" stroke="#808080" stroke-miterlimit="10"/>
<path d="M326.644 187.04H259.874V256.03H326.644V187.04Z" stroke="#808080" stroke-miterlimit="10"/>
<path d="M301.084 192.53H287.084C286.437 192.53 285.816 192.273 285.359 191.815C284.901 191.358 284.644 190.737 284.644 190.09C284.644 189.443 284.901 188.822 285.359 188.365C285.816 187.907 286.437 187.65 287.084 187.65H301.084C301.731 187.65 302.352 187.907 302.809 188.365C303.267 188.822 303.524 189.443 303.524 190.09C303.524 190.737 303.267 191.358 302.809 191.815C302.352 192.273 301.731 192.53 301.084 192.53Z" stroke="#808080" stroke-miterlimit="10"/>
<path d="M326.644 256.01H243.604V325H326.644V256.01Z" stroke="#808080" stroke-miterlimit="10"/>
<path d="M326.644 256.01H259.874V325H326.644V256.01Z" stroke="#808080" stroke-miterlimit="10"/>
<path d="M301.084 256.62H287.084C285.736 256.62 284.644 257.71 284.644 259.055C284.644 260.4 285.736 261.49 287.084 261.49H301.084C302.432 261.49 303.524 260.4 303.524 259.055C303.524 257.71 302.432 256.62 301.084 256.62Z" stroke="#808080" stroke-miterlimit="10"/>
<path d="M230.504 256.01H147.464V325H230.504V256.01Z" stroke="#808080" stroke-miterlimit="10"/>
<path d="M230.504 256.01H163.734V325H230.504V256.01Z" stroke="#808080" stroke-miterlimit="10"/>
<path d="M204.954 256.62H190.954C189.607 256.62 188.514 257.71 188.514 259.055C188.514 260.4 189.607 261.49 190.954 261.49H204.954C206.302 261.49 207.394 260.4 207.394 259.055C207.394 257.71 206.302 256.62 204.954 256.62Z" stroke="#808080" stroke-miterlimit="10"/>
<path d="M330.754 142.53H300.664V165.82H330.754V142.53Z" stroke="#808080" stroke-miterlimit="10"/>
<path d="M257.464 142.53H227.374V165.82H257.464V142.53Z" stroke="#808080" stroke-miterlimit="10"/>
<path d="M184.164 142.53H97.1343V165.82H184.164V142.53Z" stroke="#808080" stroke-miterlimit="10"/>
<path d="M184.164 142.53H158.784V165.82H184.164V142.53Z" stroke="#808080" stroke-miterlimit="10"/>
<path d="M333.274 137.86H83.4443V142.52H333.274V137.86Z" stroke="#808080" stroke-miterlimit="10"/>
<path d="M333.264 137.86H148.164V142.52H333.264V137.86Z" stroke="#808080" stroke-miterlimit="10"/>
<path d="M110.904 134.42H86.7539V137.98H175.574V134.42H114.954" stroke="#808080" stroke-miterlimit="10"/>
<path d="M213.164 134.43H194.954V137.77H213.164V134.43Z" stroke="#808080" stroke-miterlimit="10"/>
<path d="M250.754 134.43H232.544V137.77H250.754V134.43Z" stroke="#808080" stroke-miterlimit="10"/>
<path d="M288.344 134.43H270.134V137.77H288.344V134.43Z" stroke="#808080" stroke-miterlimit="10"/>
<path d="M325.934 134.43H307.724V137.77H325.934V134.43Z" stroke="#808080" stroke-miterlimit="10"/>
<path d="M184.164 165.83H227.374" stroke="#808080" stroke-miterlimit="10"/>
<path d="M257.454 165.83H300.664" stroke="#808080" stroke-miterlimit="10"/>
<path d="M158.474 137.88V134.55" stroke="#808080" stroke-miterlimit="10"/>
<path d="M175.574 134.43H194.954" stroke="#808080" stroke-miterlimit="10"/>
<path d="M213.164 134.43H232.544" stroke="#808080" stroke-miterlimit="10"/>
<path d="M250.754 134.43H270.134" stroke="#808080" stroke-miterlimit="10"/>
<path d="M288.344 134.43H307.724" stroke="#808080" stroke-miterlimit="10"/>
<path d="M326.644 65.1101H243.604V134.1H326.644V65.1101Z" stroke="#808080" stroke-miterlimit="10"/>
<path d="M259.874 110.93V65.1101H326.634V134.1H259.874V116.7" stroke="#808080" stroke-miterlimit="10"/>
<path d="M301.084 70.5902H287.084C286.437 70.5902 285.816 70.3332 285.359 69.8756C284.901 69.418 284.644 68.7974 284.644 68.1502C284.644 67.8303 284.707 67.5135 284.83 67.218C284.953 66.9225 285.133 66.6542 285.359 66.4284C285.586 66.2026 285.855 66.0239 286.151 65.9023C286.447 65.7808 286.764 65.7189 287.084 65.7202H301.084C301.404 65.7189 301.721 65.7808 302.017 65.9023C302.313 66.0239 302.582 66.2026 302.809 66.4284C303.035 66.6542 303.215 66.9225 303.338 67.218C303.461 67.5135 303.524 67.8303 303.524 68.1502C303.524 68.7974 303.267 69.418 302.809 69.8756C302.352 70.3332 301.731 70.5902 301.084 70.5902Z" stroke="#808080" stroke-miterlimit="10"/>
<path d="M230.504 95.3201V134.1H147.464V65.1101H230.504V90.9901" stroke="#808080" stroke-miterlimit="10"/>
<path d="M230.504 95.3201V134.1H163.734V65.1101H230.504V88.1001" stroke="#808080" stroke-miterlimit="10"/>
<path d="M204.954 70.5902H190.954C190.634 70.5902 190.317 70.527 190.022 70.4042C189.726 70.2815 189.458 70.1016 189.232 69.8749C189.006 69.6482 188.828 69.3791 188.706 69.0831C188.585 68.7872 188.523 68.4701 188.524 68.1502C188.524 67.5057 188.78 66.8876 189.236 66.4319C189.691 65.9762 190.309 65.7202 190.954 65.7202H204.954C205.276 65.7162 205.596 65.776 205.895 65.8963C206.193 66.0165 206.466 66.1947 206.695 66.4206C206.925 66.6465 207.107 66.9157 207.232 67.2125C207.358 67.5094 207.423 67.828 207.424 68.1502C207.424 68.4731 207.36 68.7929 207.235 69.0909C207.111 69.3889 206.928 69.6592 206.699 69.8862C206.469 70.1132 206.196 70.2923 205.897 70.4131C205.597 70.5339 205.277 70.5941 204.954 70.5902Z" stroke="#808080" stroke-miterlimit="10"/>
<path d="M312.444 372.77L339.624 391.34" stroke="#808080" stroke-miterlimit="10"/>
<path d="M339.584 405.35L292.064 372.86" stroke="#808080" stroke-miterlimit="10"/>
<path d="M236.114 372.77L263.284 391.34" stroke="#808080" stroke-miterlimit="10"/>
<path d="M263.244 405.35L215.724 372.86" stroke="#808080" stroke-miterlimit="10"/>
<path d="M498.424 436.15H60.4243" stroke="#263238" stroke-linecap="round" stroke-linejoin="round"/>
<path d="M412.305 369.56H313.854V451.52H412.305V369.56Z" fill="#263238" stroke="#808080" stroke-miterlimit="10"/>
<path d="M384.354 369.56H313.854V451.52H384.354V369.56Z" fill="#D1D1D1" stroke="#808080" stroke-miterlimit="10"/>
<path d="M376.085 387.03L370.115 373.83L364.125 387L367.224 387.01V400.5L372.974 400.51L372.984 387.02L376.085 387.03Z" fill="#263238"/>
<path d="M367.725 403.27V410.01C367.725 410.63 367.915 410.85 368.225 410.86C368.535 410.87 368.725 410.63 368.725 410.01V403.33H369.645V409.97C369.645 411.37 369.155 412.17 368.205 412.16C367.255 412.15 366.765 411.36 366.765 409.97V403.32L367.725 403.27Z" fill="#263238"/>
<path d="M373.165 405.45V406.58C373.165 407.98 372.695 408.74 371.725 408.74H371.265V412.02H370.265V403.33H371.685C372.695 403.33 373.165 404.05 373.165 405.45ZM371.265 404.53V407.53H371.725C372.035 407.53 372.195 407.33 372.195 406.71V405.33C372.195 404.71 372.025 404.5 371.715 404.5L371.265 404.53Z" fill="#263238"/>
<path d="M355.104 369.56H343.104V385H355.104V369.56Z" fill="#F5F5F5" stroke="#808080" stroke-miterlimit="10"/>
<path d="M493.305 369.56H394.854V451.52H493.305V369.56Z" fill="#263238" stroke="#808080" stroke-miterlimit="10"/>
<path d="M465.354 369.56H394.854V451.52H465.354V369.56Z" fill="#D1D1D1" stroke="#808080" stroke-miterlimit="10"/>
<path d="M436.104 369.56H424.104V385H436.104V369.56Z" fill="#F5F5F5" stroke="#808080" stroke-miterlimit="10"/>
<path d="M488.314 288.02H389.864V369.98H488.314V288.02Z" fill="#263238" stroke="#808080" stroke-miterlimit="10"/>
<path d="M460.364 288.02H389.864V369.98H460.364V288.02Z" fill="#D1D1D1" stroke="#808080" stroke-miterlimit="10"/>
<path d="M455.085 306.53L449.115 293.33L443.125 306.5L446.224 306.51V320L451.974 320.01L451.984 306.52L455.085 306.53Z" fill="#263238"/>
<path d="M446.725 322.77V329.51C446.725 330.13 446.915 330.35 447.225 330.36C447.535 330.37 447.725 330.13 447.725 329.51V322.78H448.645V329.42C448.645 330.82 448.155 331.62 447.205 331.61C446.255 331.6 445.765 330.81 445.765 329.42V322.77H446.725Z" fill="#263238"/>
<path d="M452.165 324.95V326.08C452.165 327.48 451.695 328.24 450.725 328.24H450.265V331.52H449.265V322.79H450.685C451.695 322.79 452.165 323.55 452.165 324.95ZM450.265 324.03V327.03H450.725C451.035 327.03 451.195 326.83 451.195 326.21V324.9C451.195 324.28 451.025 324.07 450.715 324.07L450.265 324.03Z" fill="#263238"/>
<path d="M431.115 288.02H419.104V303.46H431.115V288.02Z" fill="#F5F5F5" stroke="#808080" stroke-miterlimit="10"/>
<path d="M488.314 205.02H389.864V286.98H488.314V205.02Z" fill="#263238" stroke="#808080" stroke-miterlimit="10"/>
<path d="M460.364 205.02H389.864V286.98H460.364V205.02Z" fill="#D1D1D1" stroke="#808080" stroke-miterlimit="10"/>
<path d="M424.971 248.069L400.159 263.501L408.672 277.189L433.485 261.757L424.971 248.069Z" fill="#F5F5F5" stroke="#808080" stroke-miterlimit="10"/>
<path d="M346.386 407.784L321.573 423.216L330.087 436.905L354.899 421.472L346.386 407.784Z" fill="#F5F5F5" stroke="#808080" stroke-miterlimit="10"/>
<path d="M431.115 205.02H419.104V220.46H431.115V205.02Z" fill="#F5F5F5" stroke="#808080" stroke-miterlimit="10"/>
<path d="M376.424 135.33L500.424 135.33V70.3301L376.424 70.3301V135.33Z" stroke="#808080" stroke-miterlimit="10"/>
<path d="M494.034 70.9001L499.734 82.3001H380.654L376.424 70.3301" stroke="#808080" stroke-miterlimit="10"/>
<path d="M494.034 82.61L499.734 94.0201H380.654L376.424 82.05" stroke="#808080" stroke-miterlimit="10"/>
<path d="M494.034 94.33L499.734 105.73H380.654L376.424 93.77" stroke="#808080" stroke-miterlimit="10"/>
<path d="M494.034 106.05L499.734 117.45H380.654L376.424 105.48" stroke="#808080" stroke-miterlimit="10"/>
<path d="M494.034 117.77L499.734 129.17H380.654L376.424 117.2" stroke="#808080" stroke-miterlimit="10"/>
<path d="M180.924 451.25C219.434 451.25 252.194 457.06 264.374 465.17L296.944 478.09L214.254 498.59L194.554 492.83C190.114 492.99 185.571 493.073 180.924 493.08C132.024 493.08 92.394 483.71 92.394 472.16C92.394 460.61 132.024 451.25 180.924 451.25Z" fill="#263238"/>
<path d="M99.9141 312.71C99.9141 312.71 96.9141 319.82 94.4941 326.93C92.0741 334.04 91.2641 339.39 92.2741 344.8C93.2841 350.21 98.2741 356.03 103.274 357.05C108.274 358.07 137.124 348.59 144.564 342.83C152.004 337.07 146.934 322.19 140.844 318.83C134.754 315.47 99.9141 312.71 99.9141 312.71Z" fill="white" stroke="#263238" stroke-linecap="round" stroke-linejoin="round"/>
<path d="M106.844 318.91C106.844 318.91 114.424 323.72 118.494 325.01C122.564 326.3 129.954 327.79 129.954 327.79C129.954 327.79 117.194 326.86 114.604 327.97C112.014 329.08 109.794 330.19 109.794 330.19C109.794 330.19 128.294 329.64 132.364 332.41C136.434 335.18 141.424 339.41 141.424 339.41L135.694 324.61L136.614 322.95C136.614 322.95 118.864 323.16 106.844 318.91Z" fill="#263238" stroke="#263238" stroke-linecap="round" stroke-linejoin="round"/>
<path d="M189.114 251.69C189.114 251.69 203.284 259.47 205.234 267.52C206.273 272.089 207.956 276.486 210.234 280.58L141.874 322.82C141.874 322.82 127.154 326.15 115.754 322.54C104.354 318.93 98.5341 317.26 98.7541 312.54C98.9741 307.82 103.484 304.48 104.874 301.98C106.264 299.48 117.934 272.25 124.604 261.69C131.274 251.13 133.214 242.52 146.834 236.96C154.743 233.647 163.261 232.035 171.834 232.23L189.114 251.69Z" fill="#315B99" stroke="#263238" stroke-linecap="round" stroke-linejoin="round"/>
<path d="M111.654 314.17C109.994 314.17 108.334 314.17 106.654 314.02" stroke="#263238" stroke-linecap="round" stroke-linejoin="round"/>
<path d="M133.494 312.33C127.002 313.366 120.447 313.964 113.874 314.12" stroke="#263238" stroke-linecap="round" stroke-linejoin="round"/>
<path d="M138.534 311.48C138.534 311.48 137.684 311.66 136.184 311.92" stroke="#263238" stroke-linecap="round" stroke-linejoin="round"/>
<path d="M132.774 301.79C126.554 304.92 115.904 309.61 105.074 311.25" stroke="#263238" stroke-linecap="round" stroke-linejoin="round"/>
<path d="M138.304 298.79C138.304 298.79 137.304 299.39 135.564 300.33" stroke="#263238" stroke-linecap="round" stroke-linejoin="round"/>
<path d="M101.844 309.17C104.612 307.862 107.481 306.781 110.424 305.94" stroke="#263238" stroke-linecap="round" stroke-linejoin="round"/>
<path d="M186.054 260.86L178.554 282.25L175.224 282.81L179.114 272.25" stroke="#263238" stroke-linecap="round" stroke-linejoin="round"/>
<path d="M195.774 260.49L192.564 269.67L190.434 260.06L195.774 260.49Z" fill="#315B99" stroke="#263238" stroke-linecap="round" stroke-linejoin="round"/>
<path d="M190.124 247.8L195.774 260.49L184.454 262.2L190.124 247.8Z" fill="#315B99" stroke="#263238" stroke-linecap="round" stroke-linejoin="round"/>
<path d="M226.964 220.11C226.964 220.11 223.334 225.45 222.904 227.16C222.474 228.87 219.484 234.85 217.134 238.27C214.784 241.69 206.244 251.27 201.134 252.16C196.024 253.05 191.524 249.38 191.524 249.38L184.424 262.2L176.304 231.2L181.644 227.35C180.282 225.409 179.536 223.102 179.504 220.73C179.504 216.89 181.854 212.19 181.854 212.19C181.854 212.19 184.854 206.84 189.764 204.28C194.674 201.72 213.474 205.35 219.884 207.49C226.294 209.63 227.814 215.41 226.964 220.11Z" fill="white" stroke="#263238" stroke-linecap="round" stroke-linejoin="round"/>
<path d="M191.504 249.38L186.084 244.48L188.504 253.27L191.504 249.38Z" fill="#263238" stroke="#263238" stroke-linecap="round" stroke-linejoin="round"/>
<path d="M214.144 221.61L211.794 224.81C211.794 224.81 212.434 234.42 210.514 235.28C208.594 236.14 204.514 235.07 203.464 233.36" stroke="#263238" stroke-linecap="round" stroke-linejoin="round"/>
<path d="M202.824 236.56C201.185 234.527 199.685 232.385 198.334 230.15C196.624 227.15 194.064 228.23 192.564 230.15C191.064 232.07 192.354 234.85 194.494 236.15C196.634 237.45 201.754 239.12 202.824 236.56Z" stroke="#263238" stroke-linecap="round" stroke-linejoin="round"/>
<path d="M193.424 229.33C193.424 229.33 196.424 235.52 201.544 237.23" stroke="#263238" stroke-linecap="round" stroke-linejoin="round"/>
<path d="M205.294 221.72C204.687 220.718 203.837 219.884 202.824 219.295C201.811 218.706 200.666 218.381 199.494 218.35" stroke="#263238" stroke-width="2" stroke-linecap="round" stroke-linejoin="round"/>
<path d="M214.874 225.82C214.874 225.82 218.584 225.46 219.514 228.17" stroke="#263238" stroke-width="2" stroke-linecap="round" stroke-linejoin="round"/>
<path d="M222.024 225.5C222.024 225.5 222.214 222.5 216.024 222.31" stroke="#263238" stroke-linecap="round" stroke-linejoin="round"/>
<path d="M207.514 219.65C207.514 219.65 207.024 215.27 200.464 214.38" stroke="#263238" stroke-linecap="round" stroke-linejoin="round"/>
<path d="M181.994 212.02C183.317 209.859 184.97 207.919 186.894 206.27C190.307 206.551 193.699 207.035 197.054 207.72L198.124 209.43C198.124 209.43 191.714 218.19 189.364 218.19C187.014 218.19 187.654 213.27 185.514 211.99C184.97 211.707 184.364 211.561 183.75 211.566C183.137 211.572 182.534 211.727 181.994 212.02Z" fill="#263238" stroke="#263238" stroke-linecap="round" stroke-linejoin="round"/>
<path d="M179.534 220.75C179.555 219.709 179.689 218.673 179.934 217.66C179.544 221.49 181.424 224.47 182.104 224.81C182.756 225.208 183.335 225.716 183.814 226.31L181.614 227.31C180.288 225.377 179.565 223.094 179.534 220.75Z" fill="#263238" stroke="#263238" stroke-linecap="round" stroke-linejoin="round"/>
<path d="M181.754 211.16C181.754 211.16 192.224 208.81 207.984 212.91C223.744 217.01 227.144 221.08 227.144 221.08C227.144 221.08 229.344 212.36 230.314 206.89C231.284 201.42 221.084 192.89 215.204 190.54C209.324 188.19 197.054 190.14 192.934 191.36C188.814 192.58 185.654 198.1 184.934 199.71C184.214 201.32 181.754 211.16 181.754 211.16Z" fill="#315B99" stroke="#263238" stroke-linecap="round" stroke-linejoin="round"/>
<path d="M227.144 221.08C227.144 221.08 236.054 231.99 233.974 232.71C231.894 233.43 223.874 224.84 215.074 223.06C206.274 221.28 198.024 217.65 195.074 214.74C193.566 213.365 192.223 211.817 191.074 210.13C191.074 210.13 211.884 209.26 227.144 221.08Z" fill="white" stroke="#263238" stroke-linecap="round" stroke-linejoin="round"/>
<path d="M178.894 227.59L186.584 261.77L176.764 265.62L170.564 230.79L178.894 227.59Z" fill="#315B99" stroke="#263238" stroke-linecap="round" stroke-linejoin="round"/>
<path d="M208.894 413.23L198.064 431.5C198.064 431.5 200.434 433.5 200.434 434.55V437.93C200.434 437.93 213.964 442.67 217.014 444.03C220.064 445.39 220.734 449.44 220.394 450.46C220.054 451.48 213.294 452.83 206.864 452.83C200.434 452.83 188.244 449.78 188.244 449.78C188.244 449.78 180.124 449.78 177.414 448.09C174.704 446.4 175.724 442.33 176.414 439.29C177.104 436.25 178.104 433.2 178.104 433.2C178.104 433.2 177.764 428.12 178.444 426.77C179.124 425.42 180.134 424.06 180.134 422.7C180.134 421.34 184.874 401.7 184.874 401.7L208.894 413.23Z" fill="#263238" stroke="#263238" stroke-linecap="round" stroke-linejoin="round"/>
<path d="M198.734 353.33L226.484 429.14L165.214 393.95L136.934 324.77L198.734 353.33Z" fill="#263238" stroke="#263238" stroke-linecap="round" stroke-linejoin="round"/>
<path d="M287.744 288.68L198.734 353.33L136.934 324.77L213.964 268.72L287.744 288.68Z" fill="#DEDEDE" stroke="#263238" stroke-linecap="round" stroke-linejoin="round"/>
<path d="M287.744 288.68L313.464 364.49L226.484 429.14L198.734 353.33L287.744 288.68Z" fill="#D1D1D1" stroke="#263238" stroke-linecap="round" stroke-linejoin="round"/>
<path d="M252.844 279.55L169.524 339.73L175.764 359.87L164.434 353.07L157.184 334.15L237.844 275.14L252.844 279.55Z" fill="#F5F5F5" stroke="#263238" stroke-linecap="round" stroke-linejoin="round"/>
<path d="M160.814 335.66L159.044 334.83" stroke="#263238" stroke-linecap="round" stroke-linejoin="round"/>
<path d="M168.004 339.06L162.114 336.28" stroke="#263238" stroke-linecap="round" stroke-linejoin="round"/>
<path d="M227.904 356.65L217.864 349.56L215.854 363.83L218.984 361.96L223.094 372.89L228.904 369.44L224.784 358.51L227.904 356.65Z" fill="#263238"/>
<path d="M224.424 374.84L226.474 380.3C226.664 380.8 226.924 380.87 227.234 380.68C227.544 380.49 227.674 380.2 227.484 379.68L225.424 374.24L226.344 373.69L228.344 379.07C228.579 379.528 228.628 380.06 228.481 380.553C228.334 381.047 228.002 381.465 227.554 381.72C226.554 382.29 225.854 381.94 225.434 380.81L223.434 375.42L224.424 374.84Z" fill="#263238"/>
<path d="M230.594 373.33L230.944 374.25C231.063 374.474 231.137 374.719 231.161 374.971C231.185 375.224 231.159 375.478 231.085 375.721C231.011 375.963 230.89 376.188 230.728 376.384C230.567 376.579 230.368 376.741 230.144 376.86L229.684 377.14L230.684 379.79L229.684 380.37L227.044 373.33L228.484 372.48C229.424 371.86 230.174 372.19 230.594 373.33ZM228.404 373.73L229.304 376.13L229.764 375.85C230.074 375.67 230.184 375.4 229.994 374.9L229.594 373.84C229.404 373.33 229.174 373.27 228.864 373.46L228.404 373.73Z" fill="#263238"/>
<path d="M286.964 309.7L276.914 302.61L274.914 316.88L278.034 315.02L282.154 325.95L287.954 322.49L283.844 311.56L286.964 309.7Z" fill="#263238"/>
<path d="M283.504 327.9L285.564 333.35C285.754 333.86 286.014 333.92 286.324 333.74C286.634 333.56 286.764 333.25 286.574 332.74L284.514 327.33L285.434 326.78L287.434 332.16C287.667 332.616 287.716 333.144 287.571 333.635C287.426 334.126 287.098 334.543 286.654 334.8C285.654 335.37 284.954 335.02 284.524 333.89L282.524 328.51L283.504 327.9Z" fill="#263238"/>
<path d="M289.654 326.33L290.004 327.25C290.229 327.707 290.272 328.232 290.123 328.719C289.974 329.205 289.646 329.617 289.204 329.87L288.744 330.14L289.744 332.8L288.744 333.38L286.104 326.33L287.544 325.47C288.514 324.91 289.224 325.24 289.654 326.33ZM287.464 326.74L288.364 329.13L288.824 328.86C289.134 328.67 289.244 328.41 289.054 327.86L288.654 326.8C288.464 326.3 288.234 326.24 287.924 326.42L287.464 326.74Z" fill="#263238"/>
<path d="M312.514 329.43L313.694 332.82" stroke="#263238" stroke-linecap="round" stroke-linejoin="round"/>
<path d="M299.294 291.49L311.584 326.79" stroke="#263238" stroke-linecap="round" stroke-linejoin="round"/>
<path d="M316.184 325.49L320.194 337" stroke="#263238" stroke-linecap="round" stroke-linejoin="round"/>
<path d="M305.794 295.67L315.184 322.64" stroke="#263238" stroke-linecap="round" stroke-linejoin="round"/>
<path d="M252.694 271.53L223.594 263.63" stroke="#263238" stroke-linecap="round" stroke-linejoin="round"/>
<path d="M261.214 273.84L255.754 272.36" stroke="#263238" stroke-linecap="round" stroke-linejoin="round"/>
<path d="M242.634 265.95L221.274 260.38" stroke="#263238" stroke-linecap="round" stroke-linejoin="round"/>
<path d="M234.024 430.21L230.564 432.67" stroke="#263238" stroke-linecap="round" stroke-linejoin="round"/>
<path d="M248.214 420.13L236.024 428.79" stroke="#263238" stroke-linecap="round" stroke-linejoin="round"/>
<path d="M252.384 422.92L244.034 428.95" stroke="#263238" stroke-linecap="round" stroke-linejoin="round"/>
<path d="M232.994 320.85C234.088 320.62 235.193 320.447 236.304 320.33C238.019 320.608 239.771 320.574 241.474 320.23C243.744 319.61 244.784 320.23 244.154 321.68C243.757 322.434 243.2 323.093 242.524 323.611C241.847 324.128 241.066 324.493 240.234 324.68C238.994 324.78 236.234 324.78 236.234 324.78L232.514 321.47L232.994 320.85Z" fill="white" stroke="#263238" stroke-linecap="round" stroke-linejoin="round"/>
<path d="M164.104 246.41C164.104 246.41 170.224 252.24 170.774 258.35C171.324 264.46 167.424 299.48 167.424 299.48C167.424 299.48 179.924 305.59 189.374 311.15C198.824 316.71 214.664 323.38 214.664 323.38C214.664 323.38 232.994 320.04 234.384 320.6C235.774 321.16 243.284 329.21 243.554 330.32C243.824 331.43 242.164 337.82 242.164 338.94C242.164 340.06 240.724 340.08 240.724 340.08H239.664L238.904 341.6C238.713 341.982 238.43 342.31 238.081 342.556C237.732 342.802 237.328 342.958 236.904 343.01L235.794 343.13C235.794 343.13 233.854 345.36 232.184 343.97C230.514 342.58 226.904 336.46 226.904 336.46C226.904 336.46 218.294 335.63 216.064 334.8C214.233 334.016 212.467 333.086 210.784 332.02C210.784 332.02 159.424 318.93 154.424 317.54C149.424 316.15 147.474 314.76 145.534 310.87C143.594 306.98 139.174 268.37 139.174 265.04" fill="white"/>
<path d="M164.104 246.41C164.104 246.41 170.224 252.24 170.774 258.35C171.324 264.46 167.424 299.48 167.424 299.48C167.424 299.48 179.924 305.59 189.374 311.15C198.824 316.71 214.664 323.38 214.664 323.38C214.664 323.38 232.994 320.04 234.384 320.6C235.774 321.16 243.284 329.21 243.554 330.32C243.824 331.43 242.164 337.82 242.164 338.94C242.164 340.06 240.724 340.08 240.724 340.08H239.664L238.904 341.6C238.713 341.982 238.43 342.31 238.081 342.556C237.732 342.802 237.328 342.958 236.904 343.01L235.794 343.13C235.794 343.13 233.854 345.36 232.184 343.97C230.514 342.58 226.904 336.46 226.904 336.46C226.904 336.46 218.294 335.63 216.064 334.8C214.233 334.016 212.467 333.086 210.784 332.02C210.784 332.02 159.424 318.93 154.424 317.54C149.424 316.15 147.474 314.76 145.534 310.87C143.594 306.98 139.174 268.37 139.174 265.04" stroke="#263238" stroke-linecap="round" stroke-linejoin="round"/>
<path d="M226.624 330.33C226.624 330.33 232.464 335.33 232.464 337.28C232.464 339.23 235.164 343.5 235.164 343.5" stroke="#263238" stroke-linecap="round" stroke-linejoin="round"/>
<path d="M230.104 326.74C230.104 326.74 234.034 331.08 234.854 332.43C235.674 333.78 236.854 342.98 236.854 342.98" stroke="#263238" stroke-linecap="round" stroke-linejoin="round"/>
<path d="M233.304 324.16C233.304 324.16 238.304 328.81 238.374 330.57C238.444 332.33 239.684 340.05 239.684 340.05" stroke="#263238" stroke-linecap="round" stroke-linejoin="round"/>
<path d="M163.814 245.93C163.814 245.93 170.224 252.24 170.814 258.35C171.204 262.65 169.404 281.21 168.294 291.87C162.724 289.82 152.144 287.62 142.664 295.32C141.034 283.62 139.444 269.06 139.174 265.04" fill="#315B99"/>
<path d="M163.814 245.93C163.814 245.93 170.224 252.24 170.814 258.35C171.204 262.65 169.404 281.21 168.294 291.87C162.724 289.82 152.144 287.62 142.664 295.32C141.034 283.62 139.444 269.06 139.174 265.04" stroke="#263238" stroke-linecap="round" stroke-linejoin="round"/>
<path d="M167.424 299.48C167.424 299.48 161.034 297.53 158.534 298.09" stroke="#263238" stroke-linecap="round" stroke-linejoin="round"/>
<path d="M148.334 475.76C148.334 475.76 156.124 484.56 161.874 489.3C167.624 494.04 165.254 498.44 161.194 499.45C157.134 500.46 149.014 498.78 141.564 496.45C134.114 494.12 128.034 486.3 128.034 486.3C128.034 486.3 119.564 480.88 118.894 478.85C118.224 476.82 125.994 467.33 125.994 467.33C125.994 467.33 146.304 475.76 148.334 475.76Z" fill="#315B99" stroke="#263238" stroke-linecap="round" stroke-linejoin="round"/>
<path d="M118.894 478.81C118.654 478.11 119.434 476.51 120.564 474.72C125.054 478.59 133.094 489.63 139.194 492.72C144.364 495.3 155.824 498.09 163.874 498.09C163.109 498.768 162.188 499.245 161.194 499.48C157.134 500.48 149.014 498.81 141.564 496.48C134.114 494.15 128.034 486.33 128.034 486.33C128.034 486.33 119.564 480.84 118.894 478.81Z" fill="white" stroke="#263238" stroke-linecap="round" stroke-linejoin="round"/>
<path d="M106.344 331.67C106.344 331.67 119.204 326.25 128.684 329.97C138.164 333.69 155.084 348.97 162.184 359.76C169.284 370.55 175.424 375.33 175.044 385.48C174.664 395.63 158.804 440.98 158.124 445.04C157.444 449.1 153.124 465.95 153.124 465.95C153.36 468.087 153.36 470.243 153.124 472.38C152.814 474.96 151.984 479.38 151.984 479.38C151.984 479.38 140.604 478.78 134.174 475.73C130.647 474.142 127.345 472.094 124.354 469.64C124.793 467.104 125.462 464.614 126.354 462.2C127.714 458.81 132.084 452.8 132.764 450.76C133.444 448.72 135.134 428.09 135.134 419.63C135.134 411.17 138.854 390.18 138.854 388.83C139.149 386.88 139.6 384.957 140.204 383.08C140.204 383.08 111.444 368.86 103.654 362.08C95.8642 355.3 92.5542 348.96 91.7842 342.9C91.2342 338.51 93.0542 332.23 93.0542 332.23" fill="white"/>
<path d="M106.344 331.67C106.344 331.67 119.204 326.25 128.684 329.97C138.164 333.69 155.084 348.97 162.184 359.76C169.284 370.55 175.424 375.33 175.044 385.48C174.664 395.63 158.804 440.98 158.124 445.04C157.444 449.1 153.124 465.95 153.124 465.95C153.36 468.087 153.36 470.243 153.124 472.38C152.814 474.96 151.984 479.38 151.984 479.38C151.984 479.38 140.604 478.78 134.174 475.73C130.647 474.142 127.345 472.094 124.354 469.64C124.793 467.104 125.462 464.614 126.354 462.2C127.714 458.81 132.084 452.8 132.764 450.76C133.444 448.72 135.134 428.09 135.134 419.63C135.134 411.17 138.854 390.18 138.854 388.83C139.149 386.88 139.6 384.957 140.204 383.08C140.204 383.08 111.444 368.86 103.654 362.08C95.8642 355.3 92.5542 348.96 91.7842 342.9C91.2342 338.51 93.0542 332.23 93.0542 332.23" stroke="#263238" stroke-linecap="round" stroke-linejoin="round"/>
<path d="M103.294 319.82C103.294 319.82 98.8945 324.56 99.5745 326.59C100.254 328.62 103.294 332.33 101.944 332.33C100.594 332.33 98.5645 335.38 98.5645 335.38L101.564 336.05L100.214 343.84L140.864 376.33C142.761 377.874 144.8 379.233 146.954 380.39L144.584 384.45L148.984 385.13C148.984 385.13 142.554 391.56 141.884 396.97C141.214 402.38 135.474 459.17 134.794 460.86C134.114 462.55 133.104 463.57 132.794 465.26C132.623 467.062 132.623 468.877 132.794 470.68C132.794 471.68 132.454 474.06 132.454 474.06" stroke="#263238" stroke-linecap="round" stroke-linejoin="round"/>
</g>
<defs>
<clipPath id="clip0_351_314">
<rect width="500" height="500" fill="white"/>
</clipPath>
</defs>
</svg>
