<svg width="500" height="500" viewBox="0 0 500 500" fill="none" xmlns="http://www.w3.org/2000/svg">
<path opacity="0.7" d="M67.93 167.09C67.93 167.09 40.05 239.09 79.23 311.59C118.41 384.09 199.11 422.39 263.7 455.14C328.29 487.89 395.36 471.94 427.23 418.3C459.1 364.66 415.39 326.37 415.33 249.88C415.27 173.39 426.78 153.14 385.33 88.5201C343.88 23.9001 242.27 9.59007 165.43 57.5201C88.59 105.45 67.93 167.09 67.93 167.09Z" fill="white"/>
<path d="M132 427.57C155.6 452.49 213.54 443.36 238.64 427.57C320.14 376.32 462.92 291 469.39 167.4C472.14 114.87 425.81 87.2798 406.46 79.1898C360 59.7498 309 53.9198 258.65 51.6698C206.08 49.3198 149.65 51.1498 102.34 76.7998C84.4 86.5098 67.48 98.9998 55.9 116C44.14 133.28 37.37 153.86 35.57 174.63C32.68 208.13 41.69 241.72 55.32 272.46C68.95 303.2 87.12 331.66 103.8 360.86C114.69 379.89 112.16 406.58 132 427.57Z" fill="#315B99"/>
<path opacity="0.7" d="M132 427.57C155.6 452.49 213.54 443.36 238.64 427.57C320.14 376.32 462.92 291 469.39 167.4C472.14 114.87 425.81 87.2798 406.46 79.1898C360 59.7498 309 53.9198 258.65 51.6698C206.08 49.3198 149.65 51.1498 102.34 76.7998C84.4 86.5098 67.48 98.9998 55.9 116C44.14 133.28 37.37 153.86 35.57 174.63C32.68 208.13 41.69 241.72 55.32 272.46C68.95 303.2 87.12 331.66 103.8 360.86C114.69 379.89 112.16 406.58 132 427.57Z" fill="white"/>
<path d="M141.211 140.613L93.2593 126.128C91.3983 125.566 89.4339 126.618 88.8717 128.479L80.3428 156.713C79.7807 158.574 80.8336 160.538 82.6946 161.101L130.647 175.586C132.508 176.148 134.472 175.095 135.034 173.234L143.563 145.001C144.125 143.14 143.072 141.175 141.211 140.613Z" stroke="#263238" stroke-width="1.00285" stroke-miterlimit="10"/>
<path d="M87.1797 132.84L141.69 149.36" stroke="#263238" stroke-miterlimit="10"/>
<path d="M85.52 138.31L140.04 154.83" stroke="#263238" stroke-miterlimit="10"/>
<path d="M123.45 165.06C123.311 165.52 123.267 166.004 123.32 166.481C123.374 166.959 123.523 167.421 123.76 167.84C122.943 168.243 122.003 168.322 121.13 168.06C120.574 167.892 120.068 167.59 119.656 167.181C119.243 166.772 118.938 166.268 118.766 165.713C118.594 165.159 118.56 164.57 118.669 164C118.777 163.429 119.023 162.894 119.386 162.441C119.75 161.988 120.218 161.631 120.752 161.401C121.285 161.171 121.867 161.076 122.445 161.123C123.024 161.17 123.582 161.359 124.071 161.672C124.56 161.985 124.965 162.414 125.25 162.92C124.822 163.138 124.443 163.44 124.134 163.808C123.824 164.175 123.592 164.601 123.45 165.06Z" stroke="#263238" stroke-miterlimit="10"/>
<path d="M130.24 167.12C130.035 167.791 129.636 168.387 129.093 168.832C128.549 169.277 127.886 169.551 127.187 169.618C126.488 169.686 125.785 169.546 125.166 169.214C124.547 168.882 124.041 168.374 123.711 167.754C123.381 167.135 123.242 166.431 123.312 165.732C123.381 165.033 123.657 164.371 124.103 163.829C124.549 163.287 125.146 162.889 125.819 162.686C126.491 162.484 127.208 162.485 127.88 162.69C128.78 162.964 129.535 163.585 129.977 164.416C130.42 165.247 130.514 166.219 130.24 167.12Z" stroke="#263238" stroke-miterlimit="10"/>
<path d="M467.135 208.766L427.486 196.75C425.631 196.188 423.671 197.236 423.109 199.091L416.16 222.021C415.597 223.876 416.646 225.836 418.501 226.398L458.15 238.414C460.005 238.977 461.965 237.929 462.527 236.073L469.476 213.143C470.039 211.288 468.99 209.328 467.135 208.766Z" stroke="#263238" stroke-miterlimit="10"/>
<path d="M422.04 202.62L468.41 216.67" stroke="#263238" stroke-miterlimit="10"/>
<path d="M420.63 207.28L466.99 221.33" stroke="#263238" stroke-miterlimit="10"/>
<path d="M452.89 230C452.77 230.39 452.732 230.801 452.776 231.207C452.821 231.612 452.948 232.005 453.15 232.36C452.712 232.573 452.229 232.676 451.742 232.661C451.256 232.645 450.78 232.512 450.357 232.271C449.933 232.031 449.575 231.691 449.312 231.282C449.049 230.872 448.89 230.404 448.848 229.919C448.807 229.434 448.884 228.946 449.073 228.498C449.262 228.049 449.557 227.653 449.933 227.344C450.309 227.035 450.755 226.822 451.232 226.724C451.708 226.626 452.202 226.645 452.67 226.78C453.412 227.003 454.039 227.505 454.42 228.18C454.054 228.363 453.73 228.619 453.467 228.932C453.204 229.245 453.007 229.608 452.89 230Z" stroke="#263238" stroke-miterlimit="10"/>
<path d="M458.66 231.78C458.483 232.345 458.143 232.845 457.682 233.217C457.222 233.589 456.662 233.816 456.073 233.871C455.483 233.925 454.891 233.804 454.371 233.523C453.85 233.241 453.424 232.812 453.147 232.289C452.869 231.766 452.753 231.173 452.812 230.584C452.871 229.995 453.103 229.437 453.478 228.98C453.854 228.522 454.356 228.186 454.922 228.014C455.488 227.841 456.093 227.84 456.66 228.01C457.04 228.124 457.394 228.313 457.7 228.565C458.007 228.816 458.261 229.127 458.447 229.477C458.633 229.828 458.748 230.212 458.784 230.607C458.821 231.003 458.778 231.401 458.66 231.78Z" stroke="#263238" stroke-miterlimit="10"/>
<path d="M403.679 99.2144L345.797 125.715L359.584 155.829L417.466 129.328L403.679 99.2144Z" stroke="#263238" stroke-miterlimit="10"/>
<path d="M412.49 125L403.73 105.87C402.912 106.243 401.978 106.277 401.135 105.964C400.292 105.651 399.607 105.017 399.23 104.2L352.44 125.62C352.814 126.438 352.848 127.371 352.535 128.215C352.222 129.058 351.587 129.743 350.77 130.12L359.53 149.25C359.936 149.064 360.374 148.96 360.82 148.943C361.266 148.927 361.711 148.999 362.129 149.155C362.547 149.311 362.93 149.548 363.256 149.853C363.583 150.157 363.846 150.523 364.03 150.93L410.81 129.5C410.624 129.094 410.52 128.656 410.504 128.21C410.487 127.764 410.559 127.319 410.716 126.901C410.872 126.483 411.109 126.1 411.413 125.773C411.718 125.447 412.084 125.184 412.49 125Z" stroke="#263238" stroke-miterlimit="10"/>
<path d="M386.932 134.429C390.742 131.502 391.458 126.04 388.531 122.23C385.604 118.419 380.142 117.703 376.332 120.63C372.522 123.557 371.805 129.019 374.732 132.83C377.659 136.64 383.121 137.356 386.932 134.429Z" stroke="#263238" stroke-miterlimit="10"/>
<path d="M384 131.74L384.65 133.16L384.03 133.44L383.39 132.04C382.294 132.516 381.067 132.594 379.92 132.26V131.39C380.933 131.696 382.021 131.643 383 131.24L381.53 128C380.01 128.29 378.44 128.51 377.69 126.87C377.15 125.69 377.53 124.27 379.35 123.26L378.7 121.83L379.32 121.55L380 123C380.899 122.61 381.89 122.478 382.86 122.62V123.49C382.006 123.366 381.134 123.466 380.33 123.78L381.83 127.06C383.38 126.75 385.03 126.47 385.83 128.13C386.33 129.28 385.9 130.73 384 131.74ZM381.14 127.13L379.72 124C378.49 124.69 378.22 125.61 378.58 126.39C379 127.37 380 127.33 381.13 127.13H381.14ZM384.91 128.54C384.47 127.54 383.41 127.64 382.23 127.87L383.64 130.96C385 130.24 385.26 129.33 384.9 128.54H384.91Z" fill="#263238"/>
<path d="M84.2439 236.392L39.7339 240.397L41.8174 263.547L86.3274 259.542L84.2439 236.392Z" stroke="#263238" stroke-width="1.00404" stroke-miterlimit="10"/>
<path d="M82.7499 254.86L81.4899 240.21C80.863 240.263 80.2408 240.065 79.7592 239.66C79.2776 239.255 78.9759 238.676 78.9199 238.05L43.0799 241.15C43.13 241.776 42.9314 242.397 42.5271 242.878C42.1229 243.359 41.5455 243.661 40.9199 243.72L42.1799 258.37C42.4906 258.342 42.8036 258.377 43.1011 258.47C43.3985 258.564 43.6746 258.716 43.9133 258.916C44.1521 259.117 44.3489 259.363 44.4924 259.64C44.636 259.917 44.7235 260.219 44.7499 260.53L80.5899 257.43C80.5399 256.803 80.7385 256.183 81.1427 255.702C81.547 255.221 82.1244 254.918 82.7499 254.86Z" stroke="#263238" stroke-miterlimit="10"/>
<path d="M67.8998 248.77C68.0041 249.97 67.7502 251.174 67.1701 252.23C66.59 253.286 65.7098 254.146 64.6408 254.701C63.5718 255.257 62.3621 255.483 61.1647 255.351C59.9673 255.218 58.8359 254.734 57.9138 253.959C56.9917 253.184 56.3202 252.153 55.9842 250.996C55.6483 249.839 55.663 248.608 56.0266 247.46C56.3901 246.311 57.0861 245.296 58.0265 244.543C58.967 243.79 60.1096 243.333 61.3098 243.23C62.1065 243.16 62.9091 243.248 63.6717 243.488C64.4344 243.729 65.1421 244.118 65.7542 244.633C66.3664 245.147 66.871 245.778 67.2392 246.487C67.6073 247.197 67.8318 247.973 67.8998 248.77Z" stroke="#263238" stroke-miterlimit="10"/>
<path d="M62.3998 252.63L62.4898 253.72H62.0198L61.9198 252.64C61.0888 252.695 60.2645 252.458 59.5898 251.97L59.8098 251.41C60.4065 251.844 61.1328 252.062 61.8698 252.03L61.6598 249.54C60.5898 249.38 59.4998 249.15 59.3998 247.9C59.3198 246.99 59.8998 246.14 61.3398 245.9L61.2498 244.81H61.7198L61.8098 245.88C62.5034 245.836 63.1957 245.985 63.8098 246.31L63.6198 246.88C63.0862 246.603 62.491 246.465 61.8898 246.48L62.0998 248.99C63.1898 249.15 64.3498 249.36 64.4598 250.63C64.5198 251.56 63.8898 252.41 62.3998 252.63ZM61.5998 248.92L61.3898 246.55C60.3898 246.72 60.0298 247.26 60.0798 247.86C60.1298 248.46 60.7998 248.79 61.5998 248.92ZM63.7498 250.74C63.6798 249.99 62.9698 249.74 62.1398 249.66L62.3398 252.03C63.3798 251.86 63.7998 251.34 63.7498 250.74Z" fill="#263238"/>
<path d="M444.33 112.71C449.135 112.71 453.03 108.815 453.03 104.01C453.03 99.2052 449.135 95.3101 444.33 95.3101C439.525 95.3101 435.63 99.2052 435.63 104.01C435.63 108.815 439.525 112.71 444.33 112.71Z" stroke="#263238" stroke-miterlimit="10"/>
<path d="M444.72 108.84V110.4H444V108.85C442.807 108.826 441.659 108.392 440.75 107.62L441.14 106.84C441.935 107.538 442.943 107.947 444 108V104.43C442.5 104.06 441 103.6 441 101.8C441 100.5 441.94 99.3696 444 99.2096V97.6196H444.68V99.1696C445.661 99.1904 446.617 99.4848 447.44 100.02L447.1 100.82C446.375 100.352 445.541 100.08 444.68 100.03V103.63C446.21 104 447.83 104.43 447.83 106.26C447.87 107.57 446.88 108.72 444.72 108.84ZM444.04 103.45V100.06C442.64 100.18 442.04 100.9 442.04 101.76C442 102.79 442.92 103.17 444 103.45H444.04ZM446.88 106.31C446.88 105.24 445.88 104.87 444.72 104.58V108C446.21 107.87 446.88 107.18 446.88 106.31Z" fill="#263238"/>
<path d="M387.028 220.401C391.705 219.299 394.603 214.614 393.5 209.937C392.398 205.261 387.714 202.363 383.037 203.465C378.36 204.567 375.462 209.252 376.564 213.928C377.666 218.605 382.351 221.503 387.028 220.401Z" stroke="#263238" stroke-miterlimit="10"/>
<path d="M382.84 216.24L382.03 217.57L381.45 217.21L382.26 215.89C381.252 215.25 380.502 214.277 380.14 213.14L380.88 212.68C381.193 213.686 381.838 214.557 382.71 215.15L384.59 212.1C383.5 211.01 382.45 209.82 383.39 208.29C384.07 207.18 385.46 206.71 387.32 207.66L388.14 206.32L388.72 206.68L387.91 208C388.73 208.534 389.39 209.281 389.82 210.16L389.11 210.67C388.733 209.894 388.165 209.227 387.46 208.73L385.57 211.8C386.69 212.92 387.84 214.13 386.88 215.69C386.19 216.81 384.75 217.26 382.84 216.24ZM385.09 211.24L386.86 208.35C385.61 207.72 384.7 208 384.25 208.73C383.71 209.66 384.28 210.47 385.09 211.29V211.24ZM386.01 215.16C386.57 214.25 385.92 213.42 385.07 212.56L383.29 215.46C384.62 216.2 385.55 216 386 215.21L386.01 215.16Z" fill="#263238"/>
<path d="M260.18 43.9999C260.894 45.565 261.129 47.307 260.853 49.0054C260.578 50.7037 259.805 52.2824 258.633 53.5416C257.46 54.8008 255.941 55.6841 254.266 56.0798C252.592 56.4754 250.837 56.3657 249.225 55.7645C247.613 55.1633 246.216 54.0975 245.209 52.702C244.203 51.3066 243.633 49.644 243.571 47.9245C243.509 46.205 243.959 44.5059 244.863 43.0419C245.767 41.578 247.085 40.4149 248.65 39.6999C249.689 39.2236 250.812 38.957 251.954 38.9154C253.097 38.8738 254.236 39.058 255.307 39.4575C256.378 39.8569 257.36 40.4637 258.196 41.2432C259.032 42.0227 259.706 42.9594 260.18 43.9999Z" stroke="#263238" stroke-miterlimit="10"/>
<path d="M254.63 51.8299L255.28 53.2499L254.66 53.5399L254 52.1299C252.905 52.6066 251.677 52.6844 250.53 52.3499V51.4799C251.539 51.7849 252.623 51.7355 253.6 51.3399L252.12 48.0799C250.6 48.3699 249.03 48.5799 248.28 46.9499C247.74 45.7599 248.12 44.3499 249.95 43.3399L249.3 41.9099L249.91 41.6299L250.56 43.0399C251.459 42.6496 252.45 42.518 253.42 42.6599V43.5299C252.566 43.4088 251.695 43.5087 250.89 43.8199L252.39 47.0999C253.94 46.7899 255.59 46.5199 256.39 48.1699C257 49.3699 256.54 50.8199 254.63 51.8299ZM251.77 47.2199L250.36 44.1299C249.13 44.8199 248.86 45.7399 249.22 46.5099C249.65 47.4499 250.64 47.4199 251.77 47.2199ZM255.54 48.6299C255.09 47.6299 254.04 47.7399 252.86 47.9599L254.27 51.0499C255.58 50.3299 255.9 49.4299 255.54 48.6299Z" fill="#263238"/>
<path d="M230.88 396.33C231.953 398.682 232.306 401.298 231.892 403.85C231.478 406.402 230.317 408.773 228.556 410.665C226.794 412.557 224.511 413.884 221.996 414.478C219.48 415.073 216.845 414.908 214.423 414.004C212.001 413.101 209.901 411.5 208.389 409.403C206.877 407.307 206.021 404.809 205.929 402.226C205.836 399.642 206.512 397.09 207.87 394.89C209.229 392.691 211.209 390.944 213.56 389.87C215.121 389.157 216.808 388.758 218.523 388.697C220.239 388.635 221.95 388.913 223.558 389.513C225.166 390.112 226.641 391.023 227.897 392.193C229.153 393.363 230.167 394.769 230.88 396.33Z" stroke="#263238" stroke-miterlimit="10"/>
<path d="M222.53 408.11L223.53 410.25L222.6 410.67L221.6 408.55C219.956 409.27 218.113 409.39 216.39 408.89L216.45 407.59C217.967 408.042 219.594 407.961 221.06 407.36L218.83 402.48C216.56 402.91 214.19 403.23 213.07 400.78C212.25 399 212.83 396.87 215.57 395.35L214.57 393.22L215.49 392.79L216.49 394.91C217.843 394.328 219.331 394.13 220.79 394.34V395.64C219.509 395.459 218.204 395.611 217 396.08L219.24 401C221.57 400.54 224.05 400.13 225.19 402.61C226.05 404.42 225.41 406.6 222.53 408.11ZM218.25 401.18L216.12 396.54C214.29 397.54 213.88 398.95 214.42 400.13C215.06 401.54 216.54 401.49 218.25 401.18ZM223.91 403.31C223.24 401.84 221.65 401.96 219.91 402.31L222.03 406.95C224 405.86 224.45 404.5 223.91 403.31Z" fill="#263238"/>
<path d="M43.6598 193.23C41.7179 194.936 39.3137 196.027 36.7514 196.367C34.1891 196.707 31.5836 196.279 29.2644 195.138C26.9452 193.997 25.0164 192.194 23.7218 189.956C22.4273 187.719 21.8251 185.148 21.9915 182.569C22.1578 179.99 23.0852 177.518 24.6565 175.465C26.2277 173.413 28.3722 171.873 30.8187 171.039C33.2653 170.205 35.9042 170.116 38.4016 170.782C40.8991 171.447 43.1431 172.839 44.8498 174.78C45.9835 176.069 46.8521 177.57 47.4058 179.195C47.9596 180.82 48.1878 182.538 48.0773 184.252C47.9667 185.965 47.5197 187.64 46.7618 189.18C46.0038 190.721 44.9498 192.097 43.6598 193.23Z" stroke="#263238" stroke-miterlimit="10"/>
<path d="M30 188.63L28.24 190.18L27.56 189.41L29.31 187.88C28.1506 186.508 27.5037 184.776 27.48 182.98L28.75 182.66C28.7506 184.235 29.2826 185.765 30.26 187L34.26 183.46C33.19 181.41 32.2 179.23 34.26 177.46C35.74 176.17 37.94 176.11 40.18 178.29L42 176.75L42.67 177.51L40.92 179.05C41.8509 180.182 42.4528 181.549 42.66 183L41.42 183.41C41.2208 182.131 40.7014 180.924 39.91 179.9L35.84 183.47C36.95 185.56 38.06 187.82 36.01 189.63C34.52 190.93 32.25 191 30 188.63ZM35.4 182.53L39.23 179.16C37.71 177.7 36.23 177.71 35.31 178.56C34.11 179.58 34.59 181 35.37 182.53H35.4ZM34.99 188.53C36.21 187.47 35.64 185.98 34.8 184.38L30.97 187.75C32.54 189.36 34 189.42 35 188.56L34.99 188.53Z" fill="#263238"/>
<path d="M103.492 304.709C103.631 301.224 100.919 298.286 97.4345 298.147C93.9495 298.007 91.0114 300.719 90.872 304.204C90.7326 307.689 93.4447 310.627 96.9297 310.767C100.415 310.906 103.353 308.194 103.492 304.709Z" stroke="#263238" stroke-width="1.0008" stroke-miterlimit="10"/>
<path d="M98.9999 305.68L99.7199 306.55L99.3499 306.86L98.6299 306C97.9533 306.544 97.1078 306.834 96.2399 306.82L96.0999 306.2C96.8632 306.22 97.6106 305.98 98.2199 305.52L96.5599 303.52C95.5599 304.01 94.4999 304.46 93.6599 303.46C93.0599 302.74 93.0599 301.67 94.1399 300.61L93.4099 299.74L93.7899 299.43L94.5099 300.29C95.0666 299.848 95.7344 299.567 96.4399 299.48L96.6199 300.08C96.0018 300.165 95.4144 300.402 94.9099 300.77L96.5799 302.77C97.5799 302.26 98.7099 301.77 99.5799 302.77C100.19 303.51 100.17 304.61 98.9999 305.68ZM96.1399 303L94.5599 301.11C93.8399 301.83 93.8299 302.52 94.2199 303C94.6099 303.48 95.3899 303.35 96.1399 303ZM99.0499 303.27C98.5499 302.68 97.8299 302.93 97.0499 303.32L98.6299 305.21C99.3999 304.45 99.4499 303.75 99.0499 303.26V303.27Z" fill="#263238"/>
<path d="M297.59 429.17C298.388 430.129 298.884 431.303 299.015 432.544C299.146 433.785 298.907 435.037 298.326 436.142C297.746 437.246 296.851 438.154 295.755 438.75C294.659 439.346 293.41 439.604 292.168 439.491C290.925 439.378 289.744 438.898 288.773 438.114C287.803 437.33 287.087 436.275 286.716 435.084C286.345 433.892 286.335 432.618 286.688 431.421C287.041 430.224 287.741 429.159 288.7 428.36C289.987 427.29 291.646 426.775 293.312 426.927C294.979 427.079 296.517 427.885 297.59 429.17Z" stroke="#263238" stroke-miterlimit="10"/>
<path d="M295.19 435.72L295.92 436.59L295.54 436.9L294.82 436.04C294.147 436.584 293.305 436.874 292.44 436.86L292.3 436.24C293.064 436.265 293.813 436.024 294.42 435.56L292.76 433.56C291.76 434.05 290.69 434.5 289.86 433.5C289.25 432.78 289.25 431.71 290.33 430.65L289.61 429.78L289.99 429.47L290.71 430.33C291.264 429.884 291.933 429.603 292.64 429.52L292.82 430.12C292.199 430.205 291.608 430.442 291.1 430.81L292.78 432.81C293.78 432.3 294.91 431.81 295.78 432.81C296.36 433.55 296.34 434.65 295.19 435.72ZM292.32 433L290.74 431.11C290.01 431.83 290 432.52 290.4 433C290.8 433.48 291.56 433.39 292.32 433ZM295.22 433.28C294.72 432.68 294 432.93 293.22 433.28L294.8 435.17C295.58 434.49 295.63 433.79 295.22 433.31V433.28Z" fill="#263238"/>
<path d="M124.887 69.6834C125.205 66.213 122.65 63.1417 119.18 62.8235C115.709 62.5052 112.638 65.0605 112.32 68.5308C112.002 72.0012 114.557 75.0725 118.027 75.3907C121.498 75.709 124.569 73.1537 124.887 69.6834Z" stroke="#263238" stroke-miterlimit="10"/>
<path d="M121.07 71.6196L121.79 72.4896L121.41 72.7996L120.69 71.9396C120.018 72.485 119.175 72.7754 118.31 72.7596L118.17 72.1396C118.933 72.1597 119.681 71.9199 120.29 71.4596L118.63 69.4596C117.63 69.9496 116.56 70.3996 115.73 69.3996C115.13 68.6796 115.12 67.6096 116.21 66.5496L115.48 65.6796L115.86 65.3696L116.58 66.2296C117.136 65.7857 117.804 65.5052 118.51 65.4196L118.69 66.0196C118.072 66.1053 117.484 66.3424 116.98 66.7096L118.65 68.7096C119.65 68.1996 120.78 67.7096 121.65 68.7096C122.24 69.4496 122.21 70.5496 121.07 71.6196ZM118.19 68.9296L116.61 66.9996C115.89 67.7196 115.87 68.4096 116.27 68.8896C116.67 69.3696 117.43 69.2896 118.19 68.9296ZM121.1 69.1996C120.6 68.6096 119.87 68.8596 119.1 69.1996L120.68 71.0896C121.45 70.3896 121.5 69.6896 121.1 69.1996Z" fill="#263238"/>
<path opacity="0.2" d="M260.81 327.81C260.81 327.81 253.1 366.94 205.81 375.81C205.81 375.81 193.46 385.66 189.35 391.49C185.24 397.32 163.35 407.23 141.05 438.15C118.75 469.07 85.5498 370.88 85.5498 370.88L158.93 275.58L260.81 327.81Z" fill="black" fill-opacity="0.7"/>
<path d="M302.84 144.08C302.84 144.08 328.34 131.61 333.95 133.76C339.56 135.91 344.95 148.81 323.5 161.16C302.05 173.51 308.45 196.52 308.45 196.52H323.75C323.75 196.52 332.93 200.26 336.5 205.07C340.07 209.88 342.62 226.28 344.66 231.84C346.7 237.4 345.66 242.97 340.07 244.78C340.07 244.78 336.5 260.34 337.52 267.24C338.54 274.14 338.03 278.58 331.4 279.42C329.732 279.594 328.046 279.403 326.459 278.861C324.872 278.318 323.421 277.437 322.209 276.279C320.996 275.12 320.049 273.712 319.435 272.151C318.82 270.59 318.553 268.915 318.65 267.24L313.55 285.72L317.12 292.82C322.163 294.772 326.824 297.595 330.89 301.16C338.03 307.28 345.17 308.95 343.13 315.77C341.09 322.59 337.01 329.94 315.59 321.42C294.17 312.9 276.32 279.42 276.32 279.42L263.45 162.68L302.84 144.08Z" fill="white"/>
<path opacity="0.4" d="M329.68 211.14C318.12 226.9 330.91 245.05 330.91 245.05C330.91 245.05 322.91 249.51 322.68 260.89C322.59 265.62 323.78 272.23 325.2 278.35C323.121 277.368 321.386 275.783 320.22 273.802C319.053 271.821 318.51 269.534 318.66 267.24L313.55 285.72L317.12 292.81C320.876 294.248 324.416 296.196 327.64 298.6C324.47 305.88 323.5 314.88 323.78 324.16C320.995 323.421 318.26 322.505 315.59 321.42C294.17 312.89 276.32 279.42 276.32 279.42L263.45 162.67L302.84 144.08C302.84 144.08 316.77 137.27 326.31 134.58C325.57 143.5 327.31 152.73 328.57 157.87C326.943 159.061 325.25 160.159 323.5 161.16C302.08 173.51 308.45 196.52 308.45 196.52H323.76C323.76 196.52 332.48 200.08 336.22 204.71C333.662 206.432 331.445 208.612 329.68 211.14Z" fill="#315B99"/>
<path d="M263 309C263 309 235.26 363.39 185.26 375.73C185.26 375.73 183.35 386.49 174.89 391.11C170.37 393.57 152.13 420.9 136.12 445.85L47.4399 391.45C52.8999 386.05 59.1199 379.83 65.4399 373.34C83.9399 354.48 103.68 333.34 109.72 322.88C115.12 313.58 121.95 297.44 127.9 282.27C135.52 262.87 141.72 245.05 141.72 245.05L171.28 212.19L217.75 160.52L219.75 167.13L263 309Z" fill="white"/>
<path opacity="0.4" d="M217.79 160.52L263 309C263 309 235.26 363.39 185.26 375.73C185.26 375.73 183.35 386.49 174.89 391.11C170.83 393.32 155.72 415.57 141.1 438.11C146.52 419.51 162.21 389.86 162.21 389.86C152.14 377.93 155.08 365.36 159.11 368.94C163.14 372.52 173.27 382.58 173.91 383.21C169.46 377.97 168.43 369.76 168.43 369.76C168.43 369.76 180.91 378.06 181.92 364.76C182.93 351.46 174.44 318.96 174.44 318.96L152.15 233.5L217.79 160.52Z" fill="#315B99"/>
<path d="M263.45 162.68L302.84 144.08C302.84 144.08 328.34 131.61 333.95 133.76C339.56 135.91 344.95 148.81 323.5 161.16C302.05 173.51 308.45 196.52 308.45 196.52H323.75C323.75 196.52 332.93 200.26 336.5 205.07C340.07 209.88 342.62 226.28 344.66 231.84C346.7 237.4 345.66 242.97 340.07 244.78C340.07 244.78 336.5 260.34 337.52 267.24C338.54 274.14 338.03 278.58 331.4 279.42C329.732 279.594 328.046 279.403 326.459 278.861C324.872 278.318 323.421 277.437 322.209 276.279C320.996 275.12 320.049 273.712 319.435 272.151C318.82 270.59 318.553 268.915 318.65 267.24L313.55 285.72L317.12 292.82C322.163 294.772 326.824 297.595 330.89 301.16C338.03 307.28 345.17 308.95 343.13 315.77C341.09 322.59 337.01 329.94 315.59 321.42C294.17 312.9 276.32 279.42 276.32 279.42" stroke="#263238" stroke-linecap="round" stroke-linejoin="round"/>
<path d="M340.07 244.78C332.42 246.85 323.5 245.32 320.18 231.78C316.86 218.24 323.5 203.78 327.83 202.45" stroke="#263238" stroke-linecap="round" stroke-linejoin="round"/>
<path d="M318.65 267.24C318.65 267.24 318.14 249.83 324.52 245.53" stroke="#263238" stroke-linecap="round" stroke-linejoin="round"/>
<path opacity="0.4" d="M132.62 353.71C132.62 353.71 113.93 351.38 109.76 343.02C106.31 336.1 87.61 362.02 65.48 373.34C83.98 354.48 103.72 333.34 109.76 322.88C115.16 313.58 121.99 297.44 127.94 282.27C127.64 294.85 120.94 314.11 122.85 324.14C120.803 324.681 119.052 326.007 117.976 327.83C116.9 329.653 116.585 331.827 117.1 333.88C118.53 341.85 132.62 353.71 132.62 353.71Z" fill="#315B99"/>
<path d="M263 309C263 309 235.26 363.39 185.25 375.73C185.25 375.73 183.35 386.49 174.89 391.11C170.37 393.57 152.14 420.9 136.11 445.85" stroke="#263238" stroke-linecap="round" stroke-linejoin="round"/>
<path d="M47.4399 391.45C68.7999 370.34 101.63 336.87 109.76 322.88C122.06 301.71 141.76 245.04 141.76 245.04L217.76 160.52" stroke="#263238" stroke-linecap="round" stroke-linejoin="round"/>
<path d="M174.39 225.07C174.39 225.07 186.07 235.53 189.39 245.07" stroke="#263238" stroke-linecap="round" stroke-linejoin="round"/>
<path d="M312.26 72.7202H186.59C182.873 72.7202 179.86 75.7333 179.86 79.4502V346.98C179.86 350.697 182.873 353.71 186.59 353.71H312.26C315.977 353.71 318.99 350.697 318.99 346.98V79.4502C318.99 75.7333 315.977 72.7202 312.26 72.7202Z" fill="#263238"/>
<path d="M277 80.3704L274.34 85.2404C274.059 85.7689 273.64 86.2115 273.128 86.5213C272.615 86.8311 272.029 86.9967 271.43 87.0004H227.43C226.832 86.9972 226.247 86.8342 225.733 86.5282C225.22 86.2223 224.797 85.7845 224.51 85.2604L221.86 80.3904C221.575 79.8641 221.154 79.4246 220.64 79.1184C220.126 78.8121 219.539 78.6504 218.94 78.6504H188.19C187.752 78.6517 187.318 78.7395 186.914 78.9086C186.51 79.0778 186.143 79.3251 185.835 79.6363C185.526 79.9475 185.283 80.3165 185.117 80.7222C184.951 81.1279 184.868 81.5622 184.87 82.0004V345C184.87 345.882 185.22 346.727 185.842 347.352C186.464 347.976 187.309 348.328 188.19 348.33H310.65C311.089 348.333 311.524 348.249 311.931 348.083C312.337 347.917 312.706 347.672 313.018 347.362C313.329 347.053 313.576 346.685 313.745 346.279C313.913 345.874 314 345.439 314 345V82.0004C314 81.1172 313.649 80.2702 313.025 79.6457C312.4 79.0212 311.553 78.6704 310.67 78.6704H279.93C279.334 78.6646 278.748 78.8195 278.232 79.1186C277.717 79.4177 277.291 79.8501 277 80.3704Z" fill="#315B99" stroke="#263238" stroke-linecap="round" stroke-linejoin="round"/>
<path d="M239.88 82.7304C240.868 82.7304 241.67 81.929 241.67 80.9404C241.67 79.9518 240.868 79.1504 239.88 79.1504C238.891 79.1504 238.09 79.9518 238.09 80.9404C238.09 81.929 238.891 82.7304 239.88 82.7304Z" stroke="white" stroke-miterlimit="10"/>
<path d="M260.75 80.9403C260.748 81.1594 260.681 81.373 260.558 81.5542C260.435 81.7355 260.261 81.8762 260.058 81.9587C259.855 82.0411 259.632 82.0617 259.417 82.0178C259.202 81.9738 259.006 81.8673 258.851 81.7117C258.697 81.5561 258.592 81.3583 258.55 81.1432C258.508 80.9282 258.531 80.7055 258.615 80.5033C258.7 80.301 258.842 80.1282 259.024 80.0067C259.206 79.8852 259.421 79.8203 259.64 79.8203C259.786 79.8203 259.932 79.8493 260.067 79.9058C260.202 79.9622 260.325 80.0448 260.428 80.1489C260.531 80.2531 260.613 80.3766 260.668 80.5125C260.723 80.6483 260.751 80.7937 260.75 80.9403Z" stroke="white" stroke-miterlimit="10"/>
<path d="M255.77 80.2402H244.89C244.798 80.2402 244.708 80.2584 244.623 80.2937C244.539 80.329 244.463 80.3807 244.398 80.4459C244.334 80.511 244.283 80.5882 244.249 80.6731C244.215 80.758 244.198 80.8488 244.2 80.9402C244.2 81.1232 244.272 81.2987 244.402 81.4281C244.531 81.5575 244.707 81.6302 244.89 81.6302H255.77C255.953 81.6302 256.128 81.5575 256.258 81.4281C256.387 81.2987 256.46 81.1232 256.46 80.9402C256.461 80.8488 256.444 80.758 256.41 80.6731C256.376 80.5882 256.325 80.511 256.261 80.4459C256.197 80.3807 256.121 80.329 256.036 80.2937C255.952 80.2584 255.861 80.2402 255.77 80.2402Z" fill="white"/>
<path d="M207.64 85.3203H195.91V90.3003H207.64V85.3203Z" stroke="#263238" stroke-linecap="round" stroke-linejoin="round"/>
<path d="M209.45 86.1602H207.63V89.4702H209.45V86.1602Z" stroke="#263238" stroke-linecap="round" stroke-linejoin="round"/>
<path d="M290.76 88.5H288.68V90.31H290.76V88.5Z" stroke="#263238" stroke-linecap="round" stroke-linejoin="round"/>
<path d="M294.82 86.6802H292.74V90.3102H294.82V86.6802Z" stroke="#263238" stroke-linecap="round" stroke-linejoin="round"/>
<path d="M298.88 84.8604H296.8V90.3004H298.88V84.8604Z" stroke="#263238" stroke-linecap="round" stroke-linejoin="round"/>
<path d="M302.93 83.04H300.85V90.3H302.93V83.04Z" stroke="#263238" stroke-linecap="round" stroke-linejoin="round"/>
<path opacity="0.5" d="M313.44 135H186V256.55H313.44V135Z" fill="white"/>
<path d="M302.93 151.49H195.91V167.48H302.93V151.49Z" fill="white" stroke="#263238" stroke-linecap="round" stroke-linejoin="round"/>
<path d="M302.93 181.48H195.91V197.47H302.93V181.48Z" fill="white" stroke="#263238" stroke-linecap="round" stroke-linejoin="round"/>
<path d="M302.93 208.75H195.91V224.74H302.93V208.75Z" fill="white" stroke="#263238" stroke-linecap="round" stroke-linejoin="round"/>
<path d="M246.58 230.57H195.91V249.29H246.58V230.57Z" fill="white" stroke="#263238" stroke-linecap="round" stroke-linejoin="round"/>
<path d="M302.94 230.57H252.27V249.29H302.94V230.57Z" fill="white" stroke="#263238" stroke-linecap="round" stroke-linejoin="round"/>
<path d="M202.58 148.7V149.13H199.23V144.4H202.48V144.83H199.74V146.52H202.18V146.94H199.74V148.7H202.58Z" fill="#263238"/>
<path d="M209.52 147.07V149.13H209V147.13C209 146.38 208.62 145.99 208 145.99C207.833 145.983 207.667 146.013 207.512 146.076C207.358 146.14 207.219 146.237 207.106 146.36C206.993 146.482 206.908 146.628 206.857 146.787C206.806 146.946 206.79 147.115 206.81 147.28V149.14H206.33V147.14C206.33 146.39 205.95 146 205.33 146C205.163 145.993 204.997 146.023 204.842 146.086C204.688 146.15 204.549 146.247 204.436 146.37C204.323 146.492 204.238 146.638 204.187 146.797C204.136 146.956 204.12 147.125 204.14 147.29V149.15H203.66V145.6H204.12V146.25C204.257 146.029 204.451 145.849 204.681 145.73C204.912 145.61 205.171 145.555 205.43 145.57C205.692 145.548 205.955 145.609 206.18 145.743C206.406 145.878 206.585 146.08 206.69 146.32C206.836 146.08 207.044 145.883 207.292 145.751C207.54 145.619 207.819 145.557 208.1 145.57C208.297 145.557 208.494 145.588 208.678 145.659C208.862 145.731 209.028 145.843 209.163 145.986C209.299 146.129 209.401 146.301 209.463 146.488C209.525 146.676 209.544 146.875 209.52 147.07Z" fill="#263238"/>
<path d="M213.51 146.93V149.13H213.05V148.58C212.915 148.778 212.73 148.937 212.514 149.041C212.298 149.144 212.059 149.189 211.82 149.17C211.02 149.17 210.53 148.75 210.53 148.17C210.53 147.59 210.88 147.17 211.9 147.17H213V146.95C213 146.34 212.65 146.01 212 146.01C211.569 146.004 211.15 146.153 210.82 146.43L210.6 146.07C211.014 145.75 211.526 145.58 212.05 145.59C212.238 145.559 212.431 145.572 212.614 145.626C212.797 145.681 212.965 145.776 213.105 145.905C213.246 146.034 213.356 146.194 213.426 146.371C213.496 146.549 213.524 146.74 213.51 146.93ZM213.03 148.07V147.48H211.91C211.22 147.48 211 147.75 211 148.12C211 148.49 211.33 148.79 211.9 148.79C212.135 148.797 212.366 148.732 212.563 148.603C212.759 148.474 212.912 148.288 213 148.07H213.03Z" fill="#263238"/>
<path d="M214.7 144.46C214.702 144.369 214.74 144.283 214.806 144.219C214.871 144.156 214.959 144.12 215.05 144.12C215.14 144.12 215.226 144.156 215.29 144.22C215.354 144.283 215.39 144.37 215.39 144.46C215.39 144.55 215.354 144.637 215.29 144.701C215.226 144.764 215.14 144.8 215.05 144.8C214.959 144.8 214.871 144.765 214.806 144.701C214.74 144.638 214.702 144.551 214.7 144.46ZM214.81 145.58H215.29V149.13H214.81V145.58Z" fill="#263238"/>
<path d="M216.63 144.12H217.11V149.12H216.63V144.12Z" fill="#263238"/>
<path d="M205.89 161V161.43H202.54V156.7H205.79V157.13H203V158.81H205.45V159.24H203V161H205.89Z" fill="#263238"/>
<path d="M212.83 159.35V161.41H212.35V159.41C212.35 158.66 211.97 158.27 211.35 158.27C211.184 158.261 211.017 158.289 210.863 158.352C210.709 158.415 210.57 158.51 210.456 158.632C210.343 158.754 210.257 158.9 210.206 159.058C210.155 159.217 210.139 159.385 210.16 159.55V161.42H209.68V159.42C209.68 158.67 209.3 158.28 208.68 158.28C208.514 158.271 208.347 158.299 208.193 158.362C208.039 158.425 207.9 158.52 207.786 158.642C207.673 158.764 207.588 158.91 207.536 159.068C207.485 159.227 207.469 159.395 207.49 159.56V161.43H207V157.87H207.46V158.52C207.599 158.302 207.793 158.124 208.024 158.007C208.254 157.889 208.512 157.835 208.77 157.85C209.032 157.831 209.293 157.893 209.518 158.027C209.743 158.161 209.922 158.361 210.03 158.6C210.175 158.359 210.383 158.162 210.631 158.03C210.879 157.897 211.159 157.835 211.44 157.85C211.634 157.841 211.828 157.875 212.008 157.949C212.189 158.023 212.35 158.135 212.483 158.278C212.615 158.421 212.715 158.591 212.775 158.776C212.834 158.961 212.853 159.157 212.83 159.35Z" fill="#263238"/>
<path d="M216.81 159.21V161.41H216.35V160.86C216.217 161.057 216.034 161.214 215.819 161.316C215.605 161.418 215.367 161.461 215.13 161.44C214.33 161.44 213.83 161.02 213.83 160.44C213.83 159.86 214.19 159.44 215.21 159.44H216.34V159.23C216.34 158.62 215.99 158.29 215.34 158.29C214.906 158.284 214.484 158.433 214.15 158.71L213.94 158.35C214.351 158.024 214.865 157.853 215.39 157.87C215.575 157.846 215.764 157.863 215.942 157.921C216.119 157.978 216.282 158.075 216.418 158.203C216.554 158.331 216.66 158.488 216.728 158.662C216.795 158.837 216.824 159.024 216.81 159.21ZM216.34 160.34V159.76H215.22C214.53 159.76 214.31 160.03 214.31 160.4C214.31 160.77 214.64 161.07 215.21 161.07C215.452 161.084 215.691 161.021 215.894 160.889C216.097 160.758 216.253 160.566 216.34 160.34Z" fill="#263238"/>
<path d="M218 156.73C218.003 156.639 218.041 156.553 218.106 156.489C218.171 156.426 218.259 156.39 218.35 156.39C218.395 156.389 218.441 156.397 218.483 156.413C218.526 156.43 218.564 156.455 218.597 156.486C218.63 156.518 218.655 156.556 218.673 156.598C218.691 156.64 218.7 156.685 218.7 156.73C218.7 156.823 218.663 156.912 218.597 156.978C218.532 157.043 218.443 157.08 218.35 157.08C218.257 157.08 218.168 157.043 218.103 156.978C218.037 156.912 218 156.823 218 156.73ZM218.11 157.85H218.59V161.41H218.11V157.85Z" fill="#263238"/>
<path d="M219.94 156.39H220.41V161.39H219.94V156.39Z" fill="#263238"/>
<path d="M225 159.35V161.41H224.52V159.41C224.541 159.263 224.529 159.112 224.485 158.969C224.44 158.827 224.364 158.696 224.263 158.587C224.161 158.478 224.036 158.392 223.897 158.338C223.758 158.283 223.609 158.26 223.46 158.27C223.29 158.256 223.118 158.28 222.958 158.339C222.798 158.399 222.653 158.494 222.533 158.616C222.414 158.738 222.323 158.885 222.267 159.047C222.211 159.208 222.192 159.38 222.21 159.55V161.42H221.73V157.86H222.19V158.52C222.335 158.298 222.536 158.117 222.773 157.998C223.01 157.878 223.275 157.824 223.54 157.84C223.74 157.824 223.941 157.853 224.129 157.924C224.317 157.995 224.487 158.106 224.626 158.251C224.766 158.395 224.872 158.568 224.937 158.759C225.001 158.949 225.023 159.151 225 159.35Z" fill="#263238"/>
<path d="M229 159.21V161.41H228.54V160.86C228.407 161.057 228.224 161.215 228.009 161.317C227.795 161.419 227.557 161.461 227.32 161.44C226.51 161.44 226.02 161.02 226.02 160.44C226.02 159.86 226.37 159.44 227.39 159.44H228.52V159.23C228.52 158.62 228.18 158.29 227.52 158.29C227.089 158.284 226.67 158.433 226.34 158.71L226.12 158.35C226.532 158.025 227.045 157.856 227.57 157.87C227.756 157.845 227.946 157.861 228.125 157.917C228.304 157.974 228.468 158.071 228.605 158.199C228.742 158.327 228.849 158.485 228.917 158.66C228.985 158.835 229.014 159.023 229 159.21ZM228.52 160.34V159.76H227.41C226.72 159.76 226.49 160.03 226.49 160.4C226.49 160.77 226.82 161.07 227.39 161.07C227.633 161.086 227.875 161.024 228.08 160.893C228.285 160.762 228.443 160.568 228.53 160.34H228.52Z" fill="#263238"/>
<path d="M236.18 159.35V161.41H235.7V159.41C235.7 158.66 235.32 158.27 234.7 158.27C234.534 158.262 234.367 158.29 234.213 158.352C234.059 158.415 233.92 158.51 233.806 158.632C233.693 158.754 233.608 158.9 233.556 159.058C233.505 159.217 233.489 159.385 233.51 159.55V161.42H233V159.42C233 158.67 232.62 158.28 232 158.28C231.834 158.272 231.667 158.3 231.513 158.362C231.359 158.425 231.22 158.52 231.106 158.642C230.993 158.764 230.908 158.91 230.856 159.068C230.805 159.227 230.789 159.395 230.81 159.56V161.43H230.33V157.87H230.79V158.52C230.929 158.302 231.123 158.124 231.354 158.007C231.584 157.889 231.842 157.835 232.1 157.85C232.362 157.828 232.624 157.889 232.85 158.023C233.076 158.157 233.255 158.359 233.36 158.6C233.506 158.36 233.714 158.163 233.962 158.031C234.21 157.899 234.489 157.837 234.77 157.85C234.966 157.838 235.162 157.87 235.345 157.943C235.527 158.015 235.692 158.127 235.826 158.27C235.961 158.413 236.062 158.584 236.123 158.771C236.185 158.957 236.204 159.155 236.18 159.35Z" fill="#263238"/>
<path d="M240.59 159.78H237.59C237.616 160.129 237.778 160.453 238.043 160.682C238.307 160.911 238.651 161.025 239 161C239.205 161.006 239.409 160.967 239.597 160.886C239.785 160.805 239.953 160.683 240.09 160.53L240.36 160.84C240.105 161.108 239.776 161.295 239.415 161.377C239.055 161.459 238.678 161.433 238.332 161.301C237.986 161.17 237.686 160.939 237.471 160.639C237.255 160.338 237.133 159.98 237.12 159.61C237.108 159.376 237.144 159.141 237.226 158.921C237.308 158.701 237.435 158.5 237.598 158.332C237.761 158.163 237.958 158.029 238.175 157.94C238.392 157.85 238.625 157.806 238.86 157.81C239.094 157.806 239.327 157.85 239.543 157.94C239.759 158.029 239.954 158.163 240.116 158.333C240.277 158.502 240.402 158.703 240.482 158.923C240.562 159.143 240.595 159.377 240.58 159.61C240.58 159.61 240.59 159.73 240.59 159.78ZM237.59 159.42H240.11C240.11 159.086 239.977 158.766 239.741 158.529C239.505 158.293 239.184 158.16 238.85 158.16C238.516 158.16 238.195 158.293 237.959 158.529C237.723 158.766 237.59 159.086 237.59 159.42Z" fill="#263238"/>
<path d="M247.55 159.62C247.55 160.77 247.12 161.44 246.42 161.44C246.321 161.446 246.222 161.431 246.13 161.397C246.037 161.362 245.952 161.309 245.881 161.241C245.81 161.172 245.753 161.09 245.715 160.999C245.677 160.907 245.658 160.809 245.66 160.71C245.521 160.942 245.322 161.131 245.085 161.26C244.847 161.388 244.58 161.451 244.31 161.44C243.848 161.44 243.406 161.257 243.079 160.931C242.753 160.604 242.57 160.162 242.57 159.7C242.57 159.239 242.753 158.796 243.079 158.47C243.406 158.144 243.848 157.96 244.31 157.96C244.576 157.949 244.841 158.009 245.076 158.134C245.312 158.258 245.51 158.444 245.65 158.67V158H246.09V160.56C246.09 160.94 246.28 161.08 246.51 161.08C246.92 161.08 247.19 160.56 247.19 159.65C247.201 159.289 247.135 158.93 246.998 158.595C246.861 158.261 246.656 157.959 246.395 157.709C246.133 157.459 245.823 157.267 245.482 157.145C245.142 157.023 244.78 156.974 244.42 157C244.063 157 243.709 157.071 243.379 157.207C243.049 157.344 242.749 157.545 242.497 157.797C242.244 158.05 242.044 158.35 241.907 158.68C241.77 159.01 241.7 159.363 241.7 159.72C241.7 160.078 241.77 160.431 241.907 160.761C242.044 161.091 242.244 161.391 242.497 161.644C242.749 161.896 243.049 162.097 243.379 162.233C243.709 162.37 244.063 162.44 244.42 162.44C244.87 162.439 245.315 162.337 245.72 162.14L245.83 162.47C245.389 162.678 244.907 162.784 244.42 162.78C243.608 162.78 242.83 162.458 242.256 161.884C241.682 161.31 241.36 160.532 241.36 159.72C241.36 158.909 241.682 158.131 242.256 157.557C242.83 156.983 243.608 156.66 244.42 156.66C244.824 156.631 245.23 156.686 245.611 156.823C245.993 156.959 246.342 157.173 246.637 157.451C246.931 157.73 247.164 158.066 247.321 158.44C247.479 158.813 247.556 159.215 247.55 159.62ZM245.65 159.69C245.666 159.512 245.644 159.333 245.587 159.163C245.529 158.994 245.437 158.838 245.316 158.706C245.195 158.574 245.048 158.468 244.885 158.396C244.721 158.324 244.544 158.287 244.365 158.287C244.186 158.287 244.009 158.324 243.845 158.396C243.681 158.468 243.534 158.574 243.413 158.706C243.293 158.838 243.2 158.994 243.143 159.163C243.086 159.333 243.064 159.512 243.08 159.69C243.064 159.869 243.086 160.048 243.143 160.218C243.2 160.387 243.293 160.543 243.413 160.675C243.534 160.807 243.681 160.912 243.845 160.985C244.009 161.057 244.186 161.094 244.365 161.094C244.544 161.094 244.721 161.057 244.885 160.985C245.048 160.912 245.195 160.807 245.316 160.675C245.437 160.543 245.529 160.387 245.587 160.218C245.644 160.048 245.666 159.869 245.65 159.69Z" fill="#263238"/>
<path d="M251.65 159.78H248.65C248.66 159.954 248.704 160.124 248.78 160.28C248.856 160.436 248.962 160.576 249.092 160.691C249.222 160.806 249.374 160.895 249.538 160.951C249.703 161.008 249.876 161.031 250.05 161.02C250.255 161.026 250.458 160.987 250.647 160.906C250.835 160.825 251.003 160.703 251.14 160.55L251.41 160.86C251.155 161.128 250.826 161.315 250.465 161.397C250.104 161.479 249.727 161.453 249.381 161.321C249.036 161.19 248.736 160.959 248.52 160.659C248.305 160.358 248.183 160 248.17 159.63C248.157 159.396 248.194 159.161 248.276 158.941C248.358 158.721 248.485 158.521 248.648 158.352C248.811 158.183 249.008 158.049 249.225 157.96C249.442 157.87 249.675 157.826 249.91 157.83C250.144 157.826 250.376 157.87 250.592 157.96C250.809 158.05 251.004 158.183 251.165 158.353C251.327 158.522 251.452 158.723 251.532 158.943C251.612 159.163 251.645 159.397 251.63 159.63C251.63 159.63 251.65 159.73 251.65 159.78ZM248.65 159.42H251.17C251.17 159.086 251.037 158.766 250.801 158.529C250.565 158.293 250.244 158.16 249.91 158.16C249.576 158.16 249.255 158.293 249.019 158.529C248.783 158.766 248.65 159.086 248.65 159.42Z" fill="#263238"/>
<path d="M258.51 159.35V161.41H258V159.41C258 158.66 257.62 158.27 257 158.27C256.834 158.262 256.668 158.29 256.513 158.352C256.359 158.415 256.22 158.511 256.106 158.633C255.993 158.755 255.908 158.9 255.856 159.059C255.805 159.217 255.789 159.385 255.81 159.55V161.42H255.33V159.42C255.33 158.67 254.95 158.28 254.33 158.28C254.164 158.272 253.998 158.3 253.843 158.362C253.689 158.425 253.55 158.521 253.436 158.643C253.323 158.765 253.238 158.91 253.186 159.069C253.135 159.227 253.119 159.395 253.14 159.56V161.43H252.66V157.87H253.12V158.52C253.257 158.303 253.45 158.126 253.679 158.008C253.907 157.89 254.163 157.836 254.42 157.85C254.683 157.831 254.946 157.892 255.173 158.026C255.4 158.16 255.581 158.36 255.69 158.6C255.833 158.359 256.038 158.162 256.285 158.029C256.532 157.897 256.81 157.835 257.09 157.85C257.287 157.837 257.484 157.867 257.668 157.939C257.852 158.011 258.018 158.123 258.153 158.266C258.289 158.409 258.391 158.581 258.453 158.768C258.515 158.956 258.534 159.154 258.51 159.35Z" fill="#263238"/>
<path d="M262.49 159.21V161.41H262V160.86C261.866 161.056 261.683 161.213 261.468 161.315C261.254 161.417 261.016 161.46 260.78 161.44C259.97 161.44 259.48 161.02 259.48 160.44C259.48 159.86 259.83 159.44 260.85 159.44H262V159.23C262 158.62 261.66 158.29 261 158.29C260.569 158.284 260.15 158.433 259.82 158.71L259.6 158.35C260.012 158.025 260.525 157.856 261.05 157.87C261.237 157.843 261.427 157.858 261.608 157.914C261.788 157.97 261.954 158.066 262.092 158.195C262.23 158.323 262.338 158.481 262.407 158.657C262.475 158.833 262.504 159.022 262.49 159.21ZM262.01 160.34V159.76H260.9C260.21 159.76 259.98 160.03 259.98 160.4C259.98 160.77 260.31 161.07 260.88 161.07C261.12 161.082 261.357 161.018 261.558 160.887C261.759 160.756 261.914 160.564 262 160.34H262.01Z" fill="#263238"/>
<path d="M263.69 156.73C263.69 156.661 263.71 156.593 263.749 156.536C263.787 156.478 263.842 156.434 263.906 156.407C263.97 156.381 264.04 156.374 264.108 156.387C264.176 156.401 264.238 156.434 264.287 156.483C264.336 156.532 264.37 156.594 264.383 156.662C264.397 156.73 264.39 156.8 264.363 156.864C264.337 156.928 264.292 156.983 264.234 157.021C264.177 157.06 264.109 157.08 264.04 157.08C263.947 157.08 263.858 157.044 263.792 156.978C263.727 156.912 263.69 156.823 263.69 156.73ZM263.79 157.85H264.27V161.41H263.79V157.85Z" fill="#263238"/>
<path d="M265.61 156.39H266.09V161.39H265.61V156.39Z" fill="#263238"/>
<path d="M267.12 161.07C267.118 161.022 267.127 160.975 267.144 160.931C267.162 160.886 267.188 160.846 267.222 160.812C267.256 160.779 267.296 160.752 267.34 160.735C267.385 160.717 267.432 160.709 267.48 160.71C267.575 160.71 267.667 160.748 267.734 160.816C267.802 160.883 267.84 160.975 267.84 161.07C267.84 161.167 267.802 161.259 267.735 161.328C267.668 161.397 267.576 161.437 267.48 161.44C267.432 161.44 267.384 161.43 267.34 161.412C267.295 161.393 267.255 161.366 267.222 161.331C267.188 161.297 267.162 161.256 267.144 161.211C267.127 161.166 267.118 161.118 267.12 161.07Z" fill="#263238"/>
<path d="M268.4 159.63C268.393 159.389 268.436 159.149 268.525 158.926C268.615 158.702 268.75 158.5 268.922 158.331C269.094 158.162 269.299 158.03 269.524 157.944C269.749 157.858 269.989 157.819 270.23 157.83C270.505 157.812 270.779 157.867 271.025 157.99C271.271 158.113 271.48 158.3 271.63 158.53L271.27 158.77C271.157 158.609 271.008 158.478 270.834 158.388C270.66 158.297 270.466 158.25 270.27 158.25C269.923 158.28 269.6 158.438 269.364 158.695C269.129 158.951 268.998 159.287 268.998 159.635C268.998 159.983 269.129 160.319 269.364 160.575C269.6 160.832 269.923 160.99 270.27 161.02C270.467 161.022 270.661 160.975 270.835 160.885C271.009 160.794 271.159 160.662 271.27 160.5L271.63 160.74C271.478 160.969 271.269 161.154 271.023 161.277C270.778 161.4 270.504 161.456 270.23 161.44C269.988 161.451 269.747 161.412 269.521 161.325C269.296 161.239 269.09 161.106 268.918 160.936C268.746 160.766 268.612 160.562 268.522 160.337C268.433 160.113 268.391 159.872 268.4 159.63Z" fill="#263238"/>
<path d="M272.15 159.63C272.15 159.272 272.256 158.922 272.455 158.625C272.654 158.327 272.937 158.095 273.267 157.958C273.598 157.821 273.962 157.785 274.313 157.855C274.664 157.925 274.987 158.097 275.24 158.35C275.493 158.604 275.665 158.926 275.735 159.277C275.805 159.628 275.769 159.992 275.632 160.323C275.495 160.654 275.263 160.936 274.966 161.135C274.668 161.334 274.318 161.44 273.96 161.44C273.72 161.449 273.481 161.408 273.258 161.32C273.034 161.232 272.831 161.099 272.661 160.929C272.492 160.759 272.359 160.556 272.271 160.333C272.183 160.109 272.142 159.87 272.15 159.63ZM275.28 159.63C275.272 159.367 275.186 159.112 275.033 158.898C274.879 158.683 274.666 158.52 274.42 158.427C274.173 158.334 273.905 158.316 273.648 158.376C273.392 158.436 273.159 158.571 272.979 158.763C272.799 158.956 272.68 159.197 272.638 159.457C272.596 159.717 272.631 159.984 272.741 160.224C272.85 160.463 273.028 160.665 273.252 160.803C273.477 160.941 273.737 161.01 274 161C274.175 160.998 274.348 160.96 274.508 160.889C274.668 160.818 274.812 160.716 274.932 160.588C275.051 160.46 275.144 160.309 275.204 160.145C275.263 159.98 275.289 159.805 275.28 159.63Z" fill="#263238"/>
<path d="M282.61 159.35V161.41H282.13V159.41C282.13 158.66 281.75 158.27 281.13 158.27C280.964 158.262 280.797 158.29 280.643 158.352C280.489 158.415 280.35 158.511 280.236 158.633C280.123 158.755 280.038 158.9 279.986 159.059C279.935 159.217 279.919 159.385 279.94 159.55V161.42H279.46V159.42C279.46 158.67 279.08 158.28 278.46 158.28C278.294 158.272 278.127 158.3 277.973 158.362C277.819 158.425 277.68 158.521 277.566 158.643C277.453 158.765 277.368 158.91 277.316 159.069C277.265 159.227 277.249 159.395 277.27 159.56V161.43H276.79V157.87H277.25V158.52C277.387 158.303 277.58 158.126 277.809 158.008C278.037 157.89 278.293 157.836 278.55 157.85C278.813 157.831 279.076 157.892 279.303 158.026C279.53 158.16 279.71 158.36 279.82 158.6C279.963 158.36 280.169 158.163 280.416 158.031C280.663 157.899 280.941 157.836 281.22 157.85C281.414 157.842 281.608 157.875 281.789 157.949C281.969 158.023 282.13 158.135 282.263 158.278C282.395 158.421 282.495 158.591 282.555 158.776C282.615 158.961 282.633 159.157 282.61 159.35Z" fill="#263238"/>
<path d="M203.39 189.56L204.23 190.04L204.08 190.32L203.23 189.83V190.83H202.92V189.83L202.07 190.32L201.91 190.04L202.76 189.56L201.91 189.09L202.07 188.8L202.92 189.3V188.3H203.23V189.3L204.08 188.8L204.23 189.09L203.39 189.56Z" fill="#263238"/>
<path d="M206.14 189.56L206.98 190.04L206.82 190.32L205.98 189.83V190.83H205.66V189.83L204.82 190.32L204.65 190.04L205.5 189.56L204.65 189.09L204.82 188.8L205.66 189.3V188.3H206V189.3L206.84 188.8L207 189.09L206.14 189.56Z" fill="#263238"/>
<path d="M208.88 189.56L209.72 190.04L209.56 190.32L208.72 189.83V190.83H208.41V189.83L207.57 190.32L207.41 190.04L208.25 189.56L207.41 189.09L207.57 188.8L208.41 189.3V188.3H208.72V189.3L209.56 188.8L209.72 189.09L208.88 189.56Z" fill="#263238"/>
<path d="M211.62 189.56L212.46 190.04L212.31 190.32L211.46 189.83V190.83H211.15V189.83L210.3 190.32L210.14 190.04L210.99 189.56L210.14 189.09L210.3 188.8L211.15 189.3V188.3H211.46V189.3L212.31 188.8L212.46 189.09L211.62 189.56Z" fill="#263238"/>
<path d="M214.37 189.56L215.21 190.04L215.05 190.32L214.21 189.83V190.83H213.89V189.83L213.05 190.32L212.88 190.04L213.73 189.56L212.88 189.09L213.05 188.8L213.89 189.3V188.3H214.21V189.3L215.05 188.8L215.21 189.09L214.37 189.56Z" fill="#263238"/>
<path d="M217.11 189.56L217.95 190.04L217.79 190.32L216.95 189.83V190.83H216.64V189.83L215.8 190.32L215.64 190.04L216.48 189.56L215.64 189.09L215.8 188.8L216.64 189.3V188.3H217V189.3L217.84 188.8L218 189.09L217.11 189.56Z" fill="#263238"/>
<path d="M219.85 189.56L220.69 190.04L220.54 190.32L219.69 189.83V190.83H219.38V189.83L218.53 190.32L218.37 190.04L219.22 189.56L218.37 189.09L218.53 188.8L219.38 189.3V188.3H219.69V189.3L220.54 188.8L220.69 189.09L219.85 189.56Z" fill="#263238"/>
<path d="M222.6 189.56L223.44 190.04L223.28 190.32L222.43 189.83V190.83H222.12V189.83L221.28 190.32L221.11 190.04L221.96 189.56L221.11 189.09L221.28 188.8L222.12 189.3V188.3H222.43V189.3L223.28 188.8L223.44 189.09L222.6 189.56Z" fill="#263238"/>
<path d="M225.34 189.56L226.18 190.04L226.02 190.32L225.18 189.83V190.83H224.87V189.83L224.03 190.32L223.87 190.04L224.71 189.56L223.87 189.09L224.03 188.8L224.87 189.3V188.3H225.18V189.3L226.02 188.8L226.18 189.09L225.34 189.56Z" fill="#263238"/>
<path d="M228.08 189.56L228.92 190.04L228.77 190.32L227.92 189.83V190.83H227.61V189.83L226.76 190.32L226.6 190.04L227.44 189.56L226.6 189.09L226.76 188.8L227.61 189.3V188.3H227.92V189.3L228.77 188.8L228.92 189.09L228.08 189.56Z" fill="#263238"/>
<path d="M230.83 189.56L231.66 190.04L231.51 190.32L230.66 189.83V190.83H230.35V189.83L229.51 190.32L229.34 190.04L230.19 189.56L229.34 189.09L229.51 188.8L230.35 189.3V188.3H230.66V189.3L231.51 188.8L231.66 189.09L230.83 189.56Z" fill="#263238"/>
<path d="M202.94 176C202.94 177 202.21 177.62 201.01 177.62H199.74V179.11H199.23V174.4H201C202.21 174.4 202.94 175 202.94 176ZM202.44 176C202.44 175.24 201.94 174.81 200.99 174.81H199.74V177.18H201C201.94 177.2 202.44 176.77 202.44 176Z" fill="#263238"/>
<path d="M206.57 176.93V179.13H206.11V178.58C205.974 178.777 205.789 178.934 205.573 179.036C205.357 179.138 205.118 179.181 204.88 179.16C204.08 179.16 203.59 178.75 203.59 178.16C203.59 177.57 203.94 177.16 204.96 177.16H206.09V176.95C206.09 176.34 205.74 176.01 205.09 176.01C204.659 176.003 204.24 176.153 203.91 176.43L203.69 176.07C204.102 175.745 204.615 175.575 205.14 175.59C205.326 175.564 205.515 175.58 205.695 175.637C205.874 175.694 206.038 175.79 206.175 175.919C206.312 176.047 206.418 176.205 206.487 176.38C206.555 176.555 206.584 176.743 206.57 176.93ZM206.09 178.06V177.48H205C204.31 177.48 204.09 177.75 204.09 178.12C204.09 178.49 204.42 178.79 204.99 178.79C205.226 178.798 205.459 178.731 205.656 178.601C205.853 178.47 206.005 178.281 206.09 178.06Z" fill="#263238"/>
<path d="M207.38 178.73L207.59 178.35C207.962 178.612 208.405 178.751 208.86 178.75C209.53 178.75 209.81 178.52 209.81 178.16C209.81 177.24 207.51 177.97 207.51 176.56C207.51 175.98 208.01 175.56 208.91 175.56C209.352 175.555 209.787 175.669 210.17 175.89L209.96 176.27C209.648 176.067 209.282 175.963 208.91 175.97C208.27 175.97 207.99 176.22 207.99 176.56C207.99 177.56 210.29 176.8 210.29 178.16C210.29 178.78 209.75 179.16 208.82 179.16C208.306 179.177 207.801 179.026 207.38 178.73Z" fill="#263238"/>
<path d="M210.68 178.73L210.9 178.35C211.267 178.613 211.708 178.753 212.16 178.75C212.84 178.75 213.16 178.52 213.16 178.16C213.16 177.24 210.86 177.97 210.86 176.56C210.86 175.98 211.36 175.56 212.27 175.56C212.709 175.553 213.141 175.668 213.52 175.89L213.31 176.27C213.012 176.076 212.665 175.972 212.31 175.97C211.66 175.97 211.38 176.22 211.38 176.56C211.38 177.56 213.68 176.8 213.68 178.16C213.68 178.78 213.14 179.16 212.22 179.16C211.672 179.199 211.128 179.047 210.68 178.73Z" fill="#263238"/>
<path d="M219.63 175.58L218.28 179.13H217.83L216.71 176.22L215.59 179.13H215.13L213.8 175.58H214.26L215.37 178.58L216.51 175.58H216.93L218.06 178.58L219.19 175.58H219.63Z" fill="#263238"/>
<path d="M219.89 177.35C219.89 176.992 219.996 176.642 220.195 176.344C220.394 176.047 220.676 175.815 221.007 175.678C221.338 175.541 221.702 175.505 222.053 175.575C222.404 175.645 222.726 175.817 222.98 176.07C223.233 176.323 223.405 176.646 223.475 176.997C223.545 177.348 223.509 177.712 223.372 178.043C223.235 178.373 223.003 178.656 222.705 178.855C222.408 179.054 222.058 179.16 221.7 179.16C221.46 179.168 221.221 179.127 220.997 179.039C220.774 178.951 220.571 178.818 220.401 178.649C220.231 178.479 220.098 178.276 220.01 178.052C219.922 177.829 219.881 177.59 219.89 177.35ZM223.02 177.35C223.02 177 222.881 176.664 222.633 176.417C222.386 176.169 222.05 176.03 221.7 176.03C221.35 176.03 221.014 176.169 220.766 176.417C220.519 176.664 220.38 177 220.38 177.35C220.38 177.7 220.519 178.036 220.766 178.283C221.014 178.531 221.35 178.67 221.7 178.67C222.05 178.67 222.386 178.531 222.633 178.283C222.881 178.036 223.02 177.7 223.02 177.35Z" fill="#263238"/>
<path d="M226.28 175.55V176H226.16C225.991 175.993 225.823 176.022 225.667 176.087C225.511 176.152 225.371 176.251 225.257 176.376C225.144 176.501 225.059 176.649 225.009 176.811C224.96 176.972 224.946 177.143 224.97 177.31V179.12H224.49V175.57H225V176.26C225.12 176.03 225.306 175.84 225.533 175.713C225.761 175.587 226.02 175.53 226.28 175.55Z" fill="#263238"/>
<path d="M230.35 174.12V179.12H229.89V178.42C229.747 178.653 229.545 178.844 229.304 178.972C229.063 179.1 228.793 179.162 228.52 179.15C228.064 179.116 227.638 178.912 227.328 178.577C227.017 178.242 226.844 177.802 226.844 177.345C226.844 176.889 227.017 176.449 227.328 176.114C227.638 175.779 228.064 175.574 228.52 175.54C228.786 175.53 229.051 175.589 229.287 175.712C229.524 175.835 229.725 176.017 229.87 176.24V174.11L230.35 174.12ZM229.88 177.35C229.866 177.093 229.777 176.845 229.624 176.637C229.471 176.429 229.26 176.271 229.018 176.182C228.776 176.093 228.513 176.076 228.262 176.135C228.011 176.193 227.782 176.324 227.604 176.511C227.427 176.698 227.308 176.934 227.262 177.188C227.217 177.441 227.247 177.703 227.348 177.94C227.45 178.177 227.619 178.38 227.834 178.522C228.05 178.664 228.302 178.74 228.56 178.74C228.74 178.744 228.919 178.709 229.085 178.64C229.252 178.57 229.401 178.466 229.526 178.336C229.65 178.205 229.745 178.05 229.806 177.88C229.867 177.711 229.892 177.53 229.88 177.35Z" fill="#263238"/>
<path d="M237.46 215V219.74H237V215.44H235.88V215H237.46Z" fill="#263238"/>
<path d="M241.82 219.28V219.72H238.5V219.37L240.5 217.44C241.03 216.92 241.14 216.6 241.14 216.28C241.14 215.73 240.75 215.39 240.03 215.39C239.789 215.375 239.547 215.415 239.324 215.506C239.1 215.598 238.901 215.74 238.74 215.92L238.39 215.62C238.603 215.391 238.864 215.211 239.155 215.094C239.445 214.976 239.757 214.924 240.07 214.94C241.07 214.94 241.64 215.43 241.64 216.22C241.625 216.509 241.547 216.79 241.412 217.046C241.278 217.301 241.089 217.525 240.86 217.7L239.25 219.28H241.82Z" fill="#263238"/>
<path d="M245.56 218.36C245.56 219.15 244.98 219.76 243.84 219.76C243.217 219.78 242.609 219.562 242.14 219.15L242.37 218.76C242.77 219.127 243.297 219.325 243.84 219.31C244.63 219.31 245.06 218.95 245.06 218.36C245.06 217.77 244.66 217.42 243.78 217.42H243.44V217.06L244.75 215.42H242.33V215H245.33V215.35L244 217C245.05 217.07 245.56 217.6 245.56 218.36Z" fill="#263238"/>
<path d="M250.26 218.47H249.31V219.72H248.83V218.47H246.16V218.12L248.67 214.98H249.21L246.79 218H248.84V216.9H249.31V218H250.26V218.47Z" fill="#263238"/>
<path d="M255.69 218.32C255.69 219.13 255.13 219.76 253.97 219.76C253.347 219.779 252.739 219.561 252.27 219.15L252.51 218.76C252.703 218.944 252.931 219.087 253.18 219.181C253.429 219.276 253.694 219.32 253.96 219.31C254.77 219.31 255.19 218.92 255.19 218.31C255.19 217.7 254.81 217.31 253.61 217.31H252.61L252.86 214.93H255.45V215.37H253.28L253.12 216.87H253.73C255.15 216.92 255.69 217.49 255.69 218.32Z" fill="#263238"/>
<path d="M259.86 218.3C259.858 218.505 259.814 218.708 259.729 218.894C259.645 219.081 259.523 219.249 259.371 219.386C259.218 219.523 259.039 219.628 258.845 219.692C258.65 219.756 258.444 219.779 258.24 219.76C256.98 219.76 256.3 218.88 256.3 217.39C256.3 215.9 257.18 214.94 258.46 214.94C258.853 214.925 259.243 215.015 259.59 215.2L259.39 215.59C259.111 215.43 258.791 215.354 258.47 215.37C257.47 215.37 256.79 216.02 256.79 217.31C256.79 217.42 256.79 217.55 256.79 217.69C256.928 217.43 257.138 217.215 257.395 217.071C257.653 216.928 257.946 216.861 258.24 216.88C258.442 216.855 258.647 216.872 258.842 216.932C259.036 216.992 259.216 217.092 259.369 217.226C259.522 217.36 259.645 217.525 259.73 217.71C259.814 217.896 259.859 218.097 259.86 218.3ZM259.38 218.3C259.38 217.67 258.92 217.3 258.19 217.3C258.043 217.282 257.895 217.294 257.753 217.335C257.612 217.376 257.48 217.445 257.366 217.539C257.252 217.632 257.158 217.748 257.09 217.879C257.022 218.01 256.981 218.153 256.97 218.3C256.97 218.82 257.4 219.3 258.22 219.3C258.362 219.323 258.508 219.315 258.647 219.277C258.786 219.238 258.915 219.17 259.025 219.077C259.135 218.984 259.224 218.868 259.285 218.737C259.347 218.607 259.379 218.464 259.38 218.32V218.3Z" fill="#263238"/>
<path d="M263.7 215V215.35L261.7 219.74H261.17L263.12 215.44H260.69V216.32H260.21V215H263.7Z" fill="#263238"/>
<path d="M267.85 218.4C267.85 219.24 267.14 219.76 266.01 219.76C264.88 219.76 264.19 219.24 264.19 218.4C264.187 218.131 264.275 217.869 264.441 217.656C264.606 217.443 264.838 217.293 265.1 217.23C264.882 217.171 264.69 217.041 264.556 216.859C264.421 216.677 264.352 216.456 264.36 216.23C264.36 215.46 265.01 214.98 266.01 214.98C267.01 214.98 267.68 215.46 267.68 216.23C267.676 216.456 267.601 216.675 267.464 216.855C267.327 217.035 267.137 217.166 266.92 217.23C267.185 217.291 267.42 217.44 267.589 217.653C267.758 217.865 267.85 218.129 267.85 218.4ZM267.35 218.4C267.35 217.82 266.85 217.45 266.01 217.45C265.17 217.45 264.68 217.82 264.68 218.4C264.68 218.98 265.17 219.4 266.01 219.4C266.85 219.4 267.35 219 267.35 218.39V218.4ZM266 217.06C266.74 217.06 267.18 216.73 267.18 216.21C267.18 215.69 266.71 215.36 266 215.36C265.29 215.36 264.83 215.68 264.83 216.21C264.83 216.74 265.27 217.06 266 217.06Z" fill="#263238"/>
<path d="M273.71 217.31C273.71 218.92 272.83 219.76 271.54 219.76C271.15 219.774 270.764 219.684 270.42 219.5L270.62 219.11C270.899 219.27 271.219 219.347 271.54 219.33C272.54 219.33 273.21 218.67 273.21 217.39C273.219 217.264 273.219 217.137 273.21 217.01C273.076 217.271 272.867 217.487 272.611 217.631C272.355 217.775 272.063 217.841 271.77 217.82C271.569 217.843 271.367 217.823 271.174 217.762C270.982 217.701 270.805 217.6 270.654 217.466C270.503 217.332 270.382 217.168 270.299 216.985C270.215 216.801 270.171 216.602 270.17 216.4C270.172 216.195 270.216 215.993 270.3 215.806C270.385 215.619 270.507 215.451 270.659 215.314C270.811 215.177 270.991 215.073 271.185 215.008C271.38 214.944 271.586 214.921 271.79 214.94C273 214.94 273.71 215.82 273.71 217.31ZM273.04 216.37C273.04 215.85 272.61 215.37 271.79 215.37C271.646 215.347 271.498 215.355 271.358 215.395C271.217 215.435 271.087 215.505 270.977 215.6C270.866 215.695 270.778 215.814 270.718 215.947C270.658 216.08 270.628 216.224 270.63 216.37C270.63 217 271.09 217.37 271.82 217.37C272.109 217.392 272.394 217.3 272.615 217.113C272.836 216.925 272.974 216.659 273 216.37H273.04Z" fill="#263238"/>
<path d="M275.71 215V219.74H275.22V215.44H274.1V215H275.71Z" fill="#263238"/>
<path d="M276.83 217.35C276.83 215.84 277.63 214.94 278.72 214.94C279.81 214.94 280.61 215.84 280.61 217.35C280.61 218.86 279.82 219.76 278.72 219.76C277.62 219.76 276.83 218.86 276.83 217.35ZM280.11 217.35C280.11 216.09 279.55 215.35 278.72 215.35C277.89 215.35 277.33 216.05 277.33 217.35C277.33 218.65 277.9 219.35 278.72 219.35C279.54 219.35 280.11 218.61 280.11 217.35Z" fill="#263238"/>
<path d="M282.61 215V219.74H282.12V215.44H281V215H282.61Z" fill="#263238"/>
<path d="M286.82 215V219.74H286.33V215.44H285.21V215H286.82Z" fill="#263238"/>
<path d="M289.25 215V219.74H288.77V215.44H287.65V215H289.25Z" fill="#263238"/>
<path d="M293.61 219.28V219.72H290.29V219.37L292.29 217.44C292.82 216.92 292.93 216.6 292.93 216.28C292.93 215.73 292.54 215.39 291.82 215.39C291.579 215.375 291.337 215.414 291.113 215.506C290.89 215.598 290.69 215.739 290.53 215.92L290.18 215.62C290.394 215.392 290.655 215.213 290.945 215.095C291.235 214.978 291.547 214.925 291.86 214.94C292.86 214.94 293.43 215.43 293.43 216.22C293.414 216.508 293.337 216.79 293.202 217.045C293.067 217.301 292.879 217.524 292.65 217.7L291 219.28H293.61Z" fill="#263238"/>
<path d="M295.53 215V219.74H295V215.44H293.89V215H295.53Z" fill="#263238"/>
<path d="M200.69 242.8C200.69 241.29 201.48 240.4 202.58 240.4C203.68 240.4 204.47 241.29 204.47 242.8C204.47 244.31 203.67 245.21 202.58 245.21C201.49 245.21 200.69 244.31 200.69 242.8ZM203.97 242.8C203.97 241.54 203.4 240.8 202.58 240.8C201.76 240.8 201.19 241.5 201.19 242.8C201.19 244.1 201.75 244.8 202.58 244.8C203.41 244.8 204 244.07 204 242.8H203.97Z" fill="#263238"/>
<path d="M208.8 243.85C208.8 244.69 208.09 245.21 206.96 245.21C205.83 245.21 205.14 244.69 205.14 243.85C205.135 243.582 205.223 243.32 205.389 243.109C205.555 242.898 205.788 242.75 206.05 242.69C205.838 242.622 205.652 242.488 205.52 242.309C205.387 242.13 205.314 241.913 205.31 241.69C205.31 240.92 205.96 240.44 206.96 240.44C207.96 240.44 208.63 240.92 208.63 241.69C208.624 241.914 208.549 242.131 208.414 242.31C208.28 242.489 208.093 242.622 207.88 242.69C208.143 242.75 208.377 242.897 208.544 243.108C208.712 243.319 208.802 243.581 208.8 243.85ZM208.3 243.85C208.3 243.27 207.8 242.91 206.96 242.91C206.12 242.91 205.63 243.27 205.63 243.85C205.63 244.43 206.13 244.85 206.96 244.85C207.79 244.85 208.3 244.43 208.3 243.84V243.85ZM207 242.51C207.74 242.51 208.18 242.18 208.18 241.67C208.18 241.16 207.71 240.81 207 240.81C206.29 240.81 205.83 241.13 205.83 241.66C205.83 242.19 206.23 242.51 207 242.51Z" fill="#263238"/>
<path d="M211.19 239.48H211.63L209.39 245.84H209L211.19 239.48Z" fill="#263238"/>
<path d="M215 244.73V245.17H211.68V244.82L213.68 242.9C214.21 242.37 214.31 242.05 214.31 241.73C214.31 241.18 213.93 240.84 213.21 240.84C212.967 240.825 212.724 240.865 212.499 240.956C212.274 241.048 212.072 241.19 211.91 241.37L211.57 241.07C211.783 240.842 212.044 240.663 212.335 240.547C212.625 240.431 212.938 240.381 213.25 240.4C214.25 240.4 214.81 240.88 214.81 241.67C214.8 241.959 214.725 242.241 214.592 242.497C214.459 242.753 214.27 242.977 214.04 243.15L212.43 244.73H215Z" fill="#263238"/>
<path d="M218.79 243.77C218.79 244.58 218.23 245.21 217.07 245.21C216.447 245.229 215.839 245.011 215.37 244.6L215.61 244.21C215.803 244.394 216.031 244.537 216.28 244.631C216.529 244.726 216.794 244.77 217.06 244.76C217.87 244.76 218.29 244.37 218.29 243.76C218.29 243.15 217.92 242.76 216.71 242.76H215.71L215.95 240.39H218.54V240.82H216.37L216.21 242.33H216.82C218.25 242.38 218.79 242.94 218.79 243.77Z" fill="#263238"/>
<path d="M202.9 237.39V237.66H200.82V234.72H202.82V235H201.12V236H202.64V236.27H201.12V237.36L202.9 237.39Z" fill="#263238"/>
<path d="M205.43 237.66L204.49 236.36L203.49 237.66H203.13L204.25 236.15L203.25 234.72H203.6L204.49 235.92L205.37 234.72H205.7L204.7 236.14L205.82 237.66H205.43Z" fill="#263238"/>
<path d="M208.55 235.73C208.55 236.35 208.09 236.73 207.35 236.73H206.56V237.66H206.25V234.72H207.35C208.09 234.72 208.55 235.1 208.55 235.73ZM208.24 235.73C208.24 235.26 207.93 234.99 207.34 234.99H206.56V236.46H207.34C207.93 236.46 208.24 236.19 208.24 235.73Z" fill="#263238"/>
<path d="M210.37 234.72H211.56C211.95 234.72 212.324 234.875 212.6 235.151C212.875 235.426 213.03 235.8 213.03 236.19C213.03 236.58 212.875 236.954 212.6 237.23C212.324 237.505 211.95 237.66 211.56 237.66H210.37V234.72ZM211.54 237.39C211.858 237.39 212.164 237.264 212.389 237.039C212.614 236.814 212.74 236.508 212.74 236.19C212.74 235.872 212.614 235.567 212.389 235.342C212.164 235.117 211.858 234.99 211.54 234.99H210.68V237.39H211.54Z" fill="#263238"/>
<path d="M215.44 236.29V237.66H215.15V237.31C215.069 237.435 214.955 237.536 214.821 237.601C214.687 237.666 214.538 237.694 214.39 237.68C213.9 237.68 213.59 237.42 213.59 237.04C213.59 236.66 213.81 236.41 214.44 236.41H215.14V236.28C215.148 236.198 215.138 236.115 215.11 236.037C215.081 235.96 215.035 235.89 214.975 235.833C214.915 235.776 214.843 235.733 214.764 235.709C214.685 235.684 214.602 235.678 214.52 235.69C214.25 235.686 213.988 235.778 213.78 235.95L213.65 235.73C213.905 235.528 214.224 235.422 214.55 235.43C214.668 235.413 214.789 235.423 214.903 235.459C215.017 235.496 215.121 235.558 215.207 235.641C215.293 235.724 215.359 235.826 215.399 235.939C215.439 236.051 215.453 236.172 215.44 236.29ZM215.14 236.99V236.63H214.45C214.02 236.63 213.88 236.8 213.88 237.03C213.88 237.26 214.09 237.44 214.44 237.44C214.588 237.451 214.736 237.414 214.862 237.335C214.988 237.256 215.085 237.139 215.14 237V236.99Z" fill="#263238"/>
<path d="M217.41 237.52C217.283 237.63 217.118 237.687 216.95 237.68C216.863 237.689 216.776 237.679 216.693 237.65C216.611 237.622 216.536 237.575 216.474 237.514C216.412 237.453 216.364 237.378 216.334 237.296C216.304 237.214 216.292 237.127 216.3 237.04V235.7H215.91V235.45H216.3V235H216.6V235.48H217.27V235.73H216.6V237C216.592 237.053 216.597 237.106 216.613 237.157C216.629 237.208 216.656 237.254 216.693 237.293C216.729 237.331 216.774 237.361 216.824 237.38C216.874 237.398 216.927 237.405 216.98 237.4C217.1 237.402 217.216 237.363 217.31 237.29L217.41 237.52Z" fill="#263238"/>
<path d="M219.8 236.65H218C218.015 236.866 218.115 237.067 218.278 237.209C218.441 237.352 218.654 237.424 218.87 237.41C218.997 237.416 219.125 237.392 219.242 237.342C219.36 237.292 219.465 237.216 219.55 237.12L219.72 237.32C219.611 237.439 219.477 237.532 219.329 237.594C219.181 237.656 219.02 237.686 218.86 237.68C218.708 237.689 218.557 237.665 218.415 237.612C218.272 237.558 218.143 237.476 218.035 237.369C217.927 237.263 217.842 237.135 217.786 236.994C217.73 236.853 217.704 236.702 217.71 236.55C217.701 236.405 217.723 236.26 217.773 236.124C217.824 235.988 217.901 235.863 218.002 235.758C218.102 235.653 218.223 235.57 218.357 235.513C218.49 235.457 218.634 235.429 218.78 235.43C218.928 235.419 219.076 235.44 219.215 235.493C219.353 235.546 219.478 235.629 219.58 235.736C219.683 235.844 219.76 235.972 219.807 236.113C219.853 236.254 219.868 236.403 219.85 236.55L219.8 236.65ZM217.95 236.42H219.52C219.498 236.227 219.406 236.049 219.261 235.92C219.116 235.791 218.929 235.719 218.735 235.719C218.541 235.719 218.353 235.791 218.208 235.92C218.064 236.049 217.972 236.227 217.95 236.42Z" fill="#263238"/>
<path d="M256.54 240.44V245.17H256.06V240.87H254.94V240.44H256.54Z" fill="#263238"/>
<path d="M260.9 244.73V245.17H257.58V244.82L259.58 242.9C260.11 242.37 260.22 242.05 260.22 241.73C260.22 241.18 259.83 240.84 259.11 240.84C258.869 240.825 258.627 240.865 258.404 240.956C258.18 241.048 257.98 241.19 257.82 241.37L257.47 241.07C257.684 240.843 257.945 240.665 258.235 240.549C258.526 240.433 258.838 240.383 259.15 240.4C260.15 240.4 260.72 240.88 260.72 241.67C260.704 241.959 260.627 242.24 260.492 242.496C260.357 242.751 260.169 242.975 259.94 243.15L258.33 244.73H260.9Z" fill="#263238"/>
<path d="M264.64 243.81C264.64 244.6 264.06 245.21 262.92 245.21C262.296 245.23 261.689 245.012 261.22 244.6L261.46 244.21C261.654 244.395 261.883 244.539 262.134 244.634C262.385 244.728 262.652 244.771 262.92 244.76C263.71 244.76 264.14 244.4 264.14 243.81C264.14 243.22 263.74 242.87 262.86 242.87H262.52V242.51L263.83 240.87H261.41V240.44H264.41V240.78L263.07 242.46C264.13 242.52 264.64 243.05 264.64 243.81Z" fill="#263238"/>
<path d="M255.1 236.19C255.097 235.989 255.135 235.789 255.212 235.603C255.289 235.417 255.403 235.249 255.547 235.109C255.691 234.968 255.862 234.859 256.05 234.787C256.238 234.715 256.439 234.682 256.64 234.69C256.838 234.684 257.036 234.719 257.22 234.793C257.404 234.867 257.571 234.978 257.71 235.12L257.52 235.32C257.406 235.206 257.27 235.116 257.121 235.056C256.971 234.996 256.811 234.967 256.65 234.97C256.481 234.955 256.311 234.975 256.15 235.029C255.989 235.083 255.842 235.17 255.717 235.284C255.592 235.399 255.492 235.538 255.423 235.693C255.355 235.848 255.319 236.016 255.319 236.185C255.319 236.355 255.355 236.522 255.423 236.677C255.492 236.833 255.592 236.972 255.717 237.086C255.842 237.2 255.989 237.287 256.15 237.341C256.311 237.395 256.481 237.416 256.65 237.4C256.811 237.406 256.972 237.378 257.122 237.318C257.272 237.258 257.407 237.166 257.52 237.05L257.71 237.25C257.571 237.395 257.403 237.508 257.216 237.583C257.03 237.657 256.83 237.69 256.63 237.68C256.43 237.688 256.231 237.656 256.044 237.584C255.857 237.513 255.687 237.404 255.544 237.265C255.401 237.125 255.288 236.958 255.211 236.773C255.135 236.588 255.097 236.39 255.1 236.19Z" fill="#263238"/>
<path d="M262.38 234.72L261.38 237.66H261.05L260.19 235.15L259.33 237.66H259L258 234.72H258.32L259.17 237.25L260.05 234.72H260.34L261.2 237.26L262.06 234.72H262.38Z" fill="#263238"/>
<path d="M230.31 270.58H227.67L227.1 271.85H226.58L228.74 267.12H229.24L231.4 271.85H230.87L230.31 270.58ZM230.12 270.18L229 267.64L227.86 270.18H230.12Z" fill="#263238"/>
<path d="M231.69 270.07C231.682 269.828 231.723 269.587 231.812 269.363C231.902 269.138 232.036 268.934 232.208 268.764C232.38 268.594 232.586 268.461 232.811 268.375C233.037 268.288 233.278 268.249 233.52 268.26C233.794 268.244 234.067 268.301 234.312 268.426C234.556 268.551 234.763 268.739 234.91 268.97L234.56 269.21C234.448 269.048 234.299 268.915 234.125 268.823C233.951 268.731 233.757 268.682 233.56 268.68C233.191 268.68 232.838 268.826 232.577 269.087C232.316 269.348 232.17 269.701 232.17 270.07C232.17 270.439 232.316 270.792 232.577 271.053C232.838 271.314 233.191 271.46 233.56 271.46C233.756 271.458 233.949 271.411 234.123 271.32C234.296 271.23 234.446 271.1 234.56 270.94L234.91 271.18C234.76 271.408 234.553 271.593 234.309 271.716C234.065 271.839 233.793 271.895 233.52 271.88C233.278 271.891 233.037 271.852 232.811 271.765C232.586 271.679 232.38 271.546 232.208 271.376C232.036 271.206 231.902 271.002 231.812 270.777C231.723 270.553 231.682 270.312 231.69 270.07Z" fill="#263238"/>
<path d="M237.76 271.63C237.549 271.803 237.282 271.892 237.01 271.88C236.876 271.889 236.742 271.869 236.617 271.822C236.492 271.775 236.378 271.702 236.283 271.607C236.188 271.512 236.115 271.398 236.068 271.273C236.021 271.148 236.001 271.014 236.01 270.88V268.7H235.38V268.29H236V267.51H236.48V268.29H237.57V268.7H236.48V270.82C236.467 270.906 236.474 270.993 236.501 271.076C236.527 271.158 236.572 271.234 236.631 271.296C236.691 271.359 236.764 271.407 236.846 271.437C236.927 271.468 237.014 271.479 237.1 271.47C237.292 271.473 237.479 271.41 237.63 271.29L237.76 271.63Z" fill="#263238"/>
<path d="M238.53 267.17C238.53 267.077 238.567 266.988 238.632 266.923C238.698 266.857 238.787 266.82 238.88 266.82C238.973 266.82 239.062 266.857 239.127 266.923C239.193 266.988 239.23 267.077 239.23 267.17C239.23 267.263 239.193 267.352 239.127 267.418C239.062 267.483 238.973 267.52 238.88 267.52C238.787 267.52 238.698 267.483 238.632 267.418C238.567 267.352 238.53 267.263 238.53 267.17ZM238.64 268.29H239.12V271.85H238.64V268.29Z" fill="#263238"/>
<path d="M240.09 270.07C240.09 269.713 240.196 269.363 240.394 269.066C240.593 268.768 240.875 268.536 241.205 268.399C241.535 268.262 241.899 268.225 242.25 268.294C242.6 268.363 242.923 268.535 243.176 268.787C243.43 269.039 243.603 269.361 243.674 269.711C243.745 270.061 243.711 270.425 243.575 270.756C243.44 271.087 243.209 271.37 242.913 271.57C242.617 271.77 242.268 271.878 241.91 271.88C241.67 271.889 241.43 271.847 241.206 271.76C240.982 271.672 240.779 271.539 240.608 271.369C240.438 271.2 240.304 270.997 240.215 270.773C240.125 270.55 240.083 270.311 240.09 270.07ZM243.22 270.07C243.206 269.812 243.117 269.564 242.964 269.356C242.81 269.148 242.599 268.99 242.356 268.901C242.114 268.812 241.85 268.796 241.599 268.856C241.347 268.915 241.119 269.047 240.941 269.235C240.764 269.423 240.646 269.659 240.602 269.914C240.557 270.168 240.589 270.43 240.692 270.667C240.795 270.904 240.965 271.106 241.182 271.247C241.398 271.388 241.652 271.462 241.91 271.46C242.09 271.462 242.267 271.427 242.432 271.356C242.597 271.286 242.746 271.182 242.869 271.052C242.992 270.921 243.087 270.767 243.147 270.598C243.208 270.429 243.233 270.249 243.22 270.07Z" fill="#263238"/>
<path d="M248 269.79V271.85H247.52V269.85C247.54 269.703 247.526 269.552 247.481 269.41C247.435 269.268 247.358 269.138 247.255 269.03C247.152 268.921 247.027 268.837 246.888 268.784C246.748 268.73 246.599 268.709 246.45 268.72C246.28 268.708 246.11 268.732 245.951 268.793C245.792 268.853 245.649 268.948 245.53 269.07C245.412 269.192 245.322 269.339 245.267 269.5C245.211 269.66 245.192 269.831 245.21 270V271.87H244.73V268.31H245.19V269C245.334 268.777 245.535 268.595 245.772 268.474C246.009 268.353 246.274 268.296 246.54 268.31C246.737 268.297 246.935 268.326 247.119 268.396C247.304 268.466 247.471 268.574 247.61 268.715C247.749 268.856 247.855 269.024 247.923 269.21C247.99 269.396 248.016 269.594 248 269.79Z" fill="#263238"/>
<path d="M251.64 267.55V269.41H254.08V269.84H251.64V271.84H251.14V267.11H254.38V267.54L251.64 267.55Z" fill="#263238"/>
<path d="M255.14 267.17C255.14 267.077 255.177 266.988 255.243 266.923C255.308 266.857 255.397 266.82 255.49 266.82C255.583 266.82 255.672 266.857 255.738 266.923C255.803 266.988 255.84 267.077 255.84 267.17C255.84 267.263 255.803 267.352 255.738 267.418C255.672 267.483 255.583 267.52 255.49 267.52C255.397 267.52 255.308 267.483 255.243 267.418C255.177 267.352 255.14 267.263 255.14 267.17ZM255.24 268.29H255.72V271.85H255.24V268.29Z" fill="#263238"/>
<path d="M260.35 268.29V271.42C260.387 271.661 260.367 271.908 260.292 272.14C260.216 272.372 260.087 272.582 259.914 272.755C259.742 272.927 259.531 273.057 259.299 273.132C259.067 273.208 258.821 273.228 258.58 273.19C257.979 273.217 257.39 273.025 256.92 272.65L257.16 272.28C257.553 272.605 258.05 272.779 258.56 272.77C259.46 272.77 259.87 272.35 259.87 271.48V271C259.719 271.224 259.512 271.406 259.27 271.527C259.029 271.647 258.76 271.704 258.49 271.69C258.252 271.708 258.014 271.677 257.789 271.599C257.564 271.52 257.357 271.396 257.182 271.234C257.008 271.072 256.868 270.876 256.773 270.658C256.678 270.439 256.628 270.204 256.628 269.965C256.628 269.727 256.678 269.491 256.773 269.273C256.868 269.055 257.008 268.858 257.182 268.696C257.357 268.534 257.564 268.41 257.789 268.332C258.014 268.253 258.252 268.222 258.49 268.24C258.764 268.229 259.037 268.289 259.282 268.413C259.527 268.537 259.736 268.722 259.89 268.95V268.27L260.35 268.29ZM259.89 269.98C259.898 269.712 259.825 269.447 259.682 269.22C259.539 268.993 259.331 268.813 259.085 268.705C258.839 268.597 258.566 268.564 258.302 268.612C258.037 268.659 257.793 268.784 257.6 268.972C257.407 269.159 257.275 269.399 257.219 269.662C257.164 269.925 257.188 270.198 257.289 270.447C257.39 270.696 257.563 270.91 257.786 271.06C258.009 271.21 258.271 271.29 258.54 271.29C258.715 271.301 258.89 271.276 259.055 271.216C259.22 271.156 259.371 271.062 259.497 270.941C259.624 270.82 259.725 270.674 259.792 270.512C259.86 270.35 259.893 270.176 259.89 270V269.98Z" fill="#263238"/>
<path d="M264.9 268.29V271.85H264.44V271.2C264.307 271.418 264.118 271.596 263.893 271.716C263.668 271.835 263.414 271.892 263.16 271.88C262.955 271.899 262.749 271.873 262.557 271.802C262.364 271.731 262.189 271.619 262.045 271.472C261.902 271.326 261.793 271.149 261.726 270.955C261.659 270.761 261.637 270.554 261.66 270.35V268.29H262.14V270.29C262.118 270.439 262.13 270.59 262.176 270.734C262.221 270.877 262.297 271.008 262.4 271.118C262.503 271.227 262.629 271.312 262.769 271.366C262.909 271.42 263.06 271.442 263.21 271.43C263.378 271.438 263.546 271.41 263.702 271.347C263.858 271.284 263.998 271.188 264.113 271.065C264.228 270.942 264.315 270.796 264.368 270.636C264.421 270.477 264.439 270.307 264.42 270.14V268.27L264.9 268.29Z" fill="#263238"/>
<path d="M268 268.26V268.73H267.88C267.71 268.723 267.54 268.753 267.383 268.818C267.226 268.884 267.085 268.983 266.971 269.109C266.856 269.235 266.771 269.384 266.72 269.547C266.67 269.71 266.657 269.882 266.68 270.05V271.86H266.2V268.3H266.66V269C266.785 268.757 266.978 268.557 267.217 268.426C267.456 268.294 267.729 268.236 268 268.26Z" fill="#263238"/>
<path d="M272 270.22H269C269.01 270.394 269.054 270.563 269.13 270.72C269.206 270.876 269.312 271.016 269.442 271.131C269.573 271.246 269.724 271.334 269.888 271.391C270.053 271.447 270.227 271.471 270.4 271.46C270.605 271.466 270.809 271.427 270.997 271.345C271.185 271.264 271.353 271.143 271.49 270.99L271.76 271.3C271.505 271.568 271.176 271.755 270.815 271.837C270.454 271.919 270.077 271.892 269.732 271.761C269.386 271.63 269.086 271.399 268.871 271.098C268.655 270.798 268.533 270.44 268.52 270.07C268.508 269.835 268.544 269.6 268.626 269.379C268.708 269.159 268.835 268.958 268.998 268.788C269.161 268.618 269.357 268.484 269.574 268.393C269.791 268.302 270.025 268.257 270.26 268.26C270.495 268.255 270.728 268.3 270.945 268.39C271.162 268.481 271.357 268.615 271.519 268.786C271.681 268.956 271.806 269.158 271.885 269.379C271.964 269.6 271.997 269.836 271.98 270.07C271.98 270.07 272 270.16 272 270.22ZM269 269.86H271.52C271.52 269.526 271.387 269.205 271.151 268.969C270.915 268.733 270.594 268.6 270.26 268.6C269.926 268.6 269.605 268.733 269.369 268.969C269.133 269.205 269 269.526 269 269.86Z" fill="#263238"/>
<path d="M232.43 290.82V292.9H230.58V290.9C228.927 290.849 227.322 290.332 225.95 289.41L226.95 287.15C228.018 287.896 229.262 288.351 230.56 288.47V285.37C228.49 284.86 226.19 284.18 226.19 281.52C226.19 279.52 227.62 277.86 230.56 277.52V275.46H232.41V277.46C233.739 277.535 235.031 277.926 236.18 278.6L235.25 280.88C234.378 280.363 233.413 280.023 232.41 279.88V283.04C234.47 283.52 236.74 284.21 236.74 286.83C236.76 288.8 235.35 290.47 232.43 290.82ZM230.58 282.62V280C229.58 280.22 229.2 280.76 229.2 281.37C229.2 281.98 229.76 282.36 230.58 282.62ZM233.77 287.09C233.77 286.44 233.23 286.09 232.43 285.81V288.37C233.36 288.17 233.77 287.69 233.77 287.09Z" fill="#263238"/>
<path d="M247.71 288.22V290.68H237.89V288.73L242.89 283.99C244.05 282.89 244.25 282.23 244.25 281.59C244.25 280.59 243.54 279.98 242.17 279.98C241.649 279.96 241.132 280.068 240.663 280.295C240.194 280.522 239.788 280.86 239.48 281.28L237.29 279.87C237.882 279.071 238.664 278.431 239.564 278.009C240.465 277.586 241.457 277.394 242.45 277.45C245.35 277.45 247.28 278.94 247.28 281.3C247.28 282.56 246.92 283.71 245.1 285.4L242.1 288.22H247.71Z" fill="#263238"/>
<path d="M248.92 284.18C248.92 279.89 251.3 277.45 254.49 277.45C257.68 277.45 260.06 279.89 260.06 284.18C260.06 288.47 257.7 290.9 254.49 290.9C251.28 290.9 248.92 288.47 248.92 284.18ZM257.04 284.18C257.04 281.18 256.04 280 254.49 280C252.94 280 251.97 281.22 251.97 284.18C251.97 287.14 252.97 288.35 254.49 288.35C256.01 288.35 257 287.13 257 284.18H257.04Z" fill="#263238"/>
<path d="M261.53 284.18C261.53 279.89 263.91 277.45 267.1 277.45C270.29 277.45 272.67 279.89 272.67 284.18C272.67 288.47 270.31 290.9 267.1 290.9C263.89 290.9 261.53 288.47 261.53 284.18ZM269.64 284.18C269.64 281.18 268.64 280 267.1 280C265.56 280 264.57 281.22 264.57 284.18C264.57 287.14 265.57 288.35 267.1 288.35C268.63 288.35 269.64 287.13 269.64 284.18Z" fill="#263238"/>
<path d="M270.15 323.78H228.69C226.118 323.777 223.652 322.755 221.834 320.936C220.015 319.118 218.992 316.652 218.99 314.08C218.99 311.507 220.011 309.038 221.83 307.218C223.649 305.397 226.116 304.373 228.69 304.37H270.15C271.424 304.37 272.687 304.621 273.864 305.109C275.042 305.598 276.111 306.313 277.012 307.215C277.913 308.117 278.627 309.187 279.114 310.365C279.601 311.543 279.851 312.805 279.85 314.08C279.85 316.653 278.828 319.12 277.009 320.939C275.19 322.758 272.722 323.78 270.15 323.78Z" fill="#263238"/>
<path d="M236.12 313C236.12 314.22 235.24 314.95 233.79 314.95H232.25V316.75H231.65V311.05H233.79C235.24 311.09 236.12 311.82 236.12 313ZM235.51 313C235.51 312.09 234.91 311.57 233.77 311.57H232.25V314.42H233.77C234.91 314.46 235.51 313.94 235.51 313Z" fill="white"/>
<path d="M240.49 314.13V316.79H239.94V316.12C239.779 316.36 239.557 316.552 239.296 316.677C239.036 316.801 238.747 316.854 238.46 316.83C237.46 316.83 236.9 316.33 236.9 315.58C236.9 314.83 237.32 314.37 238.55 314.37H239.91V314.11C239.91 313.38 239.5 312.98 238.7 312.98C238.179 312.972 237.672 313.15 237.27 313.48L237.01 313.05C237.508 312.658 238.127 312.453 238.76 312.47C238.989 312.437 239.222 312.457 239.442 312.527C239.662 312.598 239.863 312.718 240.03 312.878C240.197 313.038 240.325 313.234 240.405 313.451C240.485 313.668 240.514 313.9 240.49 314.13ZM239.91 315.5V314.8H238.57C237.74 314.8 237.47 315.13 237.47 315.57C237.47 316.01 237.87 316.38 238.55 316.38C238.841 316.399 239.13 316.323 239.375 316.165C239.62 316.006 239.808 315.773 239.91 315.5Z" fill="white"/>
<path d="M245.58 312.5L243.44 317.3C243.08 318.14 242.63 318.41 242.02 318.41C241.64 318.41 241.275 318.263 241 318L241.27 317.57C241.371 317.676 241.492 317.759 241.626 317.816C241.76 317.873 241.904 317.901 242.05 317.9C242.44 317.9 242.7 317.72 242.94 317.18L243.13 316.76L241.21 312.48H241.82L243.43 316.13L245 312.5H245.58Z" fill="white"/>
<path d="M250.47 316.83V317.77H250.06V316.84C249.342 316.835 248.65 316.572 248.11 316.1L248.35 315.63C248.823 316.052 249.427 316.296 250.06 316.32V314.18C249.16 313.96 248.25 313.68 248.25 312.6C248.25 311.82 248.81 311.14 250.06 311.05V310.11H250.47V311C251.056 311.01 251.627 311.183 252.12 311.5L251.92 311.98C251.482 311.707 250.984 311.546 250.47 311.51V313.67C251.39 313.89 252.36 314.15 252.36 315.24C252.36 316.07 251.76 316.76 250.47 316.83ZM250.06 313.61V311.61C249.22 311.68 248.84 312.11 248.84 312.61C248.84 313.11 249.39 313.43 250.06 313.61ZM251.76 315.32C251.76 314.67 251.17 314.45 250.47 314.32V316.32C251.36 316.25 251.76 315.84 251.76 315.32Z" fill="white"/>
<path d="M257.06 316.27V316.79H253.06V316.38L255.43 314.05C256.07 313.42 256.19 313.05 256.19 312.64C256.19 311.98 255.73 311.58 254.86 311.58C254.57 311.566 254.28 311.614 254.01 311.723C253.741 311.832 253.499 311.998 253.3 312.21L252.88 311.85C253.135 311.579 253.446 311.367 253.792 311.227C254.137 311.087 254.508 311.024 254.88 311.04C256.03 311.04 256.77 311.63 256.77 312.58C256.756 312.928 256.664 313.268 256.501 313.576C256.338 313.884 256.109 314.152 255.83 314.36L253.89 316.27H257.06Z" fill="white"/>
<path d="M257.76 313.94C257.76 312.12 258.71 311.04 260.03 311.04C261.35 311.04 262.31 312.12 262.31 313.94C262.31 315.76 261.31 316.84 260.03 316.84C258.75 316.84 257.76 315.76 257.76 313.94ZM261.71 313.94C261.71 312.42 261.03 311.58 260.03 311.58C259.03 311.58 258.35 312.42 258.35 313.94C258.35 315.46 259.04 316.3 260.03 316.3C261.02 316.3 261.71 315.46 261.71 313.94Z" fill="white"/>
<path d="M263.15 313.94C263.15 312.12 264.15 311.04 265.43 311.04C266.71 311.04 267.71 312.12 267.71 313.94C267.71 315.76 266.71 316.84 265.43 316.84C264.15 316.84 263.15 315.76 263.15 313.94ZM267.15 313.94C267.15 312.42 266.47 311.58 265.48 311.58C264.49 311.58 263.8 312.42 263.8 313.94C263.8 315.46 264.48 316.3 265.48 316.3C266.48 316.3 267.1 315.46 267.1 313.94H267.15Z" fill="white"/>
<path d="M186.69 293.24C188.19 316.29 177.51 341.96 177.51 341.96L119.82 325.72L109.76 322.88C119.76 308.99 124.52 281.63 121.91 259.49C121.71 257.82 121.59 256.25 121.5 254.75C120.5 236.49 128.09 231.15 134.5 223.08C141.5 214.34 157.08 181.34 157.08 173.53C157.08 165.72 176.63 146.6 172.28 124.9C172.28 124.9 178.19 121.23 184.13 124.24C186.83 125.6 189.52 128.33 191.69 133.39C196.78 145.28 189.63 178.89 183.55 187.13L171.84 235.61C171.84 235.61 175.79 242.42 179.67 254.78C183.527 267.277 185.883 280.187 186.69 293.24Z" fill="white"/>
<path opacity="0.4" d="M121.5 254.75C124.77 263.7 128.24 269.75 127.94 282.29C127.64 294.83 120.94 314.13 122.85 324.16C121.759 324.482 120.74 325.012 119.85 325.72L109.79 322.88C119.79 308.99 124.55 281.63 121.94 259.49C121.71 257.82 121.59 256.25 121.5 254.75Z" fill="#315B99"/>
<path opacity="0.4" d="M183.55 187.13L171.84 235.61C171.84 235.61 175.79 242.42 179.67 254.78C171.74 242 165 238.18 165 238.18C170.28 231.85 174.35 185.55 174.35 185.55C174.35 185.55 190.9 166.1 189.35 145.75C188.853 138.335 187.087 131.059 184.13 124.24C186.83 125.6 189.52 128.33 191.69 133.39C196.78 145.28 189.63 178.89 183.55 187.13Z" fill="#315B99"/>
<path d="M109.76 322.88C119.76 308.99 124.52 281.63 121.92 259.49C119.32 237.35 127.56 231.81 134.51 223.07C141.46 214.33 157.08 181.34 157.08 173.52C157.08 165.7 176.62 146.61 172.28 124.9C172.28 124.9 184.75 117.17 191.69 133.39C196.78 145.29 189.63 178.89 183.55 187.14L171.85 235.61C171.85 235.61 184.34 257.16 186.69 293.24C188.19 316.29 177.51 341.97 177.51 341.97" stroke="#263238" stroke-linecap="round" stroke-linejoin="round"/>
<path d="M148.32 360.41C148.32 360.41 161.45 368.49 169.11 381.27" stroke="#263238" stroke-linecap="round" stroke-linejoin="round"/>
<path d="M217.52 122V108.28H227.64V110.72H220.5V114.12H226.88V116.54H220.5V122H217.52ZM229.721 122V111.48H232.021L232.241 113.12H232.381C232.515 112.773 232.688 112.46 232.901 112.18C233.115 111.887 233.381 111.653 233.701 111.48C234.021 111.307 234.395 111.22 234.821 111.22C235.048 111.22 235.255 111.247 235.441 111.3C235.628 111.34 235.768 111.38 235.861 111.42V113.94H235.001C234.588 113.94 234.221 114 233.901 114.12C233.595 114.227 233.335 114.4 233.121 114.64C232.908 114.88 232.748 115.173 232.641 115.52C232.548 115.867 232.501 116.273 232.501 116.74V122H229.721ZM241.904 122.24C240.744 122.24 239.77 122.047 238.984 121.66C238.197 121.26 237.604 120.653 237.204 119.84C236.804 119.027 236.604 117.993 236.604 116.74C236.604 115.473 236.804 114.44 237.204 113.64C237.604 112.827 238.19 112.227 238.964 111.84C239.75 111.44 240.71 111.24 241.844 111.24C242.91 111.24 243.81 111.433 244.544 111.82C245.277 112.193 245.83 112.78 246.204 113.58C246.577 114.367 246.764 115.387 246.764 116.64V117.36H239.424C239.45 117.973 239.544 118.493 239.704 118.92C239.877 119.347 240.137 119.667 240.484 119.88C240.844 120.08 241.317 120.18 241.904 120.18C242.224 120.18 242.51 120.14 242.764 120.06C243.03 119.98 243.257 119.86 243.444 119.7C243.63 119.54 243.777 119.34 243.884 119.1C243.99 118.86 244.044 118.587 244.044 118.28H246.764C246.764 118.947 246.644 119.527 246.404 120.02C246.164 120.513 245.83 120.927 245.404 121.26C244.977 121.58 244.464 121.827 243.864 122C243.277 122.16 242.624 122.24 241.904 122.24ZM239.464 115.6H243.904C243.904 115.2 243.85 114.853 243.744 114.56C243.65 114.267 243.517 114.027 243.344 113.84C243.17 113.653 242.957 113.52 242.704 113.44C242.464 113.347 242.19 113.3 241.884 113.3C241.377 113.3 240.95 113.387 240.604 113.56C240.27 113.72 240.01 113.973 239.824 114.32C239.65 114.653 239.53 115.08 239.464 115.6ZM251.943 122.24C251.277 122.24 250.737 122.12 250.323 121.88C249.91 121.64 249.61 121.32 249.423 120.92C249.237 120.507 249.143 120.053 249.143 119.56V113.62H247.843V111.48H249.243L249.763 108.48H251.923V111.48H253.843V113.62H251.923V119.1C251.923 119.42 251.997 119.667 252.143 119.84C252.29 120 252.53 120.08 252.863 120.08H253.843V121.92C253.683 121.973 253.497 122.02 253.283 122.06C253.07 122.113 252.843 122.153 252.603 122.18C252.363 122.22 252.143 122.24 251.943 122.24ZM260.419 122.24C259.259 122.24 258.286 122.047 257.499 121.66C256.713 121.26 256.119 120.653 255.719 119.84C255.319 119.027 255.119 117.993 255.119 116.74C255.119 115.473 255.319 114.44 255.719 113.64C256.119 112.827 256.706 112.227 257.479 111.84C258.266 111.44 259.226 111.24 260.359 111.24C261.426 111.24 262.326 111.433 263.059 111.82C263.793 112.193 264.346 112.78 264.719 113.58C265.093 114.367 265.279 115.387 265.279 116.64V117.36H257.939C257.966 117.973 258.059 118.493 258.219 118.92C258.393 119.347 258.653 119.667 258.999 119.88C259.359 120.08 259.833 120.18 260.419 120.18C260.739 120.18 261.026 120.14 261.279 120.06C261.546 119.98 261.773 119.86 261.959 119.7C262.146 119.54 262.293 119.34 262.399 119.1C262.506 118.86 262.559 118.587 262.559 118.28H265.279C265.279 118.947 265.159 119.527 264.919 120.02C264.679 120.513 264.346 120.927 263.919 121.26C263.493 121.58 262.979 121.827 262.379 122C261.793 122.16 261.139 122.24 260.419 122.24ZM257.979 115.6H262.419C262.419 115.2 262.366 114.853 262.259 114.56C262.166 114.267 262.033 114.027 261.859 113.84C261.686 113.653 261.473 113.52 261.219 113.44C260.979 113.347 260.706 113.3 260.399 113.3C259.893 113.3 259.466 113.387 259.119 113.56C258.786 113.72 258.526 113.973 258.339 114.32C258.166 114.653 258.046 115.08 257.979 115.6ZM266.219 122L271.159 114.78L266.699 108.28H270.339L273.179 112.62H273.279L276.099 108.28H279.519L275.039 114.78L279.979 122H276.339L273.039 116.92H272.939L269.659 122H266.219Z" fill="white"/>
<path d="M185.2 375.7C185.2 375.7 173.89 377.31 163.67 365.08C157.12 357.25 137.23 353.71 132.67 333.23" stroke="#263238" stroke-linecap="round" stroke-linejoin="round"/>
<path opacity="0.2" d="M349.58 436.26C320.63 422.41 338.16 411.31 298.33 394.12C258.5 376.93 258.1 362.24 262.9 328.46C267.7 294.68 263.9 258.75 275.48 255.7C287.06 252.65 266.42 206.06 279.92 189.59L346.36 318.83L349.58 436.26Z" fill="black" fill-opacity="0.7"/>
<path d="M457.45 434.91C456.09 431.02 454.71 426.77 453.64 422.91C452.26 417.91 451.18 413.91 448.64 409.26C448.24 408.52 447.81 407.74 447.33 406.9C444.62 402.07 440.91 395.46 438.74 387.34C437.28 381.87 438.74 368.4 440.1 355.34C441.1 345.96 442.01 337.11 441.74 332.09L441.66 330.31C440.98 317.18 439.56 289.86 436.66 282.31C433.81 275.03 431.15 273.94 426.3 272C425.8 271.78 425.3 271.58 424.72 271.34C422.9 270.58 419.8 268.98 416.23 267.13C408.18 262.96 398.16 257.77 393.07 257.13C388.308 256.595 383.492 256.818 378.8 257.79C372.53 252.98 361.86 246.79 358.68 246.66C356.08 246.53 350.4 248.16 347.68 249.01L346.31 249.45C344.588 248.114 342.762 246.917 340.85 245.87C340.72 245.8 340.59 245.75 340.48 245.7C336.95 244.25 331.62 244.2 328.71 244.28C327.83 244.28 327.14 244.37 326.83 244.4C321.34 235.95 315.94 227.54 313.59 223.85C308.69 216.09 293.52 184.16 293.37 183.85C293.352 183.809 293.325 183.773 293.29 183.745C293.255 183.717 293.214 183.698 293.17 183.69C293.124 183.684 293.076 183.684 293.03 183.69C291.85 183.35 283.16 181.14 279.67 189.56C275.85 198.73 281.3 218.86 286.62 226.17C289.18 229.69 296.17 244.05 303.26 258.91C301.44 260.6 286.88 274.05 279.81 276.56C274.02 278.61 275.38 308.29 276.47 332.12C276.88 340.92 277.22 348.49 277.12 353.04C276.92 361.84 292.93 373.96 308.45 385.68C322.45 396.3 336.97 407.27 338.67 415.24C339.14 417.48 340.48 419.3 342.08 421.35C344.75 424.75 348.19 428.76 349.65 436.35C350.08 438.63 353.74 441.61 356.65 446.48H461.69C460.81 444.11 459.15 439.79 457.45 434.91ZM311.78 276.81C316.87 287.47 320.02 293.81 320.78 294.52C321.54 295.23 321.49 298.61 321.47 301.9C321.36 304.78 321.461 307.664 321.77 310.53C320.53 311.62 312.7 318.75 311.12 324.53L304.47 316.7L302.79 292.13C303.79 291.07 310.63 283.84 311.78 276.81Z" fill="white"/>
<path opacity="0.4" d="M427.31 345.31C429.78 368.36 429.81 380.86 432.58 387.53C437.26 398.79 444.15 401.07 444.15 401.07C441.858 396.706 440.038 392.11 438.72 387.36C437.27 381.89 438.72 368.42 440.08 355.36C441.08 345.98 442 337.12 441.74 332.1L441.65 330.32C440.97 317.2 439.55 289.88 436.65 282.32C433.81 275.04 431.14 273.95 426.29 272C425.79 271.79 425.29 271.59 424.71 271.35C422.89 270.59 419.8 268.99 416.22 267.14C408.17 262.97 398.15 257.78 393.06 257.14C388.298 256.599 383.481 256.822 378.79 257.8C372.52 252.99 361.85 246.8 358.67 246.67C356.07 246.54 349.02 248.59 346.28 249.46C358.28 259.25 375.56 271.46 375.56 271.46C389.23 274.18 387.48 280.11 393.01 283.46C398.01 286.46 402.79 277.68 407.01 276.91C412.53 275.91 418.8 281.73 418.52 288.79C417.66 308.24 425.19 325.52 427.31 345.31Z" fill="#315B99"/>
<path opacity="0.4" d="M358.21 273.88C358.21 273.88 347.38 264.88 342.21 261.88C337.04 258.88 336.21 248.54 340.29 246.03C340.445 245.937 340.62 245.882 340.8 245.87L340.43 245.7C336.9 244.25 331.57 244.19 328.66 244.28C334.66 255.45 339.45 264.02 340.74 265.9C345.09 272.18 358.21 273.88 358.21 273.88Z" fill="#315B99"/>
<path opacity="0.4" d="M341.78 413.84C342.24 411.45 338.3 404.45 336.57 401.61C332.64 395.13 287.01 354.81 293.62 344.05C300.23 333.29 306.27 341.25 310.45 341.95C313.45 342.45 321.69 337.54 321.65 337.13C320.71 328.84 328.36 323.45 328.36 323.45C328.36 323.45 327.66 290.45 325.9 291.01C324.14 291.57 303.08 241.46 303.08 241.46C303.08 241.46 280.82 211.86 282.08 198.05C283.34 184.24 293 184 293 184V183.63C291.82 183.29 283.13 181.08 279.64 189.5C275.82 198.67 281.27 218.8 286.59 226.11C289.15 229.63 296.14 243.99 303.23 258.85C301.41 260.54 286.85 273.99 279.78 276.5C273.99 278.55 275.35 308.23 276.44 332.06C276.85 340.86 277.19 348.43 277.09 352.98C276.89 361.78 292.9 373.9 308.42 385.62C322.42 396.24 336.94 407.21 338.64 415.18C339.11 417.42 340.45 419.24 342.05 421.29C341.731 418.82 341.641 416.326 341.78 413.84ZM311.78 276.84C316.87 287.5 320.02 293.84 320.78 294.55C321.54 295.26 321.49 298.64 321.47 301.93C321.36 304.81 321.46 307.694 321.77 310.56C320.53 311.65 312.7 318.78 311.12 324.56L304.47 316.73L302.79 292.16C303.79 291.07 310.63 283.84 311.78 276.81V276.84Z" fill="#315B99"/>
<path d="M352 273.75C347.531 272.344 343.605 269.592 340.76 265.87C336.19 259.75 318.24 231.87 313.27 224.01C308.3 216.15 293 184 293 184C293 184 283.6 180.85 279.94 189.63C276.28 198.41 281.29 218.25 286.86 225.89C292.43 233.53 318.9 292.36 321 294.26C323.1 296.16 319.95 311.86 324.16 315.66" stroke="#263238" stroke-linecap="round" stroke-linejoin="round"/>
<path d="M322.14 310.67C322.14 310.67 312.44 319.12 311.3 325.29L304.1 316.82L302.4 292C302.4 292 311.09 283.3 311.57 275.56" stroke="#263238" stroke-linecap="round" stroke-linejoin="round"/>
<path d="M303.63 258.88C303.63 258.88 287.52 274.08 279.86 276.79C272.2 279.5 277.79 336.45 277.41 352.94C277.03 369.43 335.36 398.16 338.94 415.04C340.36 421.76 346.24 423.13 349.83 436.04" stroke="#263238" stroke-linecap="round" stroke-linejoin="round"/>
<path d="M326.56 244.73C326.56 244.73 335.33 243.94 340.27 246C345.21 248.06 365.27 265.29 370.11 268.58C374.95 271.87 382.23 273.12 383.61 276.67" stroke="#263238" stroke-linecap="round" stroke-linejoin="round"/>
<path d="M346.17 249.81C346.17 249.81 355.17 246.81 358.61 246.98C362.05 247.15 374.99 254.78 380.79 259.88C385.234 263.823 390.353 266.933 395.9 269.06" stroke="#263238" stroke-linecap="round" stroke-linejoin="round"/>
<path d="M378.68 258.15C383.376 257.139 388.207 256.906 392.98 257.46C400.3 258.46 418.68 269.26 424.54 271.7C430.4 274.14 433.2 274.59 436.28 282.47C439.36 290.35 440.77 320.31 441.39 332.15C442.01 343.99 435.84 377.9 438.39 387.44C440.94 396.98 445.54 404.34 448.33 409.44" stroke="#263238" stroke-linecap="round" stroke-linejoin="round"/>
<path d="M302.4 292C302.4 292 301 286.15 299 285.4" stroke="#263238" stroke-linecap="round" stroke-linejoin="round"/>
<path d="M304.1 316.82C304.775 320.229 305.687 323.588 306.83 326.87C308.27 330.42 306.03 335.56 306.03 335.56" stroke="#263238" stroke-linecap="round" stroke-linejoin="round"/>
<path d="M311.3 325.29C311.07 330.97 316.72 337.61 318.09 336.67" stroke="#263238" stroke-linecap="round" stroke-linejoin="round"/>
<path d="M340.07 292C340.07 292 346.14 282.18 351.96 281.7C357.78 281.22 364.5 289.48 368.09 288.7C371.68 287.92 376.2 282.64 382.24 281.7C388.28 280.76 391.11 283.64 395.9 283.88C400.69 284.12 401.18 277.72 406.9 276.88C412.62 276.04 414.57 278.88 418.41 279.62C422.25 280.36 423.21 277.33 426.32 275.62" stroke="#263238" stroke-linecap="round" stroke-linejoin="round"/>
</svg>
