<svg width="500" height="500" viewBox="0 0 500 500" fill="none" xmlns="http://www.w3.org/2000/svg">
<path d="M500 382.4H0V382.65H500V382.4Z" fill="#EBEBEB"/>
<path d="M449.9 398.49H416.78V398.74H449.9V398.49Z" fill="#EBEBEB"/>
<path d="M331.22 401.21H322.53V401.46H331.22V401.21Z" fill="#EBEBEB"/>
<path d="M415.78 389.21H396.59V389.46H415.78V389.21Z" fill="#EBEBEB"/>
<path d="M95.65 390.89H52.46V391.14H95.65V390.89Z" fill="#EBEBEB"/>
<path d="M110.89 390.89H104.56V391.14H110.89V390.89Z" fill="#EBEBEB"/>
<path d="M225.15 395.11H131.47V395.36H225.15V395.11Z" fill="#EBEBEB"/>
<path d="M237 337.8H43.91C42.3973 337.797 40.9475 337.195 39.8788 336.124C38.8102 335.054 38.21 333.603 38.21 332.09V60.66C38.2231 59.156 38.8292 57.718 39.8964 56.6582C40.9637 55.5985 42.4059 55.0026 43.91 55H237C238.514 55 239.967 55.6016 241.038 56.6724C242.108 57.7433 242.71 59.1956 242.71 60.71V332.09C242.71 333.604 242.108 335.057 241.038 336.128C239.967 337.198 238.514 337.8 237 337.8ZM43.91 55.2C42.4636 55.2026 41.0774 55.7791 40.0556 56.8027C39.0338 57.8264 38.46 59.2136 38.46 60.66V332.09C38.46 333.536 39.0338 334.924 40.0556 335.947C41.0774 336.971 42.4636 337.547 43.91 337.55H237C238.447 337.547 239.834 336.971 240.858 335.948C241.881 334.924 242.457 333.537 242.46 332.09V60.66C242.457 59.2127 241.881 57.8255 240.858 56.8021C239.834 55.7787 238.447 55.2026 237 55.2H43.91Z" fill="#EBEBEB"/>
<path d="M453.31 337.8H260.21C258.696 337.797 257.246 337.195 256.175 336.125C255.105 335.054 254.503 333.604 254.5 332.09V60.66C254.516 59.1551 255.124 57.7171 256.193 56.6576C257.262 55.5981 258.705 55.0025 260.21 55H453.31C454.812 55.0052 456.252 55.6022 457.317 56.6617C458.382 57.7212 458.987 59.1578 459 60.66V332.09C459 333.601 458.401 335.05 457.335 336.121C456.268 337.191 454.821 337.795 453.31 337.8ZM260.21 55.2C258.763 55.2026 257.375 55.7787 256.352 56.8021C255.329 57.8255 254.753 59.2127 254.75 60.66V332.09C254.753 333.537 255.329 334.924 256.352 335.948C257.375 336.971 258.763 337.547 260.21 337.55H453.31C454.757 337.547 456.145 336.971 457.168 335.948C458.191 334.924 458.767 333.537 458.77 332.09V60.66C458.767 59.2127 458.191 57.8255 457.168 56.8021C456.145 55.7787 454.757 55.2026 453.31 55.2H260.21Z" fill="#EBEBEB"/>
<path d="M444.2 74.6499H279.75V220.57H444.2V74.6499Z" fill="#E6E6E6"/>
<path d="M439.86 78.6499H283.86V216.65H439.86V78.6499Z" fill="#F0F0F0"/>
<path d="M320.48 78.6499L283.86 216.35V151.65L303.19 78.6499H320.48Z" fill="white"/>
<path d="M333.44 78.6499L296.51 216.65H290.62L327.55 78.6499H333.44Z" fill="white"/>
<path d="M439.86 165.73V187.78L432.39 216.65H426.5L439.86 165.73Z" fill="white"/>
<path d="M338.28 76.1699H335.65V219.73H338.28V76.1699Z" fill="#E6E6E6"/>
<path d="M389.2 76.1699H386.57V219.73H389.2V76.1699Z" fill="#E6E6E6"/>
<path d="M143.13 301.05H52.46V382.36H143.13V301.05Z" fill="#F5F5F5"/>
<path d="M84.02 301.05H52.46V382.36H84.02V301.05Z" fill="#EBEBEB"/>
<path d="M161.17 221.41H70.5V302.72H161.17V221.41Z" fill="#EBEBEB"/>
<path d="M102.06 221.41H70.5V302.72H102.06V221.41Z" fill="#E0E0E0"/>
<path d="M143.13 140.34H52.46V221.65H143.13V140.34Z" fill="#F5F5F5"/>
<path d="M84.02 140.34H52.46V221.65H84.02V140.34Z" fill="#EBEBEB"/>
<path d="M241.8 301.12H151.13V382.43H241.8V301.12Z" fill="#EBEBEB"/>
<path d="M182.69 301.12H151.13V382.43H182.69V301.12Z" fill="#E0E0E0"/>
<path d="M251.84 251.87H161.17V302.8H251.84V251.87Z" fill="#F5F5F5"/>
<path d="M192.73 251.87H161.17V302.8H192.73V251.87Z" fill="#E6E6E6"/>
<path d="M212.71 171.41H154.13V252.72H212.71V171.41Z" fill="#EBEBEB"/>
<path d="M174.52 171.41H154.13V252.72H174.52V171.41Z" fill="#E0E0E0"/>
<path d="M346.51 382.51H437.18V301.2H346.51V382.51Z" fill="#F5F5F5"/>
<path d="M405.62 382.51H437.18V301.2H405.62V382.51Z" fill="#E6E6E6"/>
<path d="M328.46 302.87H419.13V236.68H328.46V302.87Z" fill="#EBEBEB"/>
<path d="M387.58 302.87H419.14V236.68H387.58V302.87Z" fill="#E0E0E0"/>
<path d="M349.74 236.68H437.18V204.28H349.74V236.68Z" fill="#F5F5F5"/>
<path d="M406.76 236.68H437.19V204.28H406.76V236.68Z" fill="#E6E6E6"/>
<path d="M250 427.56C357.082 427.56 443.89 422.492 443.89 416.24C443.89 409.988 357.082 404.92 250 404.92C142.917 404.92 56.1099 409.988 56.1099 416.24C56.1099 422.492 142.917 427.56 250 427.56Z" fill="#F5F5F5"/>
<path d="M357.86 109.95H330.03C327.528 109.95 325.5 111.978 325.5 114.48V139.72C325.5 142.222 327.528 144.25 330.03 144.25H357.86C360.362 144.25 362.39 142.222 362.39 139.72V114.48C362.39 111.978 360.362 109.95 357.86 109.95Z" fill="#315B99"/>
<path d="M340.34 139.89C340.34 139.89 342.67 151.16 358.55 157.41C358.55 157.41 348.84 151.2 349.44 139.89H340.34Z" fill="#315B99"/>
<path d="M335.96 126.13L341.23 133.45L351.93 120.76" stroke="white" stroke-width="3" stroke-linecap="round" stroke-linejoin="round"/>
<path d="M392.53 149.42C397.42 152.93 401.84 158.93 398.53 175.73C395.22 192.53 394.38 196.53 394.38 196.53L362.38 192.93C362.38 192.93 360.88 178.06 363.38 164.07C366.76 146 378.21 139.13 392.53 149.42Z" fill="#263238"/>
<path d="M360.5 242.25C360.5 242.25 349.66 300 346.77 323.73C342.99 354.67 327.54 399.93 327.54 399.93L333.72 401.53C333.72 401.53 355.5 363.06 359.72 328.46C377.02 293.09 378.42 249.53 378.42 249.53L360.5 242.25Z" fill="#EEC1BB"/>
<path d="M316 413.93C316.998 413.47 318.073 413.199 319.17 413.13C319.17 413.13 322.97 410.89 326.73 402.21H330.97C331.685 402.22 332.379 402.449 332.96 402.865C333.542 403.282 333.981 403.866 334.22 404.54C334.289 404.729 334.33 404.928 334.34 405.13C334.293 406.136 334.183 407.138 334.01 408.13C333.39 411.51 332.565 414.85 331.54 418.13L330.82 417.94L332.12 411.63C332.56 409.48 330.3 411.55 329.26 413.72C328.22 415.89 326.65 418 322 417C316.52 415.7 314.33 414.91 316 413.93Z" fill="#263238"/>
<path d="M334.38 404.62C335.18 402.57 336.2 398.9 336.2 398.9L327.13 397.64C327.13 397.64 327.13 402.1 325.45 405.02C330.19 405 334.38 404.62 334.38 404.62Z" fill="#263238"/>
<path d="M371.75 241.33C371.75 241.33 373.1 300.08 375.17 323.88C377.88 354.94 372.12 402.42 372.12 402.42L378.5 402.7C378.5 402.7 391.85 360.56 388.85 325.82C398.46 287.64 390.85 244.74 390.85 244.74L371.75 241.33Z" fill="#EEC1BB"/>
<path d="M362.2 415.87C363.144 415.302 364.184 414.912 365.27 414.72C365.27 414.72 368.8 412.09 371.61 403.05L375.81 402.57C376.527 402.503 377.247 402.659 377.872 403.017C378.497 403.375 378.995 403.917 379.3 404.57C379.389 404.749 379.45 404.942 379.48 405.14C379.545 406.162 379.545 407.188 379.48 408.21C379.222 411.622 378.758 415.015 378.09 418.37L377.36 418.27L377.97 411.85C378.17 409.67 376.16 411.97 375.35 414.24C374.54 416.51 373.18 418.84 368.42 418.24C362.88 417.57 360.61 417 362.2 415.87Z" fill="#263238"/>
<path d="M379.43 404.62C380 402.5 380.62 398.74 380.62 398.74L371.47 398.47C371.47 398.47 371.95 402.9 370.6 405.99C375.3 405.44 379.43 404.62 379.43 404.62Z" fill="#263238"/>
<path d="M358.19 232.61L346.3 314.83C346.3 314.83 385.02 320.83 400.52 317.32C400.52 317.32 404.33 269.85 388.15 235.32L358.19 232.61Z" fill="#263238"/>
<path d="M322.4 203.54L312.05 193.32C312.05 193.32 311.7 190.58 310.69 189.82C309.68 189.06 302.6 186.48 301.69 187.05C300.78 187.62 299.61 193.36 300.83 194.41C302.05 195.46 308.5 196.8 309.16 196.69L320.39 210L322.4 203.54Z" fill="#EEC1BB"/>
<path d="M359.44 184.91C354.98 187.28 339.14 209.42 336.81 210.51C334.48 211.6 316.65 197.15 316.65 197.15L313.65 202.28C313.65 202.28 328.27 223 336.54 222C344.81 221 360.64 203.5 360.64 203.5L359.44 184.91Z" fill="#315B99"/>
<path opacity="0.1" d="M359.44 184.91C354.98 187.28 339.14 209.42 336.81 210.51C334.48 211.6 316.65 197.15 316.65 197.15L313.65 202.28C313.65 202.28 328.27 223 336.54 222C344.81 221 360.64 203.5 360.64 203.5L359.44 184.91Z" fill="white"/>
<path d="M317.63 197.7L316.39 196.53L313.14 202.03L314.31 204.28L317.63 197.7Z" fill="#315B99"/>
<path opacity="0.2" d="M354.28 209.91C357.98 206.38 360.64 203.45 360.64 203.45L360.36 199.05L359 194.78C357.081 196.755 355.654 199.154 354.834 201.782C354.014 204.41 353.824 207.195 354.28 209.91Z" fill="black"/>
<path d="M357.94 231.77C356.69 209.77 357.25 197.65 357.82 191.6C358.45 185.15 359.44 184.91 359.44 184.91C359.44 184.91 366.44 184.23 372.51 184.28C377.206 184.439 381.884 184.934 386.51 185.76C390.912 186.49 395.257 187.537 399.51 188.89C398.8 190.89 398.16 192.89 397.56 194.65C396.77 197.04 396.06 199.25 395.41 201.32C394.21 205.18 393.27 208.52 392.53 211.51C390.618 219.039 389.502 226.748 389.2 234.51C389.2 234.51 396.89 254.61 398.39 269.36L372.89 272.11L369.39 257.36L365.89 272.61L351.64 267.61L357.94 231.77Z" fill="#315B99"/>
<path opacity="0.1" d="M357.94 231.77C356.69 209.77 357.25 197.65 357.82 191.6C358.45 185.15 359.44 184.91 359.44 184.91C359.44 184.91 366.44 184.23 372.51 184.28C377.206 184.439 381.884 184.934 386.51 185.76C390.912 186.49 395.257 187.537 399.51 188.89C398.8 190.89 398.16 192.89 397.56 194.65C396.77 197.04 396.06 199.25 395.41 201.32C394.21 205.18 393.27 208.52 392.53 211.51C390.618 219.039 389.502 226.748 389.2 234.51C389.2 234.51 396.89 254.61 398.39 269.36L372.89 272.11L369.39 257.36L365.89 272.61L351.64 267.61L357.94 231.77Z" fill="white"/>
<path opacity="0.2" d="M391.29 216.9C391.63 215.22 392.03 213.43 392.52 211.51C392.83 210.29 393.17 209.01 393.52 207.65C392.52 204.24 391.52 206.91 391.52 206.91C390.9 210.205 390.822 213.58 391.29 216.9Z" fill="black"/>
<path d="M372.86 185.62C373.168 185.464 373.485 185.327 373.81 185.21C374.53 184.64 375.41 183.27 375.37 179.94C375.337 178.62 375.213 177.303 375 176L384.27 174.27C384.27 174.27 381.11 180.51 383.74 185.15C384.65 185.55 385.19 186.15 385.09 186.88C384.4 192.23 372.88 197.41 372.88 197.41C372.88 197.41 367.27 188.69 372.86 185.62Z" fill="#EEC1BB"/>
<path opacity="0.2" d="M375 176C375.209 177.294 375.329 178.6 375.36 179.91C381.62 179.91 384.27 174.27 384.27 174.27L375 176Z" fill="black"/>
<path d="M380.13 150.11C372.07 149.67 369.24 153.84 368.2 162.11C366.89 172.45 368.79 179.95 378.99 178.29C392.84 176 393.52 150.84 380.13 150.11Z" fill="#EEC1BB"/>
<path d="M373.43 162C372.719 163.168 371.869 164.246 370.9 165.21C371.121 165.552 371.432 165.827 371.799 166.003C372.166 166.18 372.575 166.251 372.98 166.21L373.43 162Z" fill="#D4827D"/>
<path d="M378.4 161.56C378.4 162.22 378.66 162.79 379.1 162.82C379.54 162.85 379.94 162.35 380 161.69C380.06 161.03 379.73 160.46 379.29 160.43C378.85 160.4 378.45 160.9 378.4 161.56Z" fill="#263238"/>
<path d="M379.47 160.47L378.08 159.8C378.08 159.8 378.7 161.06 379.47 160.47Z" fill="#263238"/>
<path d="M370.19 160.78C370.14 161.44 370.45 162 370.89 162.04C371.33 162.08 371.74 161.57 371.79 160.9C371.84 160.23 371.52 159.68 371.08 159.64C370.64 159.6 370.24 160.12 370.19 160.78Z" fill="#263238"/>
<path d="M371.26 159.69L369.87 159.01C369.87 159.01 370.49 160.28 371.26 159.69Z" fill="#263238"/>
<path d="M378.79 156C379.43 155.957 380.071 156.062 380.664 156.306C381.258 156.551 381.786 156.929 382.21 157.41" stroke="#263238" stroke-width="0.686238" stroke-linecap="round" stroke-linejoin="round"/>
<path d="M373 155.34C372.457 155.169 371.883 155.123 371.32 155.206C370.757 155.29 370.22 155.499 369.75 155.82" stroke="#263238" stroke-width="0.686238" stroke-linecap="round" stroke-linejoin="round"/>
<path d="M388.2 164.18C388.2 164.18 384.79 157.35 385.64 152.27C385.64 152.27 370.03 144.87 368.35 161.03C368.35 161.03 367.58 146.55 381.45 147.03C395.32 147.51 394.15 167.74 386.67 173.39C386.67 173.35 390.3 168.45 388.2 164.18Z" fill="#263238"/>
<path d="M386.79 165.81C386.924 164.883 387.42 164.046 388.17 163.483C388.92 162.921 389.862 162.679 390.79 162.81C393.27 163.22 394.18 168.42 387.9 169.31C387 169.41 386.53 168.51 386.79 165.81Z" fill="#EEC1BB"/>
<path d="M379.27 168.07C378.66 168.672 377.936 169.147 377.142 169.468C376.347 169.789 375.497 169.95 374.64 169.94" stroke="#263238" stroke-width="0.686238" stroke-linecap="round" stroke-linejoin="round"/>
<path d="M385.64 152.27C385.64 152.27 368.22 147.74 366.76 164.07" stroke="#263238" stroke-width="0.686238" stroke-linecap="round" stroke-linejoin="round"/>
<path d="M370.1 189.59C370.1 189.59 368.77 202.83 370.95 214.88C370.95 214.88 376.09 196.26 383.31 189.93L375.01 191.12L370.1 189.59Z" fill="#315B99"/>
<path opacity="0.5" d="M370.1 189.59C370.1 189.59 368.77 202.83 370.95 214.88C370.95 214.88 376.09 196.26 383.31 189.93L375.01 191.12L370.1 189.59Z" fill="white"/>
<path d="M383.43 183.7L375 189.93V183.31C375 183.31 368.19 185.78 368.67 193.31L374.26 190.74V193.31L375.57 190.83L379.99 195.88C379.99 195.88 385.4 189.57 385.99 187.67C386.58 185.77 383.43 183.7 383.43 183.7Z" fill="#315B99"/>
<path opacity="0.7" d="M383.43 183.7L375 189.93V183.31C375 183.31 368.19 185.78 368.67 193.31L374.26 190.74V193.31L375.57 190.83L379.99 195.88C379.99 195.88 385.4 189.57 385.99 187.67C386.58 185.77 383.43 183.7 383.43 183.7Z" fill="white"/>
<path d="M392.23 242.12L384.49 205.19C384.409 204.804 384.199 204.457 383.893 204.207C383.587 203.958 383.204 203.821 382.81 203.82H359C358.825 203.821 358.651 203.859 358.493 203.933C358.334 204.008 358.193 204.116 358.081 204.25C357.969 204.385 357.887 204.542 357.842 204.711C357.797 204.881 357.789 205.058 357.82 205.23L364.27 241.39C364.337 241.78 364.537 242.135 364.836 242.394C365.135 242.653 365.514 242.8 365.91 242.81L391.08 243.56C391.256 243.557 391.428 243.514 391.586 243.436C391.743 243.358 391.882 243.247 391.992 243.109C392.101 242.972 392.18 242.812 392.221 242.641C392.262 242.47 392.265 242.293 392.23 242.12Z" fill="#263238"/>
<path opacity="0.1" d="M392.23 242.12L384.49 205.19C384.409 204.804 384.199 204.457 383.893 204.207C383.587 203.958 383.204 203.821 382.81 203.82H359C358.825 203.821 358.651 203.859 358.493 203.933C358.334 204.008 358.193 204.116 358.081 204.25C357.969 204.385 357.887 204.542 357.842 204.711C357.797 204.881 357.789 205.058 357.82 205.23L364.27 241.39C364.337 241.78 364.537 242.135 364.836 242.394C365.135 242.653 365.514 242.8 365.91 242.81L391.08 243.56C391.256 243.557 391.428 243.514 391.586 243.436C391.743 243.358 391.882 243.247 391.992 243.109C392.101 242.972 392.18 242.812 392.221 242.641C392.262 242.47 392.265 242.293 392.23 242.12Z" fill="white"/>
<path d="M402.52 230.16L390.21 222.4C390.21 222.4 389.27 219.81 388.13 219.28C386.99 218.75 379.51 217.76 378.78 218.51C378.05 219.26 378.11 225.11 379.53 225.88C380.95 226.65 387.53 226.56 388.15 226.31L401.94 236.87L402.52 230.16Z" fill="#EEC1BB"/>
<path d="M399.51 188.89C399.51 188.89 391.51 200.57 392.64 210.57L403.31 228.23L396.14 224.57L392.89 230.69C392.89 230.69 401.14 243.4 411.64 240.4C422.14 237.4 399.51 188.89 399.51 188.89Z" fill="#315B99"/>
<path opacity="0.1" d="M399.51 188.89C399.51 188.89 391.51 200.57 392.64 210.57L403.31 228.23L396.14 224.57L392.89 230.69C392.89 230.69 401.14 243.4 411.64 240.4C422.14 237.4 399.51 188.89 399.51 188.89Z" fill="white"/>
<path d="M396.89 224.23L392.81 231.82L391.89 229.65L395.14 223.48L396.89 224.23Z" fill="#315B99"/>
<path d="M382 203.82C381.06 203.82 381.06 228.42 381.06 228.42L359.56 227.8C359.56 227.8 357.14 207 359.56 203.8L382 203.82Z" fill="white"/>
<path opacity="0.1" d="M382 203.82C381.06 203.82 381.06 228.42 381.06 228.42L359.56 227.8C359.56 227.8 357.14 207 359.56 203.8L382 203.82Z" fill="black"/>
<path d="M293.2 184.33L313.53 192.88C313.64 192.928 313.739 192.997 313.822 193.083C313.905 193.169 313.97 193.271 314.014 193.382C314.058 193.494 314.079 193.613 314.076 193.733C314.074 193.852 314.048 193.97 314 194.08C313.905 194.296 313.729 194.466 313.51 194.552C313.291 194.638 313.046 194.634 312.83 194.54L292.37 185.87L292.18 185.77L289.8 184L292.93 184.27C293.022 184.276 293.114 184.296 293.2 184.33Z" fill="#263238"/>
<path d="M225.75 226.47L206 228.23L198.08 223.76C198.08 223.76 172.68 209.61 166.08 205.14C164.08 203.77 162.21 200.79 160.6 197.29C159.249 194.289 158.087 191.206 157.12 188.06C156.67 186.65 156.27 185.3 155.93 184.06C155.17 181.39 154.7 179.39 154.57 178.85C154.576 178.807 154.576 178.763 154.57 178.72H154.62L160.88 176.72L166.11 175.06C166.11 175.06 166.35 176.3 166.76 178.19L167.12 179.86C167.23 180.34 167.34 180.86 167.46 181.38C168.78 187.2 170.81 195.14 172.28 196.44C174.65 198.53 204.45 218.84 205.51 219.37C206.57 219.9 216.06 219.37 216.06 219.37L225.75 226.47Z" fill="#E4897B"/>
<path d="M154.41 150.68C163.51 150.54 169.3 178.74 169.3 178.74L157.3 184.74C153.891 178.838 152.114 172.136 152.15 165.32C152.43 154.5 154.41 150.68 154.41 150.68Z" fill="#315B99"/>
<path opacity="0.5" d="M154.41 150.68C163.51 150.54 169.3 178.74 169.3 178.74L157.3 184.74C153.891 178.838 152.114 172.136 152.15 165.32C152.43 154.5 154.41 150.68 154.41 150.68Z" fill="white"/>
<path d="M170.63 179.29L167.39 181.39L163.16 184.13L157.08 188.06L155.99 188.77L154.67 184.76L155.89 184.1L156.69 183.66L162.25 180.63L166.69 178.2L168.91 176.99L169.3 176.78L170.63 179.29Z" fill="#315B99"/>
<path opacity="0.2" d="M163.7 188.77C163.718 191.897 162.603 194.924 160.56 197.29C159.209 194.289 158.047 191.206 157.08 188.06L155.99 188.77L154.67 184.77L155.89 184.11C155.13 181.44 154.66 179.44 154.53 178.9V178.74L155.97 167.74C157.859 170.58 159.473 173.594 160.79 176.74C161.31 177.97 161.79 179.28 162.23 180.64C162.383 181.107 162.523 181.587 162.65 182.08C162.84 182.76 163 183.45 163.14 184.14C163.465 185.664 163.652 187.213 163.7 188.77Z" fill="black"/>
<path d="M153.05 409.36L161.42 410.25L162.99 392.2L154.62 391.31L153.05 409.36Z" fill="#E4897B"/>
<path d="M111.3 408.75H119.4L120.07 389.97H111.96L111.3 408.75Z" fill="#E4897B"/>
<path d="M120.53 407.81H110.68C110.519 407.813 110.363 407.869 110.238 407.971C110.113 408.072 110.026 408.213 109.99 408.37L108.39 415.59C108.356 415.744 108.353 415.903 108.381 416.057C108.41 416.212 108.468 416.36 108.554 416.492C108.639 416.624 108.75 416.738 108.88 416.827C109.01 416.916 109.156 416.978 109.31 417.01C109.396 417.025 109.484 417.025 109.57 417.01C112.76 417.01 115.08 416.77 119.08 416.77C121.55 416.77 128.99 417.02 132.39 417.02C135.79 417.02 136.24 413.66 134.84 413.35C128.59 411.99 123.84 410.1 121.84 408.35C121.484 408.016 121.018 407.824 120.53 407.81Z" fill="#263238"/>
<path d="M121.09 408.94C121.051 408.93 121.015 408.909 120.989 408.878C120.962 408.848 120.945 408.81 120.94 408.77C120.935 408.734 120.941 408.698 120.957 408.666C120.974 408.634 120.999 408.608 121.03 408.59C121.32 408.4 123.94 406.79 124.84 407.26C124.942 407.304 125.029 407.379 125.087 407.474C125.146 407.568 125.175 407.679 125.17 407.79C125.19 407.977 125.164 408.165 125.094 408.34C125.025 408.514 124.913 408.669 124.77 408.79C124.314 409.105 123.763 409.254 123.21 409.21C122.495 409.201 121.784 409.11 121.09 408.94ZM121.64 408.67C122.587 408.991 123.621 408.938 124.53 408.52C124.625 408.434 124.698 408.326 124.743 408.206C124.788 408.086 124.804 407.957 124.79 407.83C124.79 407.68 124.72 407.61 124.66 407.61C124.587 407.569 124.503 407.551 124.42 407.56C123.43 407.747 122.486 408.124 121.64 408.67Z" fill="#315B99"/>
<path d="M121 409C120.971 408.98 120.948 408.953 120.932 408.921C120.916 408.89 120.909 408.855 120.91 408.82C120.91 408.71 121.12 406.38 122.06 405.62C122.168 405.521 122.297 405.448 122.437 405.405C122.577 405.362 122.725 405.35 122.87 405.37C123.015 405.369 123.156 405.418 123.269 405.509C123.382 405.601 123.46 405.728 123.49 405.87C123.65 406.73 122.03 408.51 121.2 408.97H121.11C121.077 408.99 121.039 409.001 121 409ZM122.3 405.84C121.718 406.567 121.37 407.452 121.3 408.38C122.14 407.75 123.17 406.38 123.07 405.87C123.07 405.82 123.07 405.68 122.79 405.68H122.7C122.566 405.69 122.437 405.739 122.33 405.82L122.3 405.84Z" fill="#315B99"/>
<path d="M162.3 407.56H152.45C152.29 407.56 152.134 407.615 152.009 407.715C151.884 407.815 151.796 407.954 151.76 408.11L150.16 415.33C150.095 415.64 150.155 415.964 150.327 416.23C150.5 416.496 150.77 416.683 151.08 416.75H151.35C154.53 416.69 156.85 416.5 160.86 416.5C163.32 416.5 170.76 416.76 174.16 416.76C177.56 416.76 178.01 413.39 176.62 413.08C170.37 411.72 165.62 409.84 163.62 408.08C163.258 407.751 162.789 407.566 162.3 407.56Z" fill="#263238"/>
<path d="M162.86 408.68C162.82 408.67 162.785 408.649 162.758 408.618C162.732 408.588 162.715 408.55 162.71 408.51C162.704 408.473 162.711 408.436 162.729 408.403C162.747 408.371 162.776 408.345 162.81 408.33C163.1 408.14 165.72 406.53 166.61 407C166.71 407.047 166.795 407.122 166.854 407.216C166.912 407.31 166.942 407.419 166.94 407.53C166.961 407.717 166.935 407.906 166.865 408.08C166.796 408.255 166.684 408.409 166.54 408.53C166.093 408.854 165.551 409.02 165 409C164.277 408.975 163.559 408.868 162.86 408.68ZM163.41 408.41C164.357 408.726 165.388 408.676 166.3 408.27C166.395 408.184 166.469 408.077 166.514 407.957C166.559 407.837 166.575 407.708 166.56 407.58C166.56 407.42 166.49 407.35 166.44 407.35C166.363 407.309 166.276 407.291 166.19 407.3C165.201 407.492 164.258 407.869 163.41 408.41Z" fill="#315B99"/>
<path d="M162.81 408.72C162.781 408.702 162.756 408.677 162.739 408.648C162.721 408.618 162.711 408.584 162.71 408.55C162.71 408.43 162.92 406.1 163.86 405.34C163.968 405.242 164.097 405.168 164.237 405.125C164.377 405.082 164.525 405.07 164.67 405.09C164.816 405.09 164.959 405.14 165.072 405.234C165.185 405.327 165.262 405.456 165.29 405.6C165.46 406.45 163.84 408.24 163 408.69H162.91C162.88 408.709 162.845 408.72 162.81 408.72ZM164.11 405.56C163.524 406.284 163.175 407.171 163.11 408.1C163.94 407.47 164.97 406.1 164.87 405.6C164.87 405.54 164.87 405.4 164.59 405.4H164.5C164.356 405.41 164.219 405.466 164.11 405.56Z" fill="#315B99"/>
<path opacity="0.2" d="M154.62 391.31L162.99 392.2L162.17 401.51L153.8 400.62L154.62 391.31Z" fill="black"/>
<path opacity="0.2" d="M111.96 389.98H120.07L119.72 399.67H111.61L111.96 389.98Z" fill="black"/>
<path d="M115.3 225.22H158.3C162.39 247.57 175.2 326.64 166.01 397.09L151.44 395.28C151.44 395.28 152.79 301.75 139.93 267.18C138.45 285.68 136.69 305.37 135.17 315.85C131.46 341.63 123.45 398 123.45 398H108.62C108.62 398 111.62 344.06 113.05 318.71C114.58 291.19 115.25 230.87 115.3 225.22Z" fill="#315B99"/>
<path opacity="0.2" d="M140 267.18C142.12 273.242 143.729 279.47 144.81 285.8C146.01 269.33 141.2 251.87 141.2 251.87L140 267.18Z" fill="black"/>
<path d="M167.72 400.48L149.69 397.8L150.24 392.81L168.99 395.27L167.72 400.48Z" fill="#315B99"/>
<path opacity="0.6" d="M167.72 400.48L149.69 397.8L150.24 392.81L168.99 395.27L167.72 400.48Z" fill="white"/>
<path d="M125.23 398.11H107.74V392.88L125.89 392.54L125.23 398.11Z" fill="#315B99"/>
<path opacity="0.6" d="M125.23 398.11H107.74V392.88L125.89 392.54L125.23 398.11Z" fill="white"/>
<path d="M115.22 232.7L115.18 226.47L159.04 223.76L159.35 229.8L115.22 232.7Z" fill="#263238"/>
<path d="M126.32 224.89H124.34V234.02H126.32V224.89Z" fill="#315B99"/>
<path d="M156.63 221.857L154.655 222.001L155.319 231.107L157.294 230.963L156.63 221.857Z" fill="#315B99"/>
<path d="M159 223.76L115.18 227C115.18 223.16 115.08 218.88 114.79 214.36C114.25 206.01 113.22 196.87 112.07 188.3C109.63 170.09 106.64 154.46 106.64 154.46C127.04 149.31 154.41 150.65 154.41 150.65C161.52 177.29 159 223.76 159 223.76Z" fill="#315B99"/>
<path opacity="0.6" d="M159 223.76L115.18 227C115.18 223.16 115.08 218.88 114.79 214.36C114.25 206.01 113.22 196.87 112.07 188.3C109.63 170.09 106.64 154.46 106.64 154.46C127.04 149.31 154.41 150.65 154.41 150.65C161.52 177.29 159 223.76 159 223.76Z" fill="white"/>
<path d="M122.21 151.73C126.21 155.32 135.84 154 135.84 154C135.84 154 141.84 152.34 140.61 150.45C137.05 149.87 135.33 148.21 134.61 146.08C134.215 144.765 134.092 143.384 134.25 142.02C134.305 141.258 134.405 140.5 134.55 139.75L122.55 130.89C124.16 136.74 126.08 147.49 122.21 151.73Z" fill="#E4897B"/>
<path opacity="0.2" d="M125.36 136.52C125.83 143.7 131.73 145.68 134.62 146.08C134.225 144.765 134.102 143.384 134.26 142.02L125.36 136.52Z" fill="black"/>
<path d="M146 113.83C148.91 116.59 147.7 125 141.77 129.3C135.84 133.6 135.84 112.8 135.84 112.8C135.84 112.8 144.15 112.07 146 113.83Z" fill="#263238"/>
<path d="M124.55 138.18C125.793 140.021 127.606 141.402 129.711 142.112C131.816 142.822 134.095 142.821 136.2 142.11C138.936 141.243 141.239 139.366 142.64 136.86C142.838 136.513 143.018 136.156 143.18 135.79C146.1 129 147 117 139.81 112.54C137.341 110.993 134.359 110.488 131.519 111.137C128.679 111.786 126.212 113.535 124.66 116C123.742 117.463 123.177 119.12 123.01 120.84C122.13 128.8 121.23 133.46 124.55 138.18Z" fill="#E4897B"/>
<path d="M134.65 125.09C134.5 125.72 134.79 126.31 135.22 126.38C135.65 126.45 136.07 125.98 136.22 125.38C136.37 124.78 136.07 124.16 135.66 124.09C135.25 124.02 134.77 124.44 134.65 125.09Z" fill="#263238"/>
<path d="M141.94 126.33C141.79 126.96 142.09 127.56 142.5 127.63C142.91 127.7 143.36 127.23 143.5 126.63C143.64 126.03 143.35 125.4 142.93 125.33C142.51 125.26 142.05 125.72 141.94 126.33Z" fill="#263238"/>
<path d="M139.57 126.25C140.003 128.339 140.723 130.358 141.71 132.25C141.213 132.493 140.668 132.623 140.115 132.631C139.562 132.64 139.014 132.527 138.51 132.3L139.57 126.25Z" fill="#DE5753"/>
<path d="M132.79 122.34C132.858 122.36 132.93 122.363 133 122.349C133.069 122.335 133.135 122.305 133.19 122.26C133.531 121.919 133.948 121.664 134.407 121.514C134.866 121.365 135.353 121.326 135.83 121.4C135.878 121.412 135.929 121.414 135.978 121.406C136.028 121.399 136.075 121.382 136.118 121.356C136.161 121.33 136.198 121.295 136.227 121.255C136.257 121.214 136.278 121.169 136.29 121.12C136.311 121.022 136.294 120.92 136.242 120.834C136.19 120.748 136.107 120.686 136.01 120.66C135.412 120.55 134.797 120.583 134.214 120.757C133.632 120.93 133.099 121.24 132.66 121.66C132.59 121.733 132.551 121.829 132.551 121.93C132.551 122.031 132.59 122.127 132.66 122.2C132.694 122.255 132.738 122.302 132.79 122.34Z" fill="#263238"/>
<path d="M136.89 135.5C135.944 135.485 135.016 135.24 134.185 134.788C133.354 134.335 132.646 133.687 132.12 132.9C132.106 132.877 132.096 132.852 132.092 132.825C132.088 132.799 132.089 132.771 132.095 132.745C132.102 132.719 132.114 132.695 132.13 132.673C132.146 132.652 132.167 132.634 132.19 132.62C132.234 132.594 132.287 132.585 132.337 132.596C132.387 132.607 132.431 132.637 132.46 132.68C132.963 133.396 133.627 133.985 134.397 134.4C135.168 134.815 136.025 135.044 136.9 135.07C136.951 135.07 137.001 135.09 137.038 135.125C137.075 135.161 137.097 135.209 137.1 135.26C137.098 135.31 137.077 135.357 137.042 135.392C137.007 135.427 136.96 135.448 136.91 135.45L136.89 135.5Z" fill="#263238"/>
<path d="M145.5 124.35C145.567 124.389 145.643 124.41 145.72 124.41C145.816 124.38 145.897 124.315 145.947 124.228C145.997 124.141 146.012 124.038 145.99 123.94C145.835 123.35 145.539 122.806 145.128 122.355C144.717 121.904 144.203 121.559 143.63 121.35C143.534 121.322 143.432 121.332 143.344 121.379C143.256 121.426 143.19 121.505 143.16 121.6C143.131 121.697 143.142 121.801 143.188 121.89C143.235 121.98 143.314 122.048 143.41 122.08C143.858 122.259 144.257 122.541 144.577 122.902C144.896 123.263 145.127 123.694 145.25 124.16C145.276 124.208 145.311 124.249 145.354 124.282C145.398 124.315 145.447 124.338 145.5 124.35Z" fill="#263238"/>
<path d="M130.51 111.94V115.5C129.881 115.712 129.355 116.152 129.036 116.734C128.717 117.316 128.629 117.996 128.79 118.64C129.56 121.74 127.33 126.12 124.84 127.64C124.84 127.64 124.92 126.35 123.84 126.52C122.76 126.69 122.21 133.4 123.93 136.83C123.93 136.83 121.09 133.57 120.15 126.35C119.27 119.67 119.73 114.25 121.36 111.91L130.51 111.94Z" fill="#263238"/>
<path d="M118.45 126.72C119.021 128.66 120.337 130.296 122.11 131.27C124.47 132.54 126.24 130.56 126.11 128.03C125.95 125.77 124.55 122.33 121.93 122.13C119.31 121.93 117.77 124.33 118.45 126.72Z" fill="#E4897B"/>
<path d="M119.75 118C119.75 118 117.28 112.07 123.75 107.72C130.22 103.37 145.57 108.44 146.65 111.97C147.73 115.5 136.12 121.91 119.75 118Z" fill="#263238"/>
<path d="M123.72 148.04L133.51 153.4L134.85 146.08L141.71 150.54V159.89L134.45 155.56L129.35 163.2L119.28 152.14L123.72 148.04Z" fill="#315B99"/>
<path d="M145.956 224.014L138.248 224.441C137.608 224.477 137.118 225.024 137.154 225.664L137.442 230.876C137.478 231.515 138.025 232.005 138.665 231.97L146.373 231.543C147.012 231.507 147.502 230.96 147.467 230.32L147.178 225.108C147.143 224.469 146.595 223.979 145.956 224.014Z" fill="white"/>
<path opacity="0.5" d="M123.72 148.04L133.51 153.4L134.85 146.08L141.71 150.54V159.89L134.45 155.56L129.35 163.2L119.28 152.14L123.72 148.04Z" fill="white"/>
<path opacity="0.2" d="M130.51 212.46C127.6 216.84 118.29 216.81 114.79 214.39C114.25 206.04 113.22 196.9 112.07 188.33L130.51 212.46Z" fill="black"/>
<path d="M115.18 178.74C115.18 178.74 117.25 192.22 119.28 194.85C121.31 197.48 163.28 220.43 163.28 220.43L177.79 219.38L184.46 227.03C184.46 227.03 165.13 230.03 163.02 229.45C161.732 229.094 160.483 228.611 159.29 228.01C159.29 228.01 115.29 210.68 111.59 206.72C107.89 202.76 103.68 182.43 103.68 182.43L115.18 178.74Z" fill="#E4897B"/>
<path d="M106.64 154.49C114.32 152.89 118.29 184.76 118.29 184.76L102.58 188.76C102.58 188.76 97.1898 156.47 106.64 154.49Z" fill="#315B99"/>
<path opacity="0.5" d="M106.64 154.49C114.32 152.89 118.29 184.76 118.29 184.76L102.58 188.76C102.58 188.76 97.1898 156.47 106.64 154.49Z" fill="white"/>
<path d="M101.66 188L119.28 183.78V186.81L102.45 191.69L101.66 188Z" fill="#315B99"/>
<path d="M162 387V249.92C162.001 243.987 160.183 238.197 156.79 233.33L152 226.47H237.1L241.89 233.33C245.283 238.197 247.101 243.987 247.1 249.92V385.7" stroke="#263238" stroke-width="6" stroke-linecap="round" stroke-linejoin="round"/>
<path d="M342.85 417.05C347.716 417.05 351.66 413.105 351.66 408.24C351.66 403.374 347.716 399.43 342.85 399.43C337.984 399.43 334.04 403.374 334.04 408.24C334.04 413.105 337.984 417.05 342.85 417.05Z" fill="#263238"/>
<path opacity="0.4" d="M347.26 408.24C347.262 407.367 347.005 406.514 346.522 405.787C346.038 405.061 345.35 404.494 344.545 404.158C343.739 403.823 342.852 403.734 341.996 403.903C341.14 404.072 340.353 404.492 339.735 405.108C339.117 405.724 338.696 406.51 338.525 407.366C338.354 408.222 338.441 409.109 338.775 409.915C339.108 410.722 339.673 411.411 340.399 411.896C341.124 412.381 341.977 412.64 342.85 412.64C343.429 412.641 344.002 412.528 344.537 412.308C345.072 412.087 345.558 411.763 345.968 411.355C346.377 410.946 346.702 410.46 346.924 409.926C347.146 409.391 347.26 408.818 347.26 408.24Z" fill="white"/>
<path d="M341.79 410.2C341.103 410.199 340.433 409.988 339.87 409.594C339.306 409.201 338.877 408.645 338.64 408L333.45 393.78H345.14V406.85C345.14 407.738 344.787 408.59 344.159 409.219C343.531 409.847 342.679 410.2 341.79 410.2Z" fill="#263238"/>
<path opacity="0.2" d="M341.79 410.2C341.103 410.199 340.433 409.988 339.87 409.594C339.306 409.201 338.877 408.645 338.64 408L333.45 393.78H345.14V406.85C345.14 407.738 344.787 408.59 344.159 409.219C343.531 409.847 342.679 410.2 341.79 410.2Z" fill="white"/>
<path d="M244.85 417.05C249.716 417.05 253.66 413.105 253.66 408.24C253.66 403.374 249.716 399.43 244.85 399.43C239.984 399.43 236.04 403.374 236.04 408.24C236.04 413.105 239.984 417.05 244.85 417.05Z" fill="#263238"/>
<path opacity="0.4" d="M249.26 408.24C249.262 407.367 249.005 406.514 248.522 405.787C248.038 405.061 247.35 404.494 246.545 404.158C245.739 403.823 244.852 403.734 243.996 403.903C243.14 404.072 242.353 404.492 241.735 405.108C241.117 405.724 240.696 406.51 240.525 407.366C240.354 408.222 240.441 409.109 240.775 409.915C241.108 410.722 241.673 411.411 242.399 411.896C243.124 412.381 243.977 412.64 244.85 412.64C245.429 412.641 246.002 412.528 246.537 412.308C247.072 412.087 247.558 411.763 247.968 411.355C248.377 410.946 248.702 410.46 248.924 409.926C249.146 409.391 249.26 408.818 249.26 408.24Z" fill="white"/>
<path d="M243.79 410.2C243.103 410.199 242.433 409.988 241.87 409.594C241.306 409.201 240.877 408.645 240.64 408L235.45 393.78H247.14V406.85C247.14 407.738 246.787 408.59 246.159 409.219C245.531 409.847 244.679 410.2 243.79 410.2Z" fill="#263238"/>
<path opacity="0.2" d="M243.79 410.2C243.103 410.199 242.433 409.988 241.87 409.594C241.306 409.201 240.877 408.645 240.64 408L235.45 393.78H247.14V406.85C247.14 407.738 246.787 408.59 246.159 409.219C245.531 409.847 244.679 410.2 243.79 410.2Z" fill="white"/>
<path d="M358 383.53V391.85C358 392.595 357.704 393.31 357.177 393.837C356.65 394.364 355.935 394.66 355.19 394.66H158.26C157.515 394.66 156.8 394.364 156.273 393.837C155.746 393.31 155.45 392.595 155.45 391.85V383.53H358Z" fill="#263238"/>
<path opacity="0.4" d="M358 383.53V391.85C358 392.595 357.704 393.31 357.177 393.837C356.65 394.364 355.935 394.66 355.19 394.66H158.26C157.515 394.66 156.8 394.364 156.273 393.837C155.746 393.31 155.45 392.595 155.45 391.85V383.53H358Z" fill="white"/>
<path opacity="0.2" d="M288 383.53V391.85C288 392.595 287.704 393.31 287.177 393.837C286.65 394.364 285.935 394.66 285.19 394.66H158.26C157.515 394.66 156.8 394.364 156.273 393.837C155.746 393.31 155.45 392.595 155.45 391.85V383.53H288Z" fill="white"/>
<path d="M271.85 417.05C276.716 417.05 280.66 413.105 280.66 408.24C280.66 403.374 276.716 399.43 271.85 399.43C266.984 399.43 263.04 403.374 263.04 408.24C263.04 413.105 266.984 417.05 271.85 417.05Z" fill="#263238"/>
<path opacity="0.6" d="M276.26 408.24C276.262 407.367 276.005 406.514 275.522 405.787C275.038 405.061 274.35 404.494 273.545 404.158C272.739 403.823 271.852 403.734 270.996 403.903C270.14 404.072 269.353 404.492 268.735 405.108C268.117 405.724 267.696 406.51 267.525 407.366C267.354 408.222 267.441 409.109 267.775 409.915C268.108 410.722 268.673 411.411 269.399 411.896C270.124 412.381 270.977 412.64 271.85 412.64C272.429 412.641 273.002 412.528 273.537 412.308C274.072 412.087 274.558 411.763 274.968 411.355C275.377 410.946 275.702 410.46 275.924 409.926C276.146 409.391 276.26 408.818 276.26 408.24Z" fill="white"/>
<path d="M270.79 410.2C270.103 410.199 269.433 409.988 268.87 409.594C268.306 409.201 267.877 408.645 267.64 408L262.45 393.78H274.14V406.85C274.14 407.738 273.787 408.59 273.159 409.219C272.531 409.847 271.679 410.2 270.79 410.2Z" fill="#263238"/>
<path opacity="0.4" d="M270.79 410.2C270.103 410.199 269.433 409.988 268.87 409.594C268.306 409.201 267.877 408.645 267.64 408L262.45 393.78H274.14V406.85C274.14 407.738 273.787 408.59 273.159 409.219C272.531 409.847 271.679 410.2 270.79 410.2Z" fill="white"/>
<path d="M173.85 417.05C178.716 417.05 182.66 413.105 182.66 408.24C182.66 403.374 178.716 399.43 173.85 399.43C168.984 399.43 165.04 403.374 165.04 408.24C165.04 413.105 168.984 417.05 173.85 417.05Z" fill="#263238"/>
<path opacity="0.6" d="M178.26 408.24C178.262 407.367 178.005 406.514 177.522 405.787C177.038 405.061 176.35 404.494 175.545 404.158C174.739 403.823 173.852 403.734 172.996 403.903C172.14 404.072 171.353 404.492 170.735 405.108C170.117 405.724 169.696 406.51 169.525 407.366C169.354 408.222 169.441 409.109 169.775 409.915C170.108 410.722 170.673 411.411 171.399 411.896C172.124 412.381 172.977 412.64 173.85 412.64C174.429 412.641 175.002 412.528 175.537 412.308C176.072 412.087 176.558 411.763 176.968 411.355C177.377 410.946 177.702 410.46 177.924 409.926C178.146 409.391 178.26 408.818 178.26 408.24Z" fill="white"/>
<path d="M172.79 410.2C172.103 410.199 171.433 409.988 170.87 409.594C170.306 409.201 169.877 408.645 169.64 408L164.45 393.78H176.14V406.85C176.14 407.738 175.787 408.59 175.159 409.219C174.531 409.847 173.679 410.2 172.79 410.2Z" fill="#263238"/>
<path opacity="0.4" d="M172.79 410.2C172.103 410.199 171.433 409.988 170.87 409.594C170.306 409.201 169.877 408.645 169.64 408L164.45 393.78H176.14V406.85C176.14 407.738 175.787 408.59 175.159 409.219C174.531 409.847 173.679 410.2 172.79 410.2Z" fill="white"/>
<path d="M273.09 318.98H179.84V383.53H273.09V318.98Z" fill="#315B99"/>
<path opacity="0.4" d="M273.09 318.98H179.84V383.53H273.09V318.98Z" fill="white"/>
<path opacity="0.2" d="M223.11 318.98H179.84V383.53H223.11V318.98Z" fill="white"/>
<path opacity="0.2" d="M219.02 369.88H213.61C213.102 369.88 212.69 370.292 212.69 370.8V378.19C212.69 378.698 213.102 379.11 213.61 379.11H219.02C219.528 379.11 219.94 378.698 219.94 378.19V370.8C219.94 370.292 219.528 369.88 219.02 369.88Z" fill="black"/>
<path opacity="0.2" d="M209.26 369.88H203.85C203.342 369.88 202.93 370.292 202.93 370.8V378.19C202.93 378.698 203.342 379.11 203.85 379.11H209.26C209.768 379.11 210.18 378.698 210.18 378.19V370.8C210.18 370.292 209.768 369.88 209.26 369.88Z" fill="black"/>
<path opacity="0.4" d="M253.04 318.98H247.77V325.71H253.04V318.98Z" fill="black"/>
<path opacity="0.2" d="M267.45 346.54H231.15V354.98H267.45V346.54Z" fill="black"/>
<path opacity="0.2" d="M195.07 322.34H182.66V334.75H195.07V322.34Z" fill="black"/>
<path d="M282.61 254.43H189.36V318.98H282.61V254.43Z" fill="#315B99"/>
<path opacity="0.4" d="M282.61 254.43H189.36V318.98H282.61V254.43Z" fill="black"/>
<path opacity="0.2" d="M232.63 254.43H189.36V318.98H232.63V254.43Z" fill="white"/>
<path opacity="0.2" d="M228.55 305.33H223.14C222.632 305.33 222.22 305.742 222.22 306.25V313.64C222.22 314.148 222.632 314.56 223.14 314.56H228.55C229.058 314.56 229.47 314.148 229.47 313.64V306.25C229.47 305.742 229.058 305.33 228.55 305.33Z" fill="black"/>
<path opacity="0.2" d="M218.79 305.33H213.38C212.872 305.33 212.46 305.742 212.46 306.25V313.64C212.46 314.148 212.872 314.56 213.38 314.56H218.79C219.298 314.56 219.71 314.148 219.71 313.64V306.25C219.71 305.742 219.298 305.33 218.79 305.33Z" fill="black"/>
<path opacity="0.4" d="M262.56 254.43H257.29V261.16H262.56V254.43Z" fill="black"/>
<path opacity="0.2" d="M276.97 281.99H240.67V290.43H276.97V281.99Z" fill="black"/>
<path opacity="0.2" d="M204.6 257.79H192.19V270.2H204.6V257.79Z" fill="black"/>
<path d="M339.69 254.43H246.44V318.98H339.69V254.43Z" fill="#315B99"/>
<path opacity="0.4" d="M339.69 254.43H246.44V318.98H339.69V254.43Z" fill="white"/>
<path opacity="0.2" d="M289.71 254.43H246.44V318.98H289.71V254.43Z" fill="white"/>
<path opacity="0.2" d="M285.63 305.33H280.22C279.712 305.33 279.3 305.742 279.3 306.25V313.64C279.3 314.148 279.712 314.56 280.22 314.56H285.63C286.138 314.56 286.55 314.148 286.55 313.64V306.25C286.55 305.742 286.138 305.33 285.63 305.33Z" fill="black"/>
<path opacity="0.2" d="M275.87 305.33H270.46C269.952 305.33 269.54 305.742 269.54 306.25V313.64C269.54 314.148 269.952 314.56 270.46 314.56H275.87C276.378 314.56 276.79 314.148 276.79 313.64V306.25C276.79 305.742 276.378 305.33 275.87 305.33Z" fill="black"/>
<path opacity="0.4" d="M319.64 254.43H314.37V261.16H319.64V254.43Z" fill="black"/>
<path opacity="0.2" d="M334.05 281.99H297.75V290.43H334.05V281.99Z" fill="black"/>
<path opacity="0.2" d="M261.68 257.79H249.27V270.2H261.68V257.79Z" fill="black"/>
<path d="M307.44 189.88H214.19V254.43H307.44V189.88Z" fill="#315B99"/>
<path opacity="0.2" d="M257.46 189.88H214.19V254.43H257.46V189.88Z" fill="white"/>
<path opacity="0.2" d="M253.37 240.78H247.96C247.452 240.78 247.04 241.192 247.04 241.7V249.09C247.04 249.598 247.452 250.01 247.96 250.01H253.37C253.878 250.01 254.29 249.598 254.29 249.09V241.7C254.29 241.192 253.878 240.78 253.37 240.78Z" fill="black"/>
<path opacity="0.2" d="M243.62 240.78H238.21C237.702 240.78 237.29 241.192 237.29 241.7V249.09C237.29 249.598 237.702 250.01 238.21 250.01H243.62C244.128 250.01 244.54 249.598 244.54 249.09V241.7C244.54 241.192 244.128 240.78 243.62 240.78Z" fill="black"/>
<path opacity="0.4" d="M287.39 189.88H282.12V196.61H287.39V189.88Z" fill="black"/>
<path opacity="0.2" d="M301.8 217.44H265.5V225.88H301.8V217.44Z" fill="black"/>
<path opacity="0.2" d="M229.42 193.24H217.01V205.65H229.42V193.24Z" fill="black"/>
<path d="M332.43 318.98H239.18V383.53H332.43V318.98Z" fill="#263238"/>
<path opacity="0.2" d="M332.43 318.98H239.18V383.53H332.43V318.98Z" fill="white"/>
<path opacity="0.2" d="M282.45 318.98H239.18V383.53H282.45V318.98Z" fill="white"/>
<path opacity="0.2" d="M278.36 369.88H272.95C272.442 369.88 272.03 370.292 272.03 370.8V378.19C272.03 378.698 272.442 379.11 272.95 379.11H278.36C278.868 379.11 279.28 378.698 279.28 378.19V370.8C279.28 370.292 278.868 369.88 278.36 369.88Z" fill="black"/>
<path opacity="0.2" d="M268.6 369.88H263.19C262.682 369.88 262.27 370.292 262.27 370.8V378.19C262.27 378.698 262.682 379.11 263.19 379.11H268.6C269.108 379.11 269.52 378.698 269.52 378.19V370.8C269.52 370.292 269.108 369.88 268.6 369.88Z" fill="black"/>
<path opacity="0.4" d="M312.38 318.98H307.11V325.71H312.38V318.98Z" fill="black"/>
<path opacity="0.2" d="M326.79 346.54H290.49V354.98H326.79V346.54Z" fill="black"/>
<path opacity="0.2" d="M254.41 322.34H242V334.75H254.41V322.34Z" fill="black"/>
</svg>
