<svg width="95" height="95" viewBox="0 0 95 95" fill="none" xmlns="http://www.w3.org/2000/svg">
<path d="M47.2649 23.0184C33.8556 23.0184 23.0395 33.8345 23.0395 47.2439C23.0395 60.6533 33.8556 71.4693 47.2649 71.4693C60.6743 71.4693 71.4904 60.6533 71.4904 47.2439C71.4904 33.8345 60.6743 23.0184 47.2649 23.0184ZM47.2649 62.9936C38.5994 62.9936 31.5152 55.9305 31.5152 47.2439C31.5152 38.5573 38.5784 31.4942 47.2649 31.4942C55.9515 31.4942 63.0147 38.5573 63.0147 47.2439C63.0147 55.9305 55.9305 62.9936 47.2649 62.9936ZM78.1319 22.0275C78.1319 25.169 75.6018 27.678 72.4814 27.678C69.3398 27.678 66.8309 25.1479 66.8309 22.0275C66.8309 18.907 69.3609 16.377 72.4814 16.377C75.6018 16.377 78.1319 18.907 78.1319 22.0275ZM94.1767 27.7623C93.8183 20.1932 92.0894 13.4885 86.5443 7.96446C81.0204 2.44047 74.3157 0.711583 66.7465 0.332072C58.9455 -0.110691 35.5634 -0.110691 27.7623 0.332072C20.2142 0.690499 13.5095 2.41938 7.96446 7.94338C2.41938 13.4674 0.711583 20.1721 0.332072 27.7412C-0.110691 35.5423 -0.110691 58.9244 0.332072 66.7254C0.690499 74.2946 2.41938 80.9993 7.96446 86.5233C13.5095 92.0473 20.1932 93.7761 27.7623 94.1557C35.5634 94.5984 58.9455 94.5984 66.7465 94.1557C74.3157 93.7972 81.0204 92.0683 86.5443 86.5233C92.0683 80.9993 93.7972 74.2946 94.1767 66.7254C94.6195 58.9244 94.6195 35.5634 94.1767 27.7623ZM84.0986 75.0958C82.4541 79.2282 79.2704 82.4119 75.1169 84.0775C68.8971 86.5444 54.1383 85.9751 47.2649 85.9751C40.3916 85.9751 25.6117 86.5233 19.413 84.0775C15.2806 82.433 12.0969 79.2493 10.4313 75.0958C7.96446 68.876 8.53373 54.1172 8.53373 47.2439C8.53373 40.3705 7.98555 25.5906 10.4313 19.392C12.0758 15.2595 15.2595 12.0758 19.413 10.4102C25.6328 7.94338 40.3916 8.51265 47.2649 8.51265C54.1383 8.51265 68.9182 7.96446 75.1169 10.4102C79.2493 12.0547 82.433 15.2384 84.0986 19.392C86.5654 25.6117 85.9962 40.3705 85.9962 47.2439C85.9962 54.1172 86.5654 68.8971 84.0986 75.0958Z" fill="white"/>
</svg>
