<svg width="95" height="95" viewBox="0 0 95 95" fill="none" xmlns="http://www.w3.org/2000/svg">
<path d="M87.7582 0H6.72953C3.01669 0 0 3.05888 0 6.81392V87.6949C0 91.4499 3.01669 94.5088 6.72953 94.5088H87.7582C91.471 94.5088 94.5088 91.4499 94.5088 87.6949V6.81392C94.5088 3.05888 91.471 0 87.7582 0ZM28.5636 81.0076H14.556V35.9049H28.5847V81.0076H28.5636ZM21.5598 29.745C17.0664 29.745 13.438 26.0954 13.438 21.6231C13.438 17.1508 17.0664 13.5013 21.5598 13.5013C26.0321 13.5013 29.6817 17.1508 29.6817 21.6231C29.6817 26.1165 26.0532 29.745 21.5598 29.745ZM81.0708 81.0076H67.0633V59.068C67.0633 53.8363 66.9578 47.1067 59.7853 47.1067C52.4861 47.1067 51.3681 52.8026 51.3681 58.6883V81.0076H37.3605V35.9049H50.7985V42.0649H50.9883C52.8659 38.5208 57.4436 34.7868 64.2576 34.7868C78.4339 34.7868 81.0708 44.1322 81.0708 56.2834V81.0076Z" fill="white"/>
</svg>
